<svg width="158" height="60" viewBox="0 0 158 60" fill="none" xmlns="http://www.w3.org/2000/svg">
<path d="M95.4051 17.6688C74.1861 16.9086 52.9606 17.0064 31.7438 17.9816C25.7415 18.2575 19.7415 18.605 13.7414 19.0177C10.316 19.2544 10.3006 30.1864 13.7414 29.9496C34.9516 28.49 56.175 27.8862 77.3961 28.1599C83.3984 28.2381 89.4006 28.3858 95.4029 28.6008C98.8371 28.7246 98.8393 17.7905 95.4029 17.6688H95.4051Z" fill="#FBBC43"/>
<path d="M134.204 44.5285C102.808 43.7682 71.4027 43.866 40.0084 44.8412C31.1282 45.1171 22.2501 45.4646 13.3721 45.8773C8.30422 46.1141 8.28223 57.046 13.3721 56.8093C44.7553 55.3496 76.1583 54.7458 107.559 55.0195C116.442 55.0977 125.324 55.2454 134.204 55.4604C139.288 55.5842 139.288 44.6501 134.204 44.5285Z" fill="#FBBC43"/>
<path d="M8.78352 26.2962C8.32841 25.5317 7.88427 24.7845 7.44015 24.0373C7.05612 23.3929 6.52479 23.2148 5.84614 23.503C5.18876 23.7832 4.53357 24.0655 3.87398 24.3436C3.72448 24.4066 3.58377 24.5217 3.35731 24.4239C3.44965 23.4139 3.54199 22.3844 3.63873 21.3548C3.69149 20.7966 3.6959 20.7901 3.13525 20.6641C2.22721 20.4599 1.31918 20.2645 0.411142 20.0668C0.296814 20.0429 0.169288 20.0472 0.0483634 19.8626C0.369363 19.5021 0.70796 19.1198 1.04655 18.7375C1.42691 18.3118 1.79188 17.8752 2.19203 17.4712C2.44267 17.2192 2.46246 17.0455 2.20742 16.774C1.55662 16.0832 0.938808 15.3621 0.310001 14.6497C0.217658 14.5454 0.134116 14.4325 0 14.2631C0.888246 14.0654 1.72373 13.8895 2.55701 13.6896C2.92418 13.6028 3.39029 13.6614 3.63214 13.379C3.86519 13.1054 3.61235 12.7014 3.60576 12.3538C3.59037 11.4894 3.38808 10.6357 3.42985 9.69306C4.30931 10.0688 5.13379 10.4207 5.96048 10.7747C6.0924 10.8312 6.21992 10.892 6.35184 10.9485C6.88171 11.1744 6.8861 11.1744 7.17412 10.7031C7.71279 9.8147 8.24925 8.92199 8.77912 8.03796C9.04296 8.0814 9.07594 8.29426 9.16828 8.44413C9.64758 9.23259 10.1291 10.021 10.582 10.8247C10.7469 11.1158 10.8898 11.1614 11.1998 11.0224C12.1958 10.5749 13.2094 10.1644 14.3109 9.69958C14.2581 10.3469 14.2163 10.9159 14.1636 11.4872C14.1174 12.0041 14.08 12.5233 14.0031 13.0359C13.9547 13.3617 14.0514 13.4963 14.3856 13.5658C15.4586 13.7874 16.5271 14.0393 17.6308 14.2891C17.4791 14.6519 17.1933 14.8712 16.9668 15.1319C16.4677 15.7031 15.9642 16.2744 15.441 16.8239C15.2145 17.0628 15.2035 17.2192 15.4388 17.4668C16.0258 18.0881 16.582 18.7353 17.1449 19.3783C17.2988 19.5542 17.4945 19.7019 17.6066 20.006C16.8921 20.1689 16.1885 20.3274 15.4871 20.486C15.1156 20.5707 14.7462 20.6793 14.368 20.7249C13.9701 20.7727 13.9415 20.9682 13.9789 21.3049C14.0998 22.3561 14.1834 23.4118 14.2823 24.4587C14.036 24.5651 13.8865 24.4152 13.7216 24.3479C12.9763 24.033 12.2376 23.7006 11.49 23.3922C10.6831 23.0577 10.8392 22.9926 10.3621 23.7745C9.88283 24.5629 9.40793 25.3536 8.92863 26.142C8.90444 26.1811 8.86487 26.2115 8.78352 26.2984V26.2962Z" fill="#00CE6C"/>
<path d="M152.222 53.0169C152.189 52.9126 152.158 52.8127 152.13 52.7106L151.91 51.8722C151.54 50.4517 151.158 48.9833 150.723 47.552C150.569 47.0415 150.635 46.9112 151.145 46.7222C152.668 46.1618 154.185 45.5363 155.606 44.9455C155.777 44.8738 155.955 44.8108 156.133 44.7478C156.67 44.5567 157.224 44.3612 157.725 43.9246L158 43.6857L157.716 43.4576C157.202 43.0428 156.692 42.6301 156.186 42.2196C154.86 41.1444 153.609 40.1301 152.31 39.1222C151.881 38.7899 151.853 38.6248 152.156 38.1926C152.673 37.4563 153.15 36.6808 153.609 35.9315L153.922 35.4232C154.359 34.7151 154.79 34.0027 155.25 33.2425L156.138 31.7742L155.628 31.7459C154.922 31.7068 154.234 31.6656 153.559 31.6265C151.828 31.5244 150.195 31.4288 148.548 31.3723C147.992 31.3528 147.897 31.2616 147.871 30.7251C147.779 28.8158 147.618 26.8805 147.458 24.9583C147.451 24.8888 147.453 24.8171 147.455 24.7432C147.46 24.4152 147.466 23.9656 146.985 23.6203L146.813 23.4986L145.017 24.6477C143.724 25.4752 142.425 26.3049 141.123 27.1325C140.621 27.4511 140.165 27.3729 139.756 26.8979C139.657 26.7828 139.56 26.6655 139.463 26.5482C139.371 26.4374 139.281 26.3245 139.186 26.2159L135.169 21.5308L134.954 21.9196C134.389 22.9339 134.006 23.9635 133.637 24.9583C133.362 25.6989 133.103 26.4005 132.775 27.0825C132.654 27.3367 132.588 27.619 132.527 27.8905C132.404 28.4227 132.309 28.7528 132.017 28.881C131.627 29.0482 131.15 28.8766 130.645 28.6942C130.405 28.6073 130.154 28.5183 129.904 28.4618C128.677 28.1859 127.454 27.8884 126.192 27.5821L124.104 27.076L124.291 27.9535C124.339 28.1903 124.379 28.3836 124.429 28.5726C124.561 29.0656 124.691 29.5587 124.821 30.0496C125.188 31.4462 125.568 32.8906 125.992 34.3003C126.162 34.865 126.08 35.0192 125.502 35.219C125.473 35.2299 125.445 35.2408 125.414 35.2516C125.452 35.4601 125.467 35.673 125.46 35.888C125.542 35.8598 125.623 35.825 125.704 35.7968C126.593 35.4905 126.848 35.0084 126.584 34.1287C126.164 32.7299 125.784 31.2898 125.419 29.8997C125.289 29.4066 125.159 28.9114 125.027 28.4183C124.983 28.2576 124.95 28.0947 124.911 27.9014L126.047 28.1772C127.312 28.4857 128.538 28.7832 129.77 29.0591C129.981 29.1069 130.203 29.1851 130.436 29.2698C131.005 29.4761 131.652 29.7085 132.269 29.4436C132.87 29.1851 133.01 28.5704 133.136 28.0295C133.193 27.7776 133.248 27.5408 133.34 27.3475C133.679 26.6416 133.956 25.8944 134.224 25.1733C134.536 24.3305 134.859 23.4617 135.293 22.6124L138.722 26.6134C138.815 26.7198 138.903 26.8284 138.993 26.937C139.092 27.0586 139.193 27.1803 139.296 27.2997C140.178 28.3228 140.36 28.3532 141.469 27.6516C142.772 26.8262 144.069 25.9943 145.364 25.1668L146.774 24.2654C146.849 24.3848 146.853 24.5304 146.849 24.7411C146.849 24.8345 146.846 24.9279 146.857 25.069C147.013 26.9348 147.174 28.8658 147.264 30.762C147.306 31.6156 147.662 31.961 148.537 31.9892C150.175 32.0435 151.804 32.1391 153.532 32.2412C154.045 32.2716 154.566 32.302 155.093 32.3324L154.728 32.9362C154.271 33.6943 153.84 34.4045 153.405 35.1104L153.09 35.6209C152.635 36.3637 152.163 37.1304 151.657 37.8516C151.167 38.551 151.25 39.0766 151.936 39.6088C153.231 40.6122 154.48 41.6244 155.801 42.6974C156.208 43.0276 156.617 43.3577 157.028 43.6901C156.69 43.9073 156.318 44.0397 155.931 44.1766C155.742 44.2439 155.553 44.3113 155.373 44.3873C153.957 44.9759 152.448 45.5993 150.936 46.1553C150.12 46.4551 149.889 46.9112 150.138 47.7322C150.569 49.1506 150.949 50.6146 151.318 52.0286L151.538 52.8692C151.567 52.9799 151.602 53.0929 151.637 53.2058C151.719 53.4665 151.798 53.7163 151.815 54.0095L147.759 53.0516C147.535 52.9995 147.31 52.9495 147.084 52.9017C146.545 52.7844 145.987 52.6628 145.47 52.4825C144.382 52.1002 144.039 52.754 143.803 53.397C143.254 54.8957 142.658 56.4074 142.082 57.867C141.888 58.3579 141.695 58.8488 141.504 59.3397C141.367 59.2789 141.282 59.1638 141.159 58.99C141.104 58.9118 141.049 58.8358 140.989 58.7663C140.523 58.2254 140.061 57.6802 139.6 57.1351C138.973 56.3944 138.344 55.6537 137.704 54.9239C137.625 54.8327 137.553 54.748 137.485 54.6698C137.397 54.8696 137.291 55.0629 137.168 55.2454C137.192 55.2714 137.212 55.2953 137.236 55.3236C137.874 56.0512 138.498 56.7875 139.125 57.526C139.589 58.0734 140.05 58.6186 140.519 59.1616C140.565 59.2159 140.609 59.2767 140.653 59.3375C140.84 59.6003 141.095 59.9631 141.686 59.9891L141.908 60L141.987 59.7958C142.209 59.2267 142.434 58.6555 142.66 58.0842C143.236 56.6203 143.834 55.1064 144.386 53.6011C144.626 52.9495 144.749 52.8735 145.263 53.0538C145.815 53.2471 146.393 53.3731 146.952 53.4947C147.174 53.5425 147.394 53.5903 147.614 53.6424L152.378 54.7675L152.418 54.4243C152.484 53.8379 152.345 53.4035 152.224 53.0212L152.222 53.0169Z" fill="#00CE6C"/>
<path d="M21.1483 4.74925H25.1349C26.4957 4.74925 27.4884 5.06559 28.1128 5.69827C28.7372 6.31512 29.0494 7.27205 29.0494 8.56903V9.23334C29.0494 10.0875 28.9053 10.7834 28.6171 11.3212C28.3449 11.8589 27.9207 12.2465 27.3443 12.4837V12.5312C28.6572 12.974 29.3136 14.1287 29.3136 15.9951V17.4186C29.3136 18.6998 28.9693 19.6804 28.2809 20.3605C27.6085 21.0248 26.6158 21.357 25.303 21.357H21.1483V4.74925ZM24.8227 11.511C25.351 11.511 25.7433 11.3765 25.9994 11.1076C26.2716 10.8388 26.4077 10.388 26.4077 9.7553V8.83001C26.4077 8.22897 26.2956 7.79401 26.0715 7.52512C25.8633 7.25623 25.5271 7.12179 25.0628 7.12179H23.79V11.511H24.8227ZM25.303 18.9845C25.7673 18.9845 26.1115 18.8658 26.3356 18.6286C26.5598 18.3755 26.6719 17.9485 26.6719 17.3474V15.9002C26.6719 15.141 26.5358 14.619 26.2636 14.3343C26.0074 14.0338 25.5751 13.8835 24.9667 13.8835H23.79V18.9845H25.303Z" fill="white"/>
<path d="M30.8577 4.74925H38.0624V7.12179H33.4994V11.511H37.1258V13.8835H33.4994V18.9845H38.0624V21.357H30.8577V4.74925Z" fill="white"/>
<path d="M39.5821 4.74925H42.8963L45.466 14.6902H45.514V4.74925H47.8675V21.357H45.1538L41.9837 9.23334H41.9357V21.357H39.5821V4.74925Z" fill="white"/>
<path d="M49.831 4.74925H57.0357V7.12179H52.4727V11.511H56.0991V13.8835H52.4727V18.9845H57.0357V21.357H49.831V4.74925Z" fill="white"/>
<path d="M58.5554 4.74925H65.5439V7.12179H61.1971V11.7482H64.6073V14.1208H61.1971V21.357H58.5554V4.74925Z" fill="white"/>
<path d="M66.8108 4.74925H69.4525V21.357H66.8108V4.74925ZM68.3718 0.905746H71.2537L68.684 3.63416H66.6907L68.3718 0.905746Z" fill="white"/>
<path d="M75.1534 21.5942C73.8886 21.5942 72.9199 21.2384 72.2475 20.5266C71.5911 19.8148 71.2628 18.8105 71.2628 17.5135V8.59276C71.2628 7.29577 71.5911 6.2914 72.2475 5.57964C72.9199 4.86788 73.8886 4.512 75.1534 4.512C76.4182 4.512 77.3788 4.86788 78.0353 5.57964C78.7077 6.2914 79.0439 7.29577 79.0439 8.59276V10.3484H76.5463V8.42668C76.5463 7.39858 76.106 6.88453 75.2254 6.88453C74.3449 6.88453 73.9046 7.39858 73.9046 8.42668V17.7033C73.9046 18.7156 74.3449 19.2217 75.2254 19.2217C76.106 19.2217 76.5463 18.7156 76.5463 17.7033V15.1647H79.0439V17.5135C79.0439 18.8105 78.7077 19.8148 78.0353 20.5266C77.3788 21.2384 76.4182 21.5942 75.1534 21.5942Z" fill="white"/>
<path d="M80.6244 4.74925H83.2662V21.357H80.6244V4.74925Z" fill="white"/>
<path d="M89.0631 21.5942C87.7663 21.5942 86.7736 21.2305 86.0852 20.5029C85.3967 19.7753 85.0525 18.7472 85.0525 17.4186V8.68766C85.0525 7.35904 85.3967 6.33094 86.0852 5.60337C86.7736 4.87579 87.7663 4.512 89.0631 4.512C90.36 4.512 91.3526 4.87579 92.0411 5.60337C92.7295 6.33094 93.0737 7.35904 93.0737 8.68766V17.4186C93.0737 18.7472 92.7295 19.7753 92.0411 20.5029C91.3526 21.2305 90.36 21.5942 89.0631 21.5942ZM89.0631 19.2217C89.9757 19.2217 90.432 18.676 90.432 17.5847V8.52158C90.432 7.43022 89.9757 6.88453 89.0631 6.88453C88.1505 6.88453 87.6942 7.43022 87.6942 8.52158V17.5847C87.6942 18.676 88.1505 19.2217 89.0631 19.2217Z" fill="white"/>
<path d="M98.2945 21.5942C97.0137 21.5942 96.045 21.2384 95.3886 20.5266C94.7322 19.799 94.404 18.763 94.404 17.4186V16.4696H96.9016V17.6084C96.9016 18.6839 97.3579 19.2217 98.2705 19.2217C98.7188 19.2217 99.055 19.0952 99.2791 18.8421C99.5193 18.5732 99.6394 18.1462 99.6394 17.5609C99.6394 16.865 99.4793 16.256 99.1591 15.7341C98.8388 15.1963 98.2465 14.5557 97.3819 13.8123C96.2932 12.8633 95.5327 12.0092 95.1004 11.25C94.6681 10.475 94.452 9.60504 94.452 8.64021C94.452 7.32741 94.7882 6.31513 95.4607 5.60337C96.1331 4.87579 97.1097 4.512 98.3906 4.512C99.6554 4.512 100.608 4.87579 101.248 5.60337C101.905 6.31513 102.233 7.34322 102.233 8.68766V9.3757H99.7354V8.52158C99.7354 7.95217 99.6234 7.54094 99.3992 7.28786C99.1751 7.01898 98.8469 6.88453 98.4146 6.88453C97.534 6.88453 97.0937 7.4144 97.0937 8.47413C97.0937 9.07517 97.2538 9.63667 97.574 10.1586C97.9102 10.6806 98.5106 11.3133 99.3752 12.0567C100.48 13.0057 101.24 13.8677 101.657 14.6427C102.073 15.4177 102.281 16.3272 102.281 17.3711C102.281 18.7314 101.937 19.7753 101.248 20.5029C100.576 21.2305 99.5913 21.5942 98.2945 21.5942Z" fill="white"/>
<path d="M26.5136 30.2809H29.625V49.8413H26.5136V30.2809Z" fill="white"/>
<path d="M31.936 30.2809H35.8394L38.8659 41.9892H38.9225V30.2809H41.6944V49.8413H38.4982L34.7645 35.5622H34.708V49.8413H31.936V30.2809Z" fill="white"/>
<path d="M48.6331 50.1207C47.1434 50.1207 46.0025 49.7016 45.2105 48.8633C44.4374 48.025 44.0508 46.842 44.0508 45.3145V34.8077C44.0508 33.2801 44.4374 32.0972 45.2105 31.2589C46.0025 30.4206 47.1434 30.0014 48.6331 30.0014C50.1228 30.0014 51.2542 30.4206 52.0273 31.2589C52.8193 32.0972 53.2153 33.2801 53.2153 34.8077V36.8755H50.2736V34.6121C50.2736 33.4012 49.755 32.7958 48.7179 32.7958C47.6808 32.7958 47.1622 33.4012 47.1622 34.6121V45.538C47.1622 46.7303 47.6808 47.3264 48.7179 47.3264C49.755 47.3264 50.2736 46.7303 50.2736 45.538V42.5481H53.2153V45.3145C53.2153 46.842 52.8193 48.025 52.0273 48.8633C51.2542 49.7016 50.1228 50.1207 48.6331 50.1207Z" fill="white"/>
<path d="M54.8611 30.2809H63.3467V33.0752H57.9725V38.2448H62.2436V41.0391H57.9725V47.047H63.3467V49.8413H54.8611V30.2809Z" fill="white"/>
<path d="M65.2847 30.2809H69.1881L72.2146 41.9892H72.2712V30.2809H75.0432V49.8413H71.8469L68.1133 35.5622H68.0567V49.8413H65.2847V30.2809Z" fill="white"/>
<path d="M79.7677 33.0752H76.5149V30.2809H86.1319V33.0752H82.8791V49.8413H79.7677V33.0752Z" fill="white"/>
<path d="M87.7778 30.2809H90.8892V49.8413H87.7778V30.2809Z" fill="white"/>
<path d="M92.3187 30.2809H95.4583L97.4949 45.4542H97.5514L99.588 30.2809H102.445L99.4466 49.8413H95.3169L92.3187 30.2809Z" fill="white"/>
<path d="M108.411 50.1207C106.884 50.1207 105.715 49.6923 104.904 48.8353C104.093 47.9784 103.687 46.7675 103.687 45.2027V34.9195C103.687 33.3547 104.093 32.1438 104.904 31.2868C105.715 30.4299 106.884 30.0014 108.411 30.0014C109.939 30.0014 111.108 30.4299 111.919 31.2868C112.729 32.1438 113.135 33.3547 113.135 34.9195V45.2027C113.135 46.7675 112.729 47.9784 111.919 48.8353C111.108 49.6923 109.939 50.1207 108.411 50.1207ZM108.411 47.3264C109.486 47.3264 110.023 46.6837 110.023 45.3983V34.7239C110.023 33.4385 109.486 32.7958 108.411 32.7958C107.336 32.7958 106.799 33.4385 106.799 34.7239V45.3983C106.799 46.6837 107.336 47.3264 108.411 47.3264Z" fill="white"/>
<path d="M119.242 50.1207C117.733 50.1207 116.593 49.7016 115.819 48.8633C115.046 48.0064 114.66 46.7862 114.66 45.2027V44.085H117.601V45.4262C117.601 46.693 118.139 47.3264 119.214 47.3264C119.742 47.3264 120.138 47.1774 120.402 46.8793C120.685 46.5626 120.826 46.0596 120.826 45.3703C120.826 44.5507 120.637 43.8335 120.26 43.2187C119.883 42.5853 119.185 41.8308 118.167 40.9553C116.885 39.8375 115.989 38.8316 115.48 37.9374C114.971 37.0246 114.716 36 114.716 34.8636C114.716 33.3174 115.112 32.1251 115.904 31.2868C116.696 30.4299 117.847 30.0014 119.355 30.0014C120.845 30.0014 121.967 30.4299 122.721 31.2868C123.494 32.1251 123.881 33.336 123.881 34.9195V35.7299H120.939V34.7239C120.939 34.0532 120.807 33.5689 120.543 33.2708C120.279 32.9541 119.893 32.7958 119.383 32.7958C118.346 32.7958 117.828 33.4199 117.828 34.668C117.828 35.3759 118.016 36.0372 118.393 36.652C118.789 37.2667 119.497 38.0119 120.515 38.8875C121.816 40.0052 122.712 41.0205 123.202 41.9333C123.692 42.8461 123.937 43.9173 123.937 45.1468C123.937 46.7489 123.532 47.9784 122.721 48.8353C121.929 49.6923 120.769 50.1207 119.242 50.1207Z" fill="white"/>
<path d="M22.1333 3.84351H26.1198C27.4807 3.84351 28.4734 4.15984 29.0978 4.79252C29.7222 5.40938 30.0344 6.3663 30.0344 7.66329V8.3276C30.0344 9.18171 29.8903 9.87765 29.6021 10.4154C29.3299 10.9532 28.9057 11.3407 28.3293 11.578V11.6254C29.6421 12.0683 30.2986 13.2229 30.2986 15.0893V16.5128C30.2986 17.794 29.9543 18.7747 29.2659 19.4548C28.5934 20.1191 27.6008 20.4512 26.288 20.4512H22.1333V3.84351ZM25.8076 10.6052C26.336 10.6052 26.7282 10.4708 26.9844 10.2019C27.2566 9.93301 27.3927 9.48223 27.3927 8.84955V7.92427C27.3927 7.32322 27.2806 6.88826 27.0565 6.61937C26.8483 6.35048 26.5121 6.21604 26.0478 6.21604H24.775V10.6052H25.8076ZM26.288 18.0787C26.7523 18.0787 27.0965 17.9601 27.3206 17.7228C27.5448 17.4698 27.6568 17.0427 27.6568 16.4417V14.9944C27.6568 14.2352 27.5208 13.7132 27.2486 13.4285C26.9924 13.128 26.5601 12.9778 25.9517 12.9778H24.775V18.0787H26.288Z" fill="#00CE6C"/>
<path d="M31.8427 3.84351H39.0474V6.21604H34.4844V10.6052H38.1108V12.9778H34.4844V18.0787H39.0474V20.4512H31.8427V3.84351Z" fill="#00CE6C"/>
<path d="M40.5671 3.84351H43.8813L46.4509 13.7844H46.499V3.84351H48.8525V20.4512H46.1387L42.9687 8.3276H42.9206V20.4512H40.5671V3.84351Z" fill="#00CE6C"/>
<path d="M50.816 3.84351H58.0207V6.21604H53.4577V10.6052H57.084V12.9778H53.4577V18.0787H58.0207V20.4512H50.816V3.84351Z" fill="#00CE6C"/>
<path d="M59.5404 3.84351H66.5289V6.21604H62.1821V10.8425H65.5923V13.215H62.1821V20.4512H59.5404V3.84351Z" fill="#00CE6C"/>
<path d="M67.7958 3.84351H70.4375V20.4512H67.7958V3.84351ZM69.3568 0H72.2386L69.669 2.72841H67.6757L69.3568 0Z" fill="#00CE6C"/>
<path d="M76.1384 20.6885C74.8735 20.6885 73.9049 20.3326 73.2325 19.6209C72.576 18.9091 72.2478 17.9047 72.2478 16.6077V7.68701C72.2478 6.39003 72.576 5.38565 73.2325 4.67389C73.9049 3.96213 74.8735 3.60625 76.1384 3.60625C77.4032 3.60625 78.3638 3.96213 79.0202 4.67389C79.6927 5.38565 80.0289 6.39003 80.0289 7.68701V9.44269H77.5313V7.52094C77.5313 6.49284 77.091 5.97879 76.2104 5.97879C75.3298 5.97879 74.8896 6.49284 74.8896 7.52094V16.7975C74.8896 17.8098 75.3298 18.316 76.2104 18.316C77.091 18.316 77.5313 17.8098 77.5313 16.7975V14.2589H80.0289V16.6077C80.0289 17.9047 79.6927 18.9091 79.0202 19.6209C78.3638 20.3326 77.4032 20.6885 76.1384 20.6885Z" fill="#00CE6C"/>
<path d="M81.6094 3.84351H84.2511V20.4512H81.6094V3.84351Z" fill="#00CE6C"/>
<path d="M90.0481 20.6885C88.7512 20.6885 87.7586 20.3247 87.0702 19.5971C86.3817 18.8696 86.0375 17.8415 86.0375 16.5128V7.78191C86.0375 6.45329 86.3817 5.4252 87.0702 4.69762C87.7586 3.97004 88.7512 3.60625 90.0481 3.60625C91.3449 3.60625 92.3376 3.97004 93.026 4.69762C93.7145 5.4252 94.0587 6.45329 94.0587 7.78191V16.5128C94.0587 17.8415 93.7145 18.8696 93.026 19.5971C92.3376 20.3247 91.3449 20.6885 90.0481 20.6885ZM90.0481 18.316C90.9607 18.316 91.417 17.7703 91.417 16.6789V7.61584C91.417 6.52447 90.9607 5.97879 90.0481 5.97879C89.1355 5.97879 88.6792 6.52447 88.6792 7.61584V16.6789C88.6792 17.7703 89.1355 18.316 90.0481 18.316Z" fill="#00CE6C"/>
<path d="M99.2795 20.6885C97.9986 20.6885 97.03 20.3326 96.3736 19.6209C95.7172 18.8933 95.3889 17.8573 95.3889 16.5128V15.5638H97.8866V16.7026C97.8866 17.7782 98.3429 18.316 99.2555 18.316C99.7038 18.316 100.04 18.1894 100.264 17.9364C100.504 17.6675 100.624 17.2404 100.624 16.6552C100.624 15.9592 100.464 15.3503 100.144 14.8283C99.8238 14.2906 99.2314 13.65 98.3669 12.9066C97.2782 11.9576 96.5177 11.1035 96.0854 10.3443C95.6531 9.56922 95.437 8.69929 95.437 7.73446C95.437 6.42166 95.7732 5.40938 96.4456 4.69762C97.1181 3.97004 98.0947 3.60625 99.3755 3.60625C100.64 3.60625 101.593 3.97004 102.233 4.69762C102.89 5.40938 103.218 6.43748 103.218 7.78191V8.46995H100.72V7.61584C100.72 7.04643 100.608 6.63519 100.384 6.38212C100.16 6.11323 99.8318 5.97879 99.3996 5.97879C98.519 5.97879 98.0787 6.50865 98.0787 7.56838C98.0787 8.16943 98.2388 8.73093 98.559 9.25288C98.8952 9.77484 99.4956 10.4075 100.36 11.1509C101.465 12.0999 102.225 12.9619 102.642 13.737C103.058 14.512 103.266 15.4215 103.266 16.4654C103.266 17.8256 102.922 18.8696 102.233 19.5971C101.561 20.3247 100.576 20.6885 99.2795 20.6885Z" fill="#00CE6C"/>
<path d="M27.4729 29.8117H30.5843V49.3721H27.4729V29.8117Z" fill="#00CE6C"/>
<path d="M32.9145 29.8117H36.8179L39.8444 41.52H39.901V29.8117H42.673V49.3721H39.4767L35.743 35.093H35.6865V49.3721H32.9145V29.8117Z" fill="#00CE6C"/>
<path d="M49.3697 49.6516C47.88 49.6516 46.7392 49.2324 45.9472 48.3941C45.1741 47.5558 44.7875 46.3729 44.7875 44.8453V34.3386C44.7875 32.811 45.1741 31.628 45.9472 30.7897C46.7392 29.9514 47.88 29.5323 49.3697 29.5323C50.8594 29.5323 51.9908 29.9514 52.764 30.7897C53.556 31.628 53.952 32.811 53.952 34.3386V36.4064H51.0103V34.143C51.0103 32.9321 50.4917 32.3266 49.4546 32.3266C48.4175 32.3266 47.8989 32.9321 47.8989 34.143V45.0688C47.8989 46.2611 48.4175 46.8572 49.4546 46.8572C50.4917 46.8572 51.0103 46.2611 51.0103 45.0688V42.0789H53.952V44.8453C53.952 46.3729 53.556 47.5558 52.764 48.3941C51.9908 49.2324 50.8594 49.6516 49.3697 49.6516Z" fill="#00CE6C"/>
<path d="M55.8135 29.8117H64.2991V32.6061H58.9249V37.7756H63.196V40.57H58.9249V46.5778H64.2991V49.3721H55.8135V29.8117Z" fill="#00CE6C"/>
<path d="M66.089 29.8117H69.9924L73.0189 41.52H73.0755V29.8117H75.8475V49.3721H72.6512L68.9176 35.093H68.861V49.3721H66.089V29.8117Z" fill="#00CE6C"/>
<path d="M80.5926 32.6061H77.3397V29.8117H86.9568V32.6061H83.704V49.3721H80.5926V32.6061Z" fill="#00CE6C"/>
<path d="M88.4632 29.8117H91.5746V49.3721H88.4632V29.8117Z" fill="#00CE6C"/>
<path d="M93.0845 29.8117H96.2242L98.2607 44.985H98.3173L100.354 29.8117H103.211L100.212 49.3721H96.0828L93.0845 29.8117Z" fill="#00CE6C"/>
<path d="M109.147 49.6516C107.62 49.6516 106.451 49.2231 105.64 48.3662C104.829 47.5092 104.424 46.2984 104.424 44.7335V34.4503C104.424 32.8855 104.829 31.6746 105.64 30.8177C106.451 29.9607 107.62 29.5323 109.147 29.5323C110.675 29.5323 111.844 29.9607 112.655 30.8177C113.466 31.6746 113.871 32.8855 113.871 34.4503V44.7335C113.871 46.2984 113.466 47.5092 112.655 48.3662C111.844 49.2231 110.675 49.6516 109.147 49.6516ZM109.147 46.8572C110.222 46.8572 110.76 46.2145 110.76 44.9291V34.2547C110.76 32.9693 110.222 32.3266 109.147 32.3266C108.072 32.3266 107.535 32.9693 107.535 34.2547V44.9291C107.535 46.2145 108.072 46.8572 109.147 46.8572Z" fill="#00CE6C"/>
<path d="M120.02 49.6516C118.511 49.6516 117.371 49.2324 116.597 48.3941C115.824 47.5372 115.438 46.317 115.438 44.7335V43.6158H118.379V44.9571C118.379 46.2239 118.917 46.8572 119.992 46.8572C120.52 46.8572 120.916 46.7082 121.18 46.4101C121.462 46.0934 121.604 45.5905 121.604 44.9012C121.604 44.0815 121.415 43.3643 121.038 42.7495C120.661 42.1162 119.963 41.3617 118.945 40.4861C117.663 39.3684 116.767 38.3624 116.258 37.4682C115.749 36.5554 115.494 35.5308 115.494 34.3944C115.494 32.8482 115.89 31.656 116.682 30.8177C117.474 29.9607 118.624 29.5323 120.133 29.5323C121.623 29.5323 122.745 29.9607 123.499 30.8177C124.272 31.656 124.659 32.8669 124.659 34.4503V35.2607H121.717V34.2547C121.717 33.5841 121.585 33.0997 121.321 32.8017C121.057 32.485 120.67 32.3266 120.161 32.3266C119.124 32.3266 118.606 32.9507 118.606 34.1988C118.606 34.9067 118.794 35.5681 119.171 36.1828C119.567 36.7976 120.274 37.5427 121.293 38.4183C122.594 39.536 123.49 40.5513 123.98 41.4641C124.47 42.377 124.715 43.4481 124.715 44.6776C124.715 46.2797 124.31 47.5092 123.499 48.3662C122.707 49.2231 121.547 49.6516 120.02 49.6516Z" fill="#00CE6C"/>
<path d="M107.531 23.5986C107.531 20.5034 112.354 19.9995 112.354 17.7579C112.354 17.1519 112.073 16.6089 111.356 16.6089C110.565 16.6089 110.057 17.2605 110.057 18.1293C110.057 20.0777 112.227 22.6776 114.252 24.1633C115.085 24.7801 115.894 25.2102 116.576 25.4014L116.217 26.4896C115.375 26.2593 114.423 25.7749 113.46 25.0365C111.145 23.2641 108.918 20.36 108.918 18.151C108.918 16.7566 109.894 15.6749 111.354 15.6749C112.662 15.6749 113.429 16.5285 113.429 17.7405C113.429 20.4187 108.817 21.231 108.817 23.5225C108.817 24.6802 109.738 25.447 110.901 25.447C111.78 25.447 112.623 24.9452 113.32 24.2198C114.186 23.2966 114.821 22.0977 115.215 20.6728H116.444C115.982 22.2302 115.27 23.6659 114.243 24.8453C113.355 25.8184 112.233 26.4896 110.751 26.4896C108.841 26.4896 107.533 25.2797 107.533 23.6007L107.531 23.5986Z" fill="#00CE6C"/>
</svg>
