<svg width="37" height="37" viewBox="0 0 37 37" fill="none" xmlns="http://www.w3.org/2000/svg">
<path d="M18.3477 3.62598C14.2054 3.62598 10.8477 6.98373 10.8477 11.126C10.8477 15.2682 14.2054 18.626 18.3477 18.626C22.4899 18.626 25.8477 15.2682 25.8477 11.126C25.8477 6.98373 22.4899 3.62598 18.3477 3.62598ZM12.7227 11.126C12.7227 9.63413 13.3153 8.20339 14.3702 7.1485C15.4251 6.09361 16.8558 5.50098 18.3477 5.50098C19.8395 5.50098 21.2702 6.09361 22.3251 7.1485C23.38 8.20339 23.9727 9.63413 23.9727 11.126C23.9727 12.6178 23.38 14.0486 22.3251 15.1035C21.2702 16.1583 19.8395 16.751 18.3477 16.751C16.8558 16.751 15.4251 16.1583 14.3702 15.1035C13.3153 14.0486 12.7227 12.6178 12.7227 11.126ZM9.53516 21.626C8.68991 21.626 7.87927 21.9617 7.28152 22.5593C6.68377 23.1569 6.34786 23.9675 6.34766 24.8127V25.376C6.34766 28.1922 7.80416 30.3012 10.0377 31.661C12.2352 32.9982 15.1872 33.626 18.3477 33.626C21.5082 33.626 24.4602 32.9982 26.6577 31.661C28.8912 30.3012 30.3477 28.1922 30.3477 25.376V24.8127C30.3477 24.3942 30.2652 23.9797 30.105 23.593C29.9448 23.2064 29.71 22.855 29.414 22.5591C29.118 22.2632 28.7666 22.0284 28.3799 21.8683C27.9932 21.7082 27.5787 21.6259 27.1602 21.626H9.53516ZM8.22266 24.8127C8.22286 24.4648 8.36122 24.1311 8.60734 23.8851C8.85346 23.6392 9.18719 23.501 9.53516 23.501H27.1602C27.8854 23.501 28.4727 24.0882 28.4727 24.8127V25.376C28.4727 27.434 27.4527 28.982 25.6827 30.0597C23.8752 31.16 21.2967 31.751 18.3477 31.751C15.3987 31.751 12.8202 31.16 11.0127 30.0597C9.24266 28.982 8.22266 27.4347 8.22266 25.376V24.8127Z" fill="black"/>
</svg>
