<svg width="32" height="32" viewBox="0 0 32 32" fill="none" xmlns="http://www.w3.org/2000/svg">
<path d="M0 30H32V32H0V30Z" fill="#D0D0D0"/>
<path d="M1 16H31V30H1V16Z" fill="#F3C07B"/>
<path d="M3 21H10V30H3V21Z" fill="#D6EEF0"/>
<path d="M1 13.5H31V16.5H1V13.5Z" fill="#BA8640"/>
<path d="M0 13.5C0 14.6 0.9 15.5 2 15.5C3.1 15.5 4 14.6 4 13.5H0Z" fill="#83BF4F"/>
<path d="M4 13.5C4 14.6 4.9 15.5 6 15.5C7.1 15.5 8 14.6 8 13.5H4Z" fill="#881300"/>
<path d="M8 13.5C8 14.6 8.9 15.5 10 15.5C11.1 15.5 12 14.6 12 13.5H8Z" fill="#83BF4F"/>
<path d="M8 7H12V14H8V7Z" fill="#C7E755"/>
<path d="M12 13.5C12 14.6 12.9 15.5 14 15.5C15.1 15.5 16 14.6 16 13.5H12Z" fill="#881300"/>
<path d="M12 7H16V14H12V7Z" fill="#FF5206"/>
<path d="M0 7H4V14H0V7Z" fill="#C7E755"/>
<path d="M4 7H8V14H4V7Z" fill="#FF5206"/>
<path d="M24 7H28V14H24V7Z" fill="#C7E755"/>
<path d="M28 7H32V14H28V7Z" fill="#FF5206"/>
<path d="M16 13.5C16 14.6 16.9 15.5 18 15.5C19.1 15.5 20 14.6 20 13.5H16Z" fill="#83BF4F"/>
<path d="M16 7H20V14H16V7Z" fill="#C7E755"/>
<path d="M20 13.5C20 14.6 20.9 15.5 22 15.5C23.1 15.5 24 14.6 24 13.5H20Z" fill="#881300"/>
<path d="M20 7H24V14H20V7Z" fill="#FF5206"/>
<path d="M24 13.5C24 14.6 24.9 15.5 26 15.5C27.1 15.5 28 14.6 28 13.5H24Z" fill="#83BF4F"/>
<path d="M28 13.5C28 14.6 28.9 15.5 30 15.5C31.1 15.5 32 14.6 32 13.5H28Z" fill="#881300"/>
<path d="M6.5 16.5C4 16.5 2 18.5 2 21H11C11 18.5 9 16.5 6.5 16.5Z" fill="white"/>
<path d="M3.15039 20H9.85039C9.40039 18.55 8.10039 17.5 6.50039 17.5C4.90039 17.5 3.60039 18.55 3.15039 20Z" fill="#F3C07B"/>
<path d="M3 21H4V30H3V21ZM9 21H10V30H9V21Z" fill="white"/>
<path d="M4 21H9V22H4V21Z" fill="#B4D7EE"/>
<path d="M13.5 16.5H28.5V26.5H13.5V16.5Z" fill="white"/>
<path d="M29.5 28C29.5 28.25 29.25 28.5 29 28.5H13C12.75 28.5 12.5 28.25 12.5 28V27C12.5 26.75 12.75 26.5 13 26.5H29C29.25 26.5 29.5 26.75 29.5 27V28Z" fill="#8C5543"/>
<path d="M14.5 17.5H27.5V25.5H14.5V17.5Z" fill="#D6EEF0"/>
<path d="M14.5 17.5H27.5V18.5H14.5V17.5Z" fill="#B4D7EE"/>
<path d="M8 23.5C7.7 23.5 7.5 23.8 7.5 24.15V25.15C7.5 25.5 7.7 26 7.9 26.2L8.1 26.4C8.3 26.6 8.5 26.5 8.5 26.15V24.2C8.5 23.8 8.25 23.5 8 23.5Z" fill="#62727A"/>
</svg>
