<svg width="37" height="37" viewBox="0 0 37 37" fill="none" xmlns="http://www.w3.org/2000/svg">
<path d="M24.8477 12.626C24.8477 14.2173 24.2155 15.7434 23.0903 16.8686C21.9651 17.9938 20.439 18.626 18.8477 18.626C17.2564 18.626 15.7302 17.9938 14.605 16.8686C13.4798 15.7434 12.8477 14.2173 12.8477 12.626M24.8477 12.626H12.8477M24.8477 12.626C24.8477 11.0347 24.2155 9.50855 23.0903 8.38334C21.9651 7.25812 20.439 6.62598 18.8477 6.62598M12.8477 12.626C12.8477 11.0347 13.4798 9.50855 14.605 8.38334C15.7302 7.25812 17.2564 6.62598 18.8477 6.62598M18.8477 6.62598V3.62598M9.84766 12.626H27.8477M14.3477 26.126V29.126M23.3477 26.126V29.126M18.8477 20.876C11.8059 20.876 6.09766 26.2482 6.09766 32.876H31.5977C31.5977 26.2482 25.8894 20.876 18.8477 20.876Z" stroke="black" stroke-width="1.6" stroke-linecap="round" stroke-linejoin="round"/>
</svg>
