<svg width="54" height="30" viewBox="0 0 54 30" fill="none" xmlns="http://www.w3.org/2000/svg">
<g clip-path="url(#clip0_3729_1395)">
<path d="M39.353 0H14.647C6.55769 0 0 6.71522 0 14.9989V15.0011C0 23.2848 6.55769 30 14.647 30H39.353C47.4423 30 54 23.2848 54 15.0011V14.9989C54 6.71522 47.4423 0 39.353 0Z" fill="#00AB5A"/>
<path d="M39.8134 26.7003C46.1242 26.7003 51.2401 21.4615 51.2401 14.9991C51.2401 8.53666 46.1242 3.29785 39.8134 3.29785C33.5026 3.29785 28.3867 8.53666 28.3867 14.9991C28.3867 21.4615 33.5026 26.7003 39.8134 26.7003Z" fill="white"/>
</g>
<defs>
<clipPath id="clip0_3729_1395">
<rect width="54" height="30" fill="white"/>
</clipPath>
</defs>
</svg>
