<svg width="35" height="41" viewBox="0 0 35 41" fill="none" xmlns="http://www.w3.org/2000/svg">
<g clip-path="url(#clip0_3729_1562)">
<path d="M1.10742 36.9111H33.8931M9.21514 16.9799L17.5003 10.4742L25.7854 16.9799M3.44999 22.4391V36.9111M31.5506 22.4391V36.9034M1.10742 22.4391H33.8931M17.5003 10.4716V4.08936H20.7146M10.4751 22.4468H24.5254V36.9111H10.4751V22.4416V22.4468ZM7.61571 16.9825H27.3848V22.4365H7.61571V16.9825Z" stroke="black" stroke-width="1.6" stroke-linecap="round" stroke-linejoin="round"/>
<path d="M14.9629 31.1639C14.9629 30.8496 15.0248 30.5384 15.1452 30.2481C15.2655 29.9578 15.4419 29.6941 15.6642 29.472C15.8866 29.2499 16.1505 29.0738 16.4409 28.9538C16.7314 28.8337 17.0426 28.7721 17.3569 28.7725C17.6712 28.7721 17.9824 28.8337 18.2728 28.9538C18.5633 29.0738 18.8272 29.2499 19.0495 29.472C19.2719 29.6941 19.4483 29.9578 19.5686 30.2481C19.6889 30.5384 19.7509 30.8496 19.7509 31.1639V36.911H14.9629V31.1639Z" stroke="black" stroke-width="1.6" stroke-linecap="round" stroke-linejoin="round"/>
</g>
<defs>
<clipPath id="clip0_3729_1562">
<rect width="34.7857" height="40.8217" fill="white" transform="translate(0.107422 0.0893555)"/>
</clipPath>
</defs>
</svg>
