<svg width="32" height="32" viewBox="0 0 32 32" fill="none" xmlns="http://www.w3.org/2000/svg">
<path fill-rule="evenodd" clip-rule="evenodd" d="M10 8.83416V3.52316C9.99815 3.38329 9.94109 3.24982 9.84125 3.15185C9.7414 3.05388 9.60688 2.99936 9.467 3.00016H6.543C6.4729 2.99843 6.40315 3.01064 6.3378 3.03606C6.27245 3.06148 6.21279 3.09962 6.16229 3.14827C6.11178 3.19691 6.07143 3.2551 6.04357 3.31945C6.01571 3.3838 6.0009 3.45304 6 3.52316V12.1692L5 13.0022V29.0022H27V14.0022L16.07 3.77216L10 8.83416Z" fill="#F3C07B"/>
<path d="M15.92 27.0032H8.08C8.04 27.0032 8 26.9632 8 26.9232V16.3932C8 15.6432 8.61 15.0332 9.36 15.0332H14.65C15.4 15.0332 16.01 15.6432 16.01 16.3932V26.9232C16 26.9632 15.96 27.0032 15.92 27.0032Z" fill="#8C5543"/>
<path d="M14.5 21.002C14.6326 21.002 14.7598 20.9493 14.8536 20.8555C14.9473 20.7617 15 20.6346 15 20.502C15 20.3693 14.9473 20.2422 14.8536 20.1484C14.7598 20.0546 14.6326 20.002 14.5 20.002C14.3674 20.002 14.2402 20.0546 14.1464 20.1484C14.0527 20.2422 14 20.3693 14 20.502C14 20.6346 14.0527 20.7617 14.1464 20.8555C14.2402 20.9493 14.3674 21.002 14.5 21.002Z" fill="#402A32"/>
<path d="M15.96 28.002H8C7.45 28.002 7 27.552 7 27.002C7 26.452 7.45 26.002 8 26.002H15.96C16.51 26.002 16.96 26.452 16.96 27.002C16.96 27.552 16.51 28.002 15.96 28.002Z" fill="#D3D3D3"/>
<path d="M30 29.002H2V28.912C2 27.852 2.85 27.002 3.91 27.002H28.09C29.14 27.002 30 27.852 30 28.912V29.002Z" fill="#00CE6C"/>
<path d="M16.88 2.3525L29.64 14.9225C30.12 15.3925 30.12 16.1525 29.64 16.6125C29.17 17.0825 28.4 17.0825 27.92 16.6125L16.02 4.8925L4.08 16.6525C3.61 17.1225 2.84 17.1225 2.36 16.6525C1.88 16.1825 1.88 15.4225 2.36 14.9525L15.16 2.3525C15.63 1.8825 16.4 1.8825 16.88 2.3525Z" fill="#FF5206"/>
<path d="M23.14 21.002H18.86C18.38 21.002 18 20.622 18 20.142V15.862C18 15.392 18.38 15.002 18.86 15.002H23.14C23.61 15.002 24 15.382 24 15.862V20.142C24 20.622 23.62 21.002 23.14 21.002Z" fill="#83CBFF"/>
</svg>
