<svg width="16" height="16" viewBox="0 0 16 16" fill="none" xmlns="http://www.w3.org/2000/svg">
<path d="M15.6362 2.97043C15.3975 2.39432 15.0451 1.86489 14.5905 1.41034C13.6814 0.501239 12.4728 0 11.1876 0C9.90233 0 8.69372 0.501239 7.78462 1.41034C6.51258 2.68238 6.06067 4.56312 6.59891 6.26681L0.11628 12.7494C0.0422838 12.8234 0 12.9247 0 13.0296V15.6036C0 15.8229 0.177944 16 0.39641 16H2.97043C3.18978 16 3.36684 15.8229 3.36684 15.6036V14.2003H4.7719C4.99125 14.2003 5.16831 14.0232 5.16831 13.8039V12.3988H6.5716C6.79095 12.3988 6.96801 12.2218 6.96801 12.0024V10.5991H8.01806C8.12377 10.5991 8.22419 10.5577 8.29907 10.4828L9.47156 9.31036C11.2263 9.97721 13.2516 9.55349 14.5897 8.21538C15.4996 7.30716 16 6.09855 16 4.8133C16 4.17112 15.8749 3.54743 15.6362 2.97043ZM14.0294 7.65512C12.8825 8.80207 11.1312 9.14474 9.6407 8.5237C9.63982 8.5237 9.63894 8.52282 9.63894 8.52282C9.60634 8.50961 9.57375 8.49551 9.54115 8.48054C9.39052 8.41359 9.21434 8.44618 9.09806 8.56246L7.85421 9.80631H6.5716C6.35314 9.80631 6.17519 9.98337 6.17519 10.2027V11.606H4.77102C4.66619 11.606 4.56577 11.6474 4.49089 11.7223C4.41601 11.7972 4.37461 11.8976 4.37461 12.0024V13.4075H2.97043C2.75197 13.4075 2.57402 13.5845 2.57402 13.8039V15.2072H0.792821V13.1934L7.33535 6.65176C7.44547 6.54165 7.4807 6.3778 7.42609 6.23157C6.87023 4.75692 7.2314 3.08495 8.34576 1.9706C9.10422 1.21125 10.1137 0.792821 11.1876 0.792821C11.7241 0.792821 12.2447 0.897649 12.7265 1.09674C13.2075 1.2967 13.6497 1.59093 14.0294 1.9706C14.7887 2.72995 15.2072 3.73947 15.2072 4.8133C15.2072 5.88713 14.7887 6.89578 14.0294 7.65512Z" fill="#00CE6C"/>
<path d="M9.63854 8.52336C9.60594 8.51015 9.57335 8.49606 9.54075 8.48108C9.39012 8.41413 9.21394 8.44673 9.09766 8.56301L9.10911 8.55155C9.25358 8.40708 9.48261 8.39739 9.63854 8.52336Z" fill="#00CE6C"/>
</svg>
