<svg width="49" height="38" viewBox="0 0 49 38" fill="none" xmlns="http://www.w3.org/2000/svg">
<path d="M1.26248 20.5332V25.4253H25.0918V20.5332H1.26248ZM5.99678 26.8456V28.2659H7.41707V26.8456H5.99678ZM18.9372 26.8456V28.2659H20.3575V26.8456H18.9372ZM0 29.6862V32.0533H26.3543V29.6862H0ZM2.52496 33.4736V37.1033H4.89211V33.4736H2.52496ZM21.4622 33.4736V37.1033H23.8293V33.4736H21.4622Z" fill="#8C5543"/>
<path d="M48.998 13.878C49.0134 12.9416 48.7583 12.0206 48.263 11.2251C47.7677 10.4296 47.0533 9.79322 46.2052 9.392C46.1345 8.51996 45.7349 7.70713 45.087 7.11759C44.439 6.52805 43.591 6.2057 42.7142 6.2156C42.4383 6.23775 42.1663 6.2939 41.9042 6.38278C41.8472 5.7644 41.6187 5.17407 41.2444 4.67796C40.87 4.18184 40.3645 3.79955 39.7846 3.57391C39.2047 3.34828 38.5733 3.28822 37.9611 3.40047C37.3489 3.51273 36.7802 3.79285 36.3186 4.20945C36.3186 3.28573 35.9508 2.39985 35.2961 1.74668C34.6414 1.09351 33.7534 0.726562 32.8275 0.726562C31.9017 0.726562 31.0137 1.09351 30.359 1.74668C29.7043 2.39985 29.3365 3.28573 29.3365 4.20945C29.3365 4.20945 29.4482 4.26518 29.4482 4.34877C28.9872 3.95424 28.4288 3.68984 27.8309 3.58297C27.233 3.4761 26.6173 3.53063 26.0476 3.74092C25.4779 3.9512 24.975 4.30961 24.5908 4.779C24.2066 5.2484 23.9552 5.81172 23.8626 6.41064C23.4204 6.27047 22.9579 6.20456 22.4941 6.2156C21.8032 6.20984 21.1217 6.37462 20.5101 6.69528C19.8985 7.01594 19.376 7.48252 18.9889 8.05346C18.6019 8.62441 18.3624 9.28199 18.2917 9.96764C18.2211 10.6533 18.3215 11.3457 18.5841 11.9833C17.7092 12.2272 16.9384 12.7501 16.3893 13.472C15.8402 14.194 15.543 15.0754 15.543 15.9816C15.543 16.8879 15.8402 17.7693 16.3893 18.4912C16.9384 19.2132 17.7092 19.736 18.5841 19.98C18.8723 20.8687 19.4525 21.6344 20.2308 22.1535C21.0092 22.6726 21.9402 22.9146 22.8735 22.8405C23.8068 22.7664 24.6877 22.3805 25.374 21.7452C26.0603 21.1098 26.5117 20.2621 26.6554 19.3391C27.1665 19.7849 27.8004 20.0636 28.4707 20.1472V34.0787L23.8626 36.865H37.8267L33.3582 34.0787V28.5061C35.4195 26.022 38.0823 24.1039 41.0943 22.9335C41.7118 23.078 42.3541 23.0798 42.9724 22.9387C43.5906 22.7977 44.1683 22.5175 44.6615 22.1196C45.1546 21.7218 45.55 21.2167 45.8176 20.6431C46.0851 20.0694 46.2177 19.4423 46.2052 18.8097C46.2112 18.6612 46.2112 18.5125 46.2052 18.3639C47.0533 17.9627 47.7677 17.3263 48.263 16.5308C48.7583 15.7353 49.0134 14.8143 48.998 13.878ZM33.3582 26.4442V16.8593C34.1122 18.1967 35.531 19.0299 37.0726 19.0326H37.8546C37.8993 20.2586 38.4802 21.3982 39.4465 22.1533C37.17 23.1982 35.1061 24.6528 33.3582 26.4442Z" fill="#C7E755"/>
<path d="M28.4844 20.1378C31.2046 20.0945 32.25 19.3376 33.3765 16.8633V36.8657H28.4844C28.4844 35.8724 28.4844 34.9454 28.4844 34.0646C28.4844 29.1528 28.4844 25.6771 28.4844 20.1378Z" fill="#C16108"/>
<path d="M28.4847 33.8672L23.9082 36.8656H28.4847V33.8672Z" fill="#C16108"/>
<path d="M33.3766 33.8672L37.9531 36.8656H33.3766V33.8672Z" fill="#C16108"/>
<path d="M39.4136 22.1504C37.4414 22.6136 34.0922 25.5402 32.6394 26.9653C32.1552 27.5294 31.4508 28.8001 32.5074 29.3702C34.7261 26.3418 39.2721 23.833 41.2678 22.9571C40.7396 22.9571 40.0053 22.7422 39.4136 22.1504Z" fill="#C16108"/>
</svg>
