<svg width="27" height="26" viewBox="0 0 27 26" fill="none" xmlns="http://www.w3.org/2000/svg">
<path d="M9.4375 21.125V24.375M4.5625 1.625H14.3125C14.7435 1.625 15.1568 1.7962 15.4615 2.10095C15.7663 2.4057 15.9375 2.81902 15.9375 3.25V24.1719C15.9375 24.2257 15.9161 24.2774 15.878 24.3155C15.8399 24.3536 15.7882 24.375 15.7344 24.375H2.9375V3.25C2.9375 2.81902 3.1087 2.4057 3.41345 2.10095C3.7182 1.7962 4.13152 1.625 4.5625 1.625ZM16.75 9.75H22.4375C22.8685 9.75 23.2818 9.9212 23.5865 10.226C23.8913 10.5307 24.0625 10.944 24.0625 11.375V24.375H15.9375V10.5625C15.9375 10.347 16.0231 10.1403 16.1755 9.98798C16.3278 9.8356 16.5345 9.75 16.75 9.75Z" stroke="black" stroke-width="1.2" stroke-linecap="round" stroke-linejoin="round"/>
<path d="M5.48037 21.9306C5.31209 21.9526 5.14115 21.9214 4.99153 21.8413C4.84192 21.7612 4.72113 21.6363 4.64614 21.4841C4.57114 21.3318 4.5457 21.1599 4.57338 20.9925C4.60106 20.825 4.68048 20.6705 4.80048 20.5505C4.92048 20.4305 5.07504 20.3511 5.24248 20.3234C5.40991 20.2957 5.58181 20.3211 5.73405 20.3961C5.88629 20.4711 6.01122 20.5919 6.09132 20.7415C6.17141 20.8911 6.20265 21.0621 6.18064 21.2304C6.15741 21.4079 6.07617 21.5729 5.94953 21.6995C5.82288 21.8262 5.65795 21.9074 5.48037 21.9306ZM5.48037 17.8681C5.31209 17.8901 5.14115 17.8589 4.99153 17.7788C4.84192 17.6987 4.72113 17.5738 4.64614 17.4215C4.57114 17.2693 4.5457 17.0974 4.57338 16.93C4.60106 16.7625 4.68048 16.608 4.80048 16.488C4.92048 16.368 5.07504 16.2886 5.24248 16.2609C5.40991 16.2332 5.58181 16.2586 5.73405 16.3336C5.88629 16.4086 6.01122 16.5294 6.09132 16.679C6.17141 16.8286 6.20265 16.9996 6.18064 17.1679C6.15741 17.3454 6.07617 17.5104 5.94953 17.637C5.82288 17.7637 5.65795 17.8449 5.48037 17.8681ZM5.48037 13.8056C5.31209 13.8276 5.14115 13.7964 4.99153 13.7163C4.84192 13.6362 4.72113 13.5113 4.64614 13.359C4.57114 13.2068 4.5457 13.0349 4.57338 12.8675C4.60106 12.7 4.68048 12.5455 4.80048 12.4255C4.92048 12.3055 5.07504 12.2261 5.24248 12.1984C5.40991 12.1707 5.58181 12.1961 5.73405 12.2711C5.88629 12.3461 6.01122 12.4669 6.09132 12.6165C6.17141 12.7661 6.20265 12.9371 6.18064 13.1054C6.15741 13.2829 6.07617 13.4479 5.94953 13.5745C5.82288 13.7012 5.65795 13.7824 5.48037 13.8056ZM5.48037 9.74314C5.31209 9.76515 5.14115 9.73391 4.99153 9.65382C4.84192 9.57372 4.72113 9.44879 4.64614 9.29655C4.57114 9.14431 4.5457 8.97241 4.57338 8.80498C4.60106 8.63754 4.68048 8.48298 4.80048 8.36298C4.92048 8.24298 5.07504 8.16356 5.24248 8.13588C5.40991 8.1082 5.58181 8.13364 5.73405 8.20864C5.88629 8.28363 6.01122 8.40442 6.09132 8.55403C6.17141 8.70365 6.20265 8.87459 6.18064 9.04287C6.15741 9.22045 6.07617 9.38539 5.94953 9.51203C5.82288 9.63867 5.65795 9.71991 5.48037 9.74314ZM5.48037 5.68064C5.31209 5.70265 5.14115 5.67141 4.99153 5.59132C4.84192 5.51122 4.72113 5.38629 4.64614 5.23405C4.57114 5.08181 4.5457 4.90991 4.57338 4.74248C4.60106 4.57504 4.68048 4.42048 4.80048 4.30048C4.92048 4.18048 5.07504 4.10106 5.24248 4.07338C5.40991 4.0457 5.58181 4.07114 5.73405 4.14614C5.88629 4.22113 6.01122 4.34192 6.09132 4.49153C6.17141 4.64115 6.20265 4.81209 6.18064 4.98037C6.15741 5.15795 6.07617 5.32288 5.94953 5.44953C5.82288 5.57617 5.65795 5.65741 5.48037 5.68064ZM9.54287 17.8681C9.37459 17.8901 9.20365 17.8589 9.05403 17.7788C8.90442 17.6987 8.78363 17.5738 8.70864 17.4215C8.63364 17.2693 8.6082 17.0974 8.63588 16.93C8.66356 16.7625 8.74298 16.608 8.86298 16.488C8.98298 16.368 9.13754 16.2886 9.30498 16.2609C9.47241 16.2332 9.64431 16.2586 9.79655 16.3336C9.94879 16.4086 10.0737 16.5294 10.1538 16.679C10.2339 16.8286 10.2651 16.9996 10.2431 17.1679C10.2199 17.3454 10.1387 17.5104 10.012 17.637C9.88538 17.7637 9.72045 17.8449 9.54287 17.8681ZM9.54287 13.8056C9.37459 13.8276 9.20365 13.7964 9.05403 13.7163C8.90442 13.6362 8.78363 13.5113 8.70864 13.359C8.63364 13.2068 8.6082 13.0349 8.63588 12.8675C8.66356 12.7 8.74298 12.5455 8.86298 12.4255C8.98298 12.3055 9.13754 12.2261 9.30498 12.1984C9.47241 12.1707 9.64431 12.1961 9.79655 12.2711C9.94879 12.3461 10.0737 12.4669 10.1538 12.6165C10.2339 12.7661 10.2651 12.9371 10.2431 13.1054C10.2199 13.2829 10.1387 13.4479 10.012 13.5745C9.88538 13.7012 9.72045 13.7824 9.54287 13.8056ZM9.54287 9.74314C9.37459 9.76515 9.20365 9.73391 9.05403 9.65382C8.90442 9.57372 8.78363 9.44879 8.70864 9.29655C8.63364 9.14431 8.6082 8.97241 8.63588 8.80498C8.66356 8.63754 8.74298 8.48298 8.86298 8.36298C8.98298 8.24298 9.13754 8.16356 9.30498 8.13588C9.47241 8.1082 9.64431 8.13364 9.79655 8.20864C9.94879 8.28363 10.0737 8.40442 10.1538 8.55403C10.2339 8.70365 10.2651 8.87459 10.2431 9.04287C10.2199 9.22045 10.1387 9.38539 10.012 9.51203C9.88538 9.63867 9.72045 9.71991 9.54287 9.74314ZM9.54287 5.68064C9.37459 5.70265 9.20365 5.67141 9.05403 5.59132C8.90442 5.51122 8.78363 5.38629 8.70864 5.23405C8.63364 5.08181 8.6082 4.90991 8.63588 4.74248C8.66356 4.57504 8.74298 4.42048 8.86298 4.30048C8.98298 4.18048 9.13754 4.10106 9.30498 4.07338C9.47241 4.0457 9.64431 4.07114 9.79655 4.14614C9.94879 4.22113 10.0737 4.34192 10.1538 4.49153C10.2339 4.64115 10.2651 4.81209 10.2431 4.98037C10.2199 5.15795 10.1387 5.32288 10.012 5.44953C9.88538 5.57617 9.72045 5.65741 9.54287 5.68064ZM13.6054 21.9306C13.4371 21.9526 13.2661 21.9214 13.1165 21.8413C12.9669 21.7612 12.8461 21.6363 12.7711 21.4841C12.6961 21.3318 12.6707 21.1599 12.6984 20.9925C12.7261 20.825 12.8055 20.6705 12.9255 20.5505C13.0455 20.4305 13.2 20.3511 13.3675 20.3234C13.5349 20.2957 13.7068 20.3211 13.859 20.3961C14.0113 20.4711 14.1362 20.5919 14.2163 20.7415C14.2964 20.8911 14.3276 21.0621 14.3056 21.2304C14.2824 21.4079 14.2012 21.5729 14.0745 21.6995C13.9479 21.8262 13.7829 21.9074 13.6054 21.9306ZM13.6054 17.8681C13.4371 17.8901 13.2661 17.8589 13.1165 17.7788C12.9669 17.6987 12.8461 17.5738 12.7711 17.4215C12.6961 17.2693 12.6707 17.0974 12.6984 16.93C12.7261 16.7625 12.8055 16.608 12.9255 16.488C13.0455 16.368 13.2 16.2886 13.3675 16.2609C13.5349 16.2332 13.7068 16.2586 13.859 16.3336C14.0113 16.4086 14.1362 16.5294 14.2163 16.679C14.2964 16.8286 14.3276 16.9996 14.3056 17.1679C14.2824 17.3454 14.2012 17.5104 14.0745 17.637C13.9479 17.7637 13.7829 17.8449 13.6054 17.8681ZM13.6054 13.8056C13.4371 13.8276 13.2661 13.7964 13.1165 13.7163C12.9669 13.6362 12.8461 13.5113 12.7711 13.359C12.6961 13.2068 12.6707 13.0349 12.6984 12.8675C12.7261 12.7 12.8055 12.5455 12.9255 12.4255C13.0455 12.3055 13.2 12.2261 13.3675 12.1984C13.5349 12.1707 13.7068 12.1961 13.859 12.2711C14.0113 12.3461 14.1362 12.4669 14.2163 12.6165C14.2964 12.7661 14.3276 12.9371 14.3056 13.1054C14.2824 13.2829 14.2012 13.4479 14.0745 13.5745C13.9479 13.7012 13.7829 13.7824 13.6054 13.8056Z" fill="black"/>
<path d="M14.0755 9.51304C14.3918 9.19674 14.3905 8.68261 14.0726 8.36471C13.7547 8.04682 13.2406 8.04553 12.9243 8.36184C12.608 8.67815 12.6093 9.19228 12.9272 9.51017C13.2451 9.82807 13.7592 9.82935 14.0755 9.51304Z" fill="black"/>
<path d="M13.6054 5.68064C13.4371 5.70265 13.2661 5.67141 13.1165 5.59132C12.9669 5.51122 12.8461 5.38629 12.7711 5.23405C12.6961 5.08181 12.6707 4.90991 12.6984 4.74248C12.7261 4.57504 12.8055 4.42048 12.9255 4.30048C13.0455 4.18048 13.2 4.10106 13.3675 4.07338C13.5349 4.0457 13.7068 4.07114 13.8591 4.14614C14.0113 4.22113 14.1362 4.34192 14.2163 4.49153C14.2964 4.64115 14.3276 4.81209 14.3056 4.98037C14.2824 5.15795 14.2012 5.32288 14.0745 5.44953C13.9479 5.57617 13.7829 5.65741 13.6054 5.68064ZM20.8122 20.3122C20.6515 20.3122 20.4945 20.3599 20.3608 20.4492C20.2272 20.5385 20.1231 20.6653 20.0616 20.8138C20.0001 20.9623 19.984 21.1256 20.0154 21.2833C20.0467 21.4409 20.1241 21.5856 20.2377 21.6993C20.3513 21.8129 20.4961 21.8903 20.6537 21.9216C20.8113 21.953 20.9747 21.9369 21.1232 21.8754C21.2716 21.8139 21.3985 21.7098 21.4878 21.5761C21.5771 21.4425 21.6247 21.2854 21.6247 21.1247C21.6247 20.9093 21.5391 20.7026 21.3868 20.5502C21.2344 20.3978 21.0277 20.3122 20.8122 20.3122ZM20.8122 16.2497C20.6515 16.2497 20.4945 16.2974 20.3608 16.3867C20.2272 16.476 20.1231 16.6028 20.0616 16.7513C20.0001 16.8998 19.984 17.0631 20.0154 17.2208C20.0467 17.3784 20.1241 17.5231 20.2377 17.6368C20.3513 17.7504 20.4961 17.8278 20.6537 17.8591C20.8113 17.8905 20.9747 17.8744 21.1232 17.8129C21.2716 17.7514 21.3985 17.6473 21.4878 17.5136C21.5771 17.38 21.6247 17.2229 21.6247 17.0622C21.6247 16.8468 21.5391 16.6401 21.3868 16.4877C21.2344 16.3353 21.0277 16.2497 20.8122 16.2497ZM20.8122 12.1872C20.6515 12.1872 20.4945 12.2349 20.3608 12.3242C20.2272 12.4135 20.1231 12.5403 20.0616 12.6888C20.0001 12.8373 19.984 13.0006 20.0154 13.1583C20.0467 13.3159 20.1241 13.4606 20.2377 13.5743C20.3513 13.6879 20.4961 13.7653 20.6537 13.7966C20.8113 13.828 20.9747 13.8119 21.1232 13.7504C21.2716 13.6889 21.3985 13.5848 21.4878 13.4511C21.5771 13.3175 21.6247 13.1604 21.6247 12.9997C21.6247 12.7843 21.5391 12.5776 21.3868 12.4252C21.2344 12.2728 21.0277 12.1872 20.8122 12.1872ZM17.5622 20.3122C17.4015 20.3122 17.2445 20.3599 17.1108 20.4492C16.9772 20.5385 16.8731 20.6653 16.8116 20.8138C16.7501 20.9623 16.734 21.1256 16.7654 21.2833C16.7967 21.4409 16.8741 21.5856 16.9877 21.6993C17.1013 21.8129 17.2461 21.8903 17.4037 21.9216C17.5613 21.953 17.7247 21.9369 17.8732 21.8754C18.0216 21.8139 18.1485 21.7098 18.2378 21.5761C18.3271 21.4425 18.3747 21.2854 18.3747 21.1247C18.3747 20.9093 18.2891 20.7026 18.1368 20.5502C17.9844 20.3978 17.7777 20.3122 17.5622 20.3122ZM17.5622 16.2497C17.4015 16.2497 17.2445 16.2974 17.1108 16.3867C16.9772 16.476 16.8731 16.6028 16.8116 16.7513C16.7501 16.8998 16.734 17.0631 16.7654 17.2208C16.7967 17.3784 16.8741 17.5231 16.9877 17.6368C17.1013 17.7504 17.2461 17.8278 17.4037 17.8591C17.5613 17.8905 17.7247 17.8744 17.8732 17.8129C18.0216 17.7514 18.1485 17.6473 18.2378 17.5136C18.3271 17.38 18.3747 17.2229 18.3747 17.0622C18.3747 16.8468 18.2891 16.6401 18.1368 16.4877C17.9844 16.3353 17.7777 16.2497 17.5622 16.2497ZM17.5622 12.1872C17.4015 12.1872 17.2445 12.2349 17.1108 12.3242C16.9772 12.4135 16.8731 12.5403 16.8116 12.6888C16.7501 12.8373 16.734 13.0006 16.7654 13.1583C16.7967 13.3159 16.8741 13.4606 16.9877 13.5743C17.1013 13.6879 17.2461 13.7653 17.4037 13.7966C17.5613 13.828 17.7247 13.8119 17.8732 13.7504C18.0216 13.6889 18.1485 13.5848 18.2378 13.4511C18.3271 13.3175 18.3747 13.1604 18.3747 12.9997C18.3747 12.7843 18.2891 12.5776 18.1368 12.4252C17.9844 12.2728 17.7777 12.1872 17.5622 12.1872Z" fill="black"/>
</svg>
