<svg width="908" height="313" viewBox="0 0 908 313" fill="none" xmlns="http://www.w3.org/2000/svg">
<g clip-path="url(#clip0_3734_585)">
<path d="M165.93 203.71C163.35 199.31 160.82 195.01 158.29 190.72C156.11 187.014 153.093 185.987 149.24 187.64C145.51 189.25 141.78 190.87 138.04 192.47C137.19 192.84 136.39 193.5 135.11 192.93C135.64 187.12 136.16 181.2 136.71 175.29C137.01 172.08 137.03 172.04 133.85 171.32C128.7 170.14 123.53 169.02 118.37 167.88C117.72 167.74 117 167.77 116.31 166.71C118.13 164.63 120.05 162.43 121.99 160.25C124.15 157.81 126.22 155.29 128.5 152.96C129.92 151.51 130.04 150.51 128.59 148.95C124.89 144.97 121.38 140.83 117.81 136.74C117.28 136.14 116.81 135.49 116.05 134.52C121.09 133.39 125.84 132.37 130.57 131.23C132.66 130.73 135.3 131.07 136.67 129.44C137.99 127.87 136.56 125.55 136.52 123.54C136.43 118.57 135.28 113.66 135.52 108.24C140.51 110.4 145.2 112.42 149.89 114.46C150.64 114.78 151.37 115.14 152.12 115.46C155.13 116.75 155.16 116.76 156.79 114.05C159.86 108.94 162.89 103.81 165.91 98.7305C167.4 98.9805 167.6 100.2 168.12 101.06C170.85 105.59 173.58 110.13 176.15 114.75C177.08 116.42 177.9 116.68 179.67 115.88C185.33 113.31 191.08 110.95 197.34 108.27C197.04 111.99 196.8 115.27 196.51 118.54C196.25 121.51 196.03 124.5 195.6 127.45C195.32 129.33 195.88 130.1 197.77 130.5C203.87 131.77 209.93 133.23 216.21 134.66C215.35 136.74 213.72 138.01 212.43 139.5C209.59 142.79 206.74 146.07 203.76 149.23C202.47 150.6 202.41 151.5 203.74 152.93C207.07 156.5 210.24 160.23 213.44 163.92C214.31 164.93 215.43 165.78 216.07 167.53C212.01 168.46 208.02 169.38 204.02 170.29C201.91 170.77 199.81 171.41 197.67 171.66C195.41 171.93 195.25 173.06 195.47 174.99C196.15 181.04 196.64 187.11 197.19 193.13C195.79 193.75 194.94 192.89 194.01 192.49C189.77 190.68 185.58 188.77 181.33 186.99C176.75 185.07 177.63 184.69 174.92 189.19C172.19 193.72 169.49 198.27 166.77 202.81C166.63 203.04 166.41 203.21 165.94 203.71H165.93Z" fill="white"/>
<path d="M788.42 155.32C788.87 155.68 789.15 156 789.51 156.17C793.98 158.27 795.57 162.13 795.99 166.71C796.24 169.41 796.49 172.12 796.66 174.83C796.96 179.41 797.03 184.04 800.55 188.11C799.34 188.23 798.84 188.32 798.34 188.32C789.37 188.32 780.41 188.35 771.44 188.32C768.16 188.31 768.05 188.23 767.7 184.91C767.38 181.94 767.25 178.95 767.01 175.98C766.46 169.44 764.68 167.81 758.01 167.79C752.44 167.77 746.87 167.85 741.3 167.75C739.34 167.71 738.7 168.37 738.74 170.32C738.85 175.34 738.81 180.37 738.76 185.39C738.73 188.26 738.68 188.32 735.81 188.33C727.93 188.36 720.05 188.36 712.17 188.33C709.36 188.32 709.28 188.26 709.28 185.33C709.26 164.96 709.26 144.59 709.28 124.23C709.28 121.46 709.35 121.4 712.3 121.4C733.36 121.4 754.41 121.44 775.47 121.48C779.29 121.48 783.06 121.87 786.71 123.07C796.57 126.31 801.67 137.79 797.44 147.25C796.24 149.93 794.41 152.06 791.83 153.51C790.78 154.1 789.7 154.65 788.43 155.34L788.42 155.32ZM750.8 150.82C753.52 150.82 756.23 150.82 758.95 150.82C760.31 150.82 761.65 150.79 762.99 150.41C766.29 149.48 767.74 147.55 767.58 144.18C767.42 140.8 765.62 138.72 761.86 138.57C754.81 138.3 747.75 138.41 740.69 138.33C739.3 138.31 738.74 138.88 738.76 140.26C738.81 142.97 738.86 145.69 738.73 148.4C738.63 150.48 739.61 150.91 741.43 150.85C744.55 150.75 747.67 150.82 750.8 150.82Z" fill="white"/>
<path d="M856.36 119.2C864.8 118.95 873.2 119.36 881.42 121.52C884.31 122.28 887.11 123.29 889.81 124.6C900.61 129.85 905.95 138.76 906.88 150.44C907.23 154.89 907.2 159.38 906.27 163.82C904.34 173.01 899.42 179.92 891.11 184.39C885.9 187.19 880.3 188.81 874.48 189.53C860.25 191.3 846.04 191.44 831.93 188.35C828.88 187.68 825.95 186.6 823.12 185.26C812.78 180.35 807.25 172.08 805.86 160.85C805.19 155.41 805.38 150.02 806.61 144.67C808.69 135.62 813.96 129.08 822.17 124.88C829.83 120.96 838.14 119.74 846.59 119.22C849.84 119.02 853.11 119.19 856.37 119.19L856.36 119.2ZM855.5 136.01C854.76 136.05 853.12 136.06 851.51 136.26C843.75 137.21 838.81 141.61 837.29 149.19C836.43 153.47 836.5 157.81 837.67 162.08C839.16 167.5 842.63 171.04 847.97 172.62C853.42 174.23 858.97 174.24 864.43 172.68C870.29 171.01 873.83 167.01 875.18 161.09C876.13 156.93 876.13 152.75 875.18 148.59C873.82 142.69 870.31 138.77 864.43 137C861.79 136.21 859.11 136.05 855.51 136.03L855.5 136.01Z" fill="white"/>
<path d="M548.5 152.07C548.5 157.19 548.5 162.31 548.5 167.42C548.5 173.39 548.52 179.37 548.49 185.34C548.47 188.25 548.42 188.3 545.61 188.31C538.14 188.34 530.67 188.25 523.2 188.36C521.1 188.39 520.36 187.78 520.4 185.63C520.52 179.66 520.44 173.69 520.44 167.71C520.44 153.32 520.44 138.93 520.44 124.54C520.44 121.45 520.49 121.4 523.52 121.39C532.76 121.37 541.99 121.46 551.22 121.33C553.42 121.3 554.66 122.18 555.93 123.79C564.28 134.32 572.72 144.77 581.14 155.25C581.81 156.08 582.52 156.89 583.2 157.7C584.56 157.06 583.97 155.99 583.98 155.18C584.02 145.14 584.01 135.09 584.01 125.04C584.01 120.99 583.82 121.39 587.82 121.38C594.88 121.37 601.94 121.36 609.01 121.38C611.96 121.39 612.04 121.44 612.04 124.17C612.06 144.67 612.02 165.16 612.09 185.66C612.09 187.87 611.27 188.36 609.24 188.34C600.28 188.25 591.31 188.23 582.35 188.35C580.28 188.38 579.17 187.42 577.99 185.99C569.33 175.53 560.62 165.12 551.92 154.7C551.06 153.68 550.16 152.69 549.28 151.69C549.01 151.81 548.75 151.92 548.48 152.04L548.5 152.07Z" fill="white"/>
<path d="M421.31 147.64C418.81 147.64 416.78 147.64 414.76 147.64C407.97 147.64 401.17 147.48 394.39 147.7C390.66 147.82 387.92 147.7 386.49 143.2C385.18 139.1 381.2 137.09 377 136.38C372.97 135.7 368.9 135.82 364.88 136.88C358.94 138.45 355.21 142.23 353.76 148.12C352.64 152.66 352.74 157.28 353.81 161.84C354.12 163.15 354.61 164.45 355.25 165.63C358.74 172.08 364.69 173.74 371.43 173.69C378.05 173.64 383.98 171.99 386.88 165.34C388.01 162.75 389.42 162.12 392.04 162.17C400.46 162.34 408.88 162.22 417.3 162.24C418.51 162.24 419.74 162.06 421.14 162.59C419.32 172.47 414.84 180.38 405.53 185C400.62 187.44 395.38 188.81 389.97 189.5C376.01 191.28 362.09 191.42 348.26 188.37C346.68 188.02 345.12 187.52 343.59 186.98C329.96 182.2 322.65 172.55 321.75 158.14C321.49 153.92 321.68 149.72 322.57 145.58C324.62 136.11 329.91 129.11 338.63 124.75C345.3 121.41 352.48 119.95 359.82 119.45C370.94 118.7 382.07 118.51 393.1 120.69C398.47 121.75 403.59 123.46 408.23 126.42C415.79 131.25 419.94 138.22 421.3 147.63L421.31 147.64Z" fill="white"/>
<path d="M470.83 188.33C459.01 188.33 447.19 188.33 435.37 188.33C431.74 188.33 431.7 188.3 431.7 184.91C431.69 164.81 431.69 144.72 431.7 124.62C431.7 121.47 431.75 121.41 434.75 121.41C459.07 121.39 483.39 121.39 507.7 121.41C510.71 121.41 510.74 121.47 510.76 124.61C510.79 128.14 510.68 131.67 510.8 135.2C510.86 137.11 510.26 137.86 508.26 137.8C503.78 137.68 499.29 137.76 494.81 137.76C484.62 137.76 474.43 137.75 464.24 137.76C461.14 137.76 461.07 137.82 461.09 140.86C461.16 147.79 460.19 146.62 466.85 146.66C479.21 146.73 491.58 146.66 503.94 146.69C507.23 146.69 507.25 146.74 507.28 150.07C507.31 153.33 507.31 156.59 507.28 159.85C507.25 162.97 507.22 163.02 504.15 163.03C492.33 163.05 480.51 163.03 468.69 163.04C466.79 163.04 464.89 163.08 462.98 163.04C461.61 163.01 461.16 163.58 461.04 164.96C460.45 171.98 460.4 171.98 467.27 171.98C480.72 171.98 494.17 171.97 507.62 171.98C510.69 171.98 510.71 172.04 510.74 175.11C510.77 178.37 510.77 181.63 510.74 184.89C510.72 188.28 510.7 188.3 507.07 188.31C501.09 188.33 495.11 188.31 489.14 188.31C483.03 188.31 476.91 188.31 470.8 188.31L470.83 188.33Z" fill="white"/>
<path d="M660.96 121.4C673.72 121.4 686.49 121.4 699.25 121.4C702.48 121.4 702.5 121.44 702.52 124.76C702.54 128.29 702.56 131.82 702.52 135.35C702.49 138.25 702.45 138.31 699.62 138.33C693.1 138.37 686.59 138.34 680.07 138.34C679.12 138.34 678.17 138.37 677.22 138.35C676.07 138.32 675.42 138.77 675.46 140C675.49 140.95 675.46 141.9 675.46 142.85C675.46 156.83 675.46 170.81 675.46 184.79C675.46 188.29 675.42 188.31 671.9 188.32C664.57 188.34 657.24 188.32 649.9 188.32C645.78 188.32 646.06 188.65 646.06 184.26C646.06 170.69 646.09 157.12 646.05 143.55C646.03 137.8 646.93 138.37 640.88 138.34C634.63 138.31 628.39 138.36 622.14 138.33C618.95 138.31 618.91 138.27 618.88 135.27C618.84 131.47 618.96 127.67 618.84 123.87C618.78 121.86 619.57 121.34 621.46 121.36C630.42 121.44 639.38 121.39 648.34 121.39C652.55 121.39 656.76 121.39 660.97 121.39L660.96 121.4Z" fill="white"/>
<path d="M382.76 52.0904V56.0004C382.76 71.6104 382.76 87.2204 382.76 102.83C382.76 103.92 382.76 105 382.74 106.09C382.73 107.08 382.21 107.57 381.23 107.58C380.82 107.58 380.42 107.58 380.01 107.6C377.043 107.7 375.556 106.27 375.55 103.31C375.55 83.7604 375.55 64.2204 375.55 44.6704C375.55 43.4604 375.34 42.2304 375.84 40.9304C377.91 40.3404 380.09 40.7504 382.23 40.6304C384.12 40.5204 384.7 42.0904 385.57 43.2304C395.24 55.8304 404.88 68.4404 414.54 81.0504C418.39 86.0804 422.25 91.1104 426.37 96.4804C427.19 94.9704 426.92 93.7504 426.92 92.6304C426.94 76.4804 426.92 60.3204 426.96 44.1704C426.96 43.0504 426.27 41.3504 427.68 40.9104C429.58 40.3204 431.69 40.3404 433.67 40.9704C433.91 41.0504 434.08 41.6304 434.11 41.9904C434.18 42.9404 434.15 43.8904 434.15 44.8404C434.15 64.2504 434.15 83.6604 434.15 103.07C434.15 103.88 434.1 104.7 434.15 105.51C434.26 107.11 433.5 107.71 431.97 107.6C431.16 107.54 430.33 107.5 429.53 107.61C427.1 107.95 425.59 106.87 424.14 104.94C414.08 91.6204 403.9 78.3904 393.75 65.1304C390.37 60.7204 386.98 56.3104 383.6 51.9004C383.32 51.9604 383.04 52.0204 382.75 52.0804L382.76 52.0904Z" fill="white"/>
<path d="M515.12 74.1999C515.14 79.0099 514.36 83.6599 512.59 88.1399C507.93 99.9499 499.09 106.5 486.72 108.45C481.18 109.32 475.63 109.12 470.14 107.79C456.92 104.59 447.66 94.4999 445.56 80.9999C444.71 75.5699 444.79 70.1899 446.07 64.8399C449.67 49.8399 461.06 40.2399 476.45 39.2899C481.21 38.9999 485.95 39.1899 490.6 40.4199C504.29 44.0399 513.56 55.0799 514.84 69.3299C514.99 70.9499 515.02 72.5799 515.11 74.2099L515.12 74.1999ZM480.47 44.7599C466.42 44.6699 456.66 51.9599 453.27 65.1299C452.32 68.8299 451.9 72.5999 452.21 76.4199C453.27 89.4899 460.16 101.56 476.66 103.26C491.27 104.77 503.33 97.5599 506.9 82.7899C507.97 78.3899 508.16 73.9699 507.66 69.4699C506 54.3799 495.56 44.8599 480.46 44.7599H480.47Z" fill="white"/>
<path d="M583.86 74.0204C583.89 70.3304 584.32 66.7104 585.32 63.1504C589.22 49.3404 600.4 40.3304 615.01 39.3104C619.63 38.9904 624.26 39.0904 628.78 40.2304C640.15 43.1004 648.01 49.9804 651.86 61.1204C654.74 69.4504 654.83 77.9104 652.07 86.3104C647.96 98.8504 639.13 106.05 626.3 108.36C620.65 109.38 614.95 109.19 609.31 107.86C595.27 104.54 585.69 93.6704 584.2 79.3004C584.02 77.5504 583.97 75.7804 583.86 74.0204ZM619.27 44.7604C604.92 44.6704 595.16 52.2104 591.94 65.9704C591.45 68.0704 591.16 70.2504 591.08 72.4104C590.55 86.7304 597.4 101.45 615.56 103.29C628.09 104.56 640.34 99.6004 645.13 85.1104C646.55 80.8304 647.1 76.3904 646.83 71.8704C645.85 55.3704 635.17 44.8704 619.28 44.7704L619.27 44.7604Z" fill="white"/>
<path d="M581.24 40.8501C578.1 48.4401 575.16 55.5701 572.22 62.6901C566.54 76.4801 560.86 90.2801 555.17 104.07C553.71 107.6 553.7 107.6 549.95 107.61C549.68 107.61 549.41 107.61 549.13 107.61C544.81 107.58 545.62 107.87 544.14 104.32C540.23 94.9301 536.38 85.5201 532.5 76.1101C528.16 65.5801 523.82 55.0501 519.48 44.5101C519.03 43.4101 518.59 42.3101 518.17 41.2601C518.58 40.9901 518.79 40.7301 519.01 40.7201C523.323 40.5067 526.3 42.4367 527.94 46.5101C534.53 62.8601 541.1 79.2201 547.72 95.5601C548.26 96.8901 548.55 98.3701 549.62 99.5101C550.98 98.7101 551.07 97.2401 551.56 96.0401C558.34 79.1801 565.09 62.3101 571.84 45.4401C573.153 42.1534 575.55 40.5534 579.03 40.6401C579.55 40.6501 580.08 40.7401 581.24 40.8501Z" fill="white"/>
<path d="M617.11 234.42C618.83 233.31 619.17 231.92 619.8 230.77C623.88 223.26 627.99 215.77 631.9 208.17C633.04 205.95 634.39 204.8 636.91 205.16C637.71 205.27 638.54 205.24 639.35 205.16C641.21 204.99 642 205.6 641.98 207.65C641.89 218.1 641.86 228.55 641.98 239C642.01 241.6 640.54 241.39 638.85 241.43C637.05 241.48 635.73 241.4 635.78 238.92C635.91 231.86 635.83 224.81 635.82 217.75C635.82 216.45 635.82 215.15 635.82 213.8C634.14 213.86 634.03 214.99 633.63 215.75C629.58 223.43 625.52 231.1 621.56 238.83C620.68 240.55 619.72 241.48 617.57 241.5C615.3 241.52 614.21 240.67 613.22 238.74C609.57 231.62 605.76 224.58 601.97 217.53C601.37 216.41 601.02 215.03 599.12 214.09V241.12C598.14 241.26 597.61 241.38 597.09 241.39C593.1 241.5 593.08 241.49 593.08 237.5C593.07 227.73 593.06 217.96 593.08 208.18C593.08 205.25 593.14 205.25 595.93 205.15C596.07 205.15 596.2 205.17 596.34 205.15C599.99 204.57 602.17 205.89 603.88 209.41C607.97 217.82 612.58 225.97 617.07 234.4L617.11 234.42Z" fill="white"/>
<path d="M489.89 223.22C489.89 218.21 489.86 213.2 489.89 208.19C489.91 205.23 489.96 205.16 492.74 205.15C498.97 205.12 505.21 205 511.44 205.21C522.03 205.57 527.78 211.64 527.93 222.27C527.98 225.42 527.63 228.48 526.51 231.44C524.21 237.52 519.7 240.94 513.34 241.28C506.31 241.66 499.25 241.37 492.21 241.46C490.43 241.48 489.84 240.77 489.86 239.06C489.92 233.78 489.88 228.5 489.88 223.22H489.89ZM496.01 223.28C496.01 227.07 496.03 230.87 496 234.66C496 235.95 496.39 236.71 497.84 236.68C502.85 236.6 507.88 236.77 512.87 236.44C517.28 236.15 520.01 233.34 521.13 229.17C522.02 225.89 522.28 222.54 521.56 219.12C520.44 213.84 517.69 211.06 512.4 210.21C507.68 209.45 502.93 209.97 498.19 209.79C496.29 209.72 495.95 210.71 495.97 212.31C496.03 215.97 495.99 219.63 495.99 223.28H496.01Z" fill="white"/>
<path d="M814.27 242.22C810.63 242.42 806.87 241.89 803.32 240.39C796.25 237.4 792.46 231.96 792.11 224.34C791.75 216.42 794.89 210.17 802.25 206.83C810.17 203.23 818.42 203.26 826.36 206.83C833.41 210 836.6 216 836.53 223.55C836.46 230.92 833.18 236.58 826.37 239.89C822.62 241.71 818.64 242.36 814.28 242.23L814.27 242.22ZM814.34 237.55C815.84 237.42 817.35 237.41 818.81 237.15C826.35 235.78 830.64 230.49 830.49 222.87C830.35 215.63 825.75 210.6 818.28 209.47C815.57 209.06 812.88 209.06 810.18 209.49C802.81 210.66 798.12 215.83 797.95 222.99C797.77 230.31 802.41 235.84 809.89 237.17C811.35 237.43 812.86 237.44 814.34 237.56V237.55Z" fill="white"/>
<path d="M738.56 223.1C738.56 218.08 738.63 213.06 738.53 208.04C738.49 206.08 738.85 205.06 741.17 205.08C750.26 205.19 759.36 205.14 768.45 205.11C770.02 205.11 770.97 205.38 770.98 207.32C770.99 209.24 770.41 209.96 768.43 209.94C761.64 209.86 754.86 209.89 748.07 209.92C744.76 209.94 744.76 209.98 744.69 213.3C744.59 218.007 746.917 220.36 751.67 220.36C756.96 220.36 762.26 220.42 767.55 220.33C769.49 220.3 770.24 220.98 770.15 222.92C770.08 224.36 769.79 225.26 768.09 225.14C766.74 225.05 765.38 225.13 764.02 225.13C758.59 225.13 753.16 225.11 747.73 225.14C744.78 225.16 744.76 225.2 744.69 227.97C744.64 229.87 744.65 231.77 744.69 233.67C744.75 236.58 744.77 236.64 747.59 236.66C753.7 236.7 759.81 236.67 765.91 236.68C766.86 236.68 767.81 236.72 768.76 236.68C770.44 236.6 771.59 236.83 771.62 239.02C771.65 241.14 770.68 241.59 768.9 241.45C768.23 241.4 767.54 241.45 766.86 241.45C758.99 241.45 751.11 241.47 743.24 241.45C738.08 241.44 738.57 242.02 738.55 236.55C738.53 232.07 738.55 227.6 738.55 223.12L738.56 223.1Z" fill="white"/>
<path d="M534.73 223.04C534.73 218.02 534.8 213 534.69 207.98C534.65 205.95 535.15 205.06 537.39 205.08C546.48 205.18 555.58 205.14 564.67 205.11C566.3 205.11 567.13 205.49 567.14 207.38C567.16 209.37 566.44 209.96 564.53 209.94C557.74 209.86 550.96 209.89 544.17 209.92C540.91 209.94 540.91 209.99 540.85 213.35C540.756 218.024 543.103 220.36 547.89 220.36C553.18 220.36 558.48 220.42 563.77 220.33C565.76 220.3 566.31 221.1 566.33 222.98C566.35 224.95 565.34 225.16 563.79 225.15C557.27 225.12 550.76 225.12 544.24 225.15C540.91 225.16 540.83 225.2 540.87 228.45C540.9 231 539.79 234.22 541.34 235.94C543.1 237.9 546.45 236.58 549.1 236.65C554.53 236.79 559.96 236.73 565.39 236.67C567.14 236.65 567.76 237.34 567.77 239.08C567.78 240.83 567.19 241.48 565.42 241.46C559.04 241.39 552.66 241.44 546.28 241.44C543.43 241.44 540.58 241.47 537.73 241.44C534.82 241.4 534.76 241.36 534.74 238.52C534.69 233.36 534.73 228.21 534.73 223.05V223.04Z" fill="white"/>
<path d="M732.04 218.4C730.53 218.4 729.58 218.31 728.66 218.42C726.9 218.63 725.99 217.93 725.35 216.25C723.8 212.16 720.44 210.29 716.34 209.5C713.36 208.93 710.37 209.02 707.43 209.65C700.86 211.05 697.13 215.94 696.93 223.28C696.75 229.99 700.23 235.02 706.44 236.8C710.03 237.83 713.7 237.79 717.31 236.84C720.46 236.01 723.33 234.35 724.45 231.27C725.84 227.46 728.19 226.84 731.62 227.83C732.15 228.95 731.65 229.95 731.28 230.95C730.67 232.62 729.76 234.13 728.6 235.48C721.03 244.34 703.51 244.6 695.46 236.12C688.71 229.01 688.32 211.74 701.78 206.28C709.19 203.28 716.69 203.59 723.94 206.94C728.54 209.06 731.35 212.67 732.03 218.4H732.04Z" fill="white"/>
<path d="M688.25 241.17C687.75 241.28 687.48 241.38 687.22 241.39C681.99 241.59 682.05 241.56 679.66 236.82C675.96 229.45 678.42 231.03 670.15 230.85C667.16 230.78 664.16 231.01 661.19 230.79C658.41 230.59 656.52 231.27 655.66 234.16C655.24 235.57 654.19 236.79 653.76 238.2C652.95 240.87 651.33 241.92 648.61 241.44C647.84 241.3 647.01 241.54 646.34 241.08C646.08 240.1 646.65 239.43 647 238.72C652.14 228.4 657.3 218.09 662.48 207.8C663 206.76 663.24 205.31 664.79 205.25C666.67 205.18 668.59 204.9 670.44 205.46C671.13 205.67 671.33 206.44 671.63 207.04C677.14 218.08 682.66 229.12 688.16 240.17C688.27 240.39 688.21 240.69 688.25 241.17ZM659.72 225.88H674.51C671.98 220.64 669.63 215.76 666.98 210.28C664.41 215.81 662.15 220.65 659.71 225.88H659.72Z" fill="white"/>
<path d="M778.89 222.98C778.89 217.97 778.85 212.96 778.91 207.95C778.94 205.29 779.01 205.29 781.68 205.27C784.58 205.25 784.73 205.32 784.74 208.09C784.77 218.25 784.77 228.4 784.73 238.56C784.73 239.53 785.29 240.96 783.76 241.26C782.33 241.54 780.77 241.77 779.41 241.06C778.61 240.64 778.91 239.6 778.91 238.82C778.89 233.54 778.9 228.26 778.9 222.98H778.89Z" fill="white"/>
<path d="M823.94 195.77C819.71 198.33 818.13 203.52 812.62 202.23C815.26 195.64 816.15 195.07 823.94 195.77Z" fill="white"/>
<path d="M68.7705 31.0903L82.3605 18.7803L93.6805 36.6103L79.4705 49.7703L68.7705 31.0903Z" fill="white"/>
<path d="M83.6904 17.5099L94.9104 35.3399L102.63 28.4399L88.5304 11.6699L83.6904 17.5099Z" fill="white"/>
<path d="M89.7705 10.2905L104.181 27.2805L110.771 20.4805L93.1605 5.73047L89.7705 10.2905Z" fill="white"/>
<path d="M94.8105 4.78L111.381 19.53L117.041 14.01L98.6206 0L94.8105 4.78Z" fill="white"/>
<path d="M81.2207 51.2602L85.6507 57.9502L89.7607 52.0002L99.4407 47.1202L94.8107 38.7402L81.2207 51.2602Z" fill="white"/>
<path d="M86.4707 59.6398L90.7907 53.8098L100.261 48.3398L105.001 55.9298L93.1607 70.5698L86.4707 59.6398Z" fill="white"/>
<path d="M96.3506 37.2504L106.541 54.3404L115.911 42.9804L103.871 29.6104L96.3506 37.2504Z" fill="white"/>
<path d="M105.311 28.1202L112.001 21.9102L124.251 32.4802L117.041 41.2802L105.311 28.1202Z" fill="white"/>
<path d="M112.82 20.59L125.59 31.6L131.04 23.51L118.28 14.75L112.82 20.59Z" fill="white"/>
<path d="M94.1904 71.7395L94.8104 73.6495L109.22 63.8895L106.13 57.5195L94.1904 71.7395Z" fill="white"/>
<path d="M107.261 56.7801L110.761 62.9301L124.251 52.2201L117.041 43.8301L107.261 56.7801Z" fill="white"/>
<path d="M117.971 42.9803L125.481 51.3703L136.701 43.8303L125.591 34.2803L117.971 42.9803Z" fill="white"/>
<path d="M126.721 32.8004L137.941 42.8304L146.891 35.8704L132.381 25.1504L126.721 32.8004Z" fill="white"/>
<path d="M95.7305 74.8198L104.48 88.9398L119.31 82.7798L110.15 64.8398L95.7305 74.8198Z" fill="white"/>
<path d="M111.48 64.0999L120.13 82.3599L140.61 73.2299L125.28 53.3799L111.48 64.0999Z" fill="white"/>
<path d="M143.29 73.6601L159.04 89.7901L166.35 78.0101L151.94 70.5801L143.29 73.6601Z" fill="white"/>
<path d="M145.961 99.0201L147.921 92.8701L152.041 96.4701L149.001 100.08L145.961 99.0201Z" fill="white"/>
<path d="M141.331 74.5L145.971 78.75L144.631 81.51V90.64L146.381 92.87L144.931 99.55L127.851 97.85L120.641 83.63L141.331 74.5Z" fill="white"/>
<path d="M146.891 80.5498L146.381 89.7898L152.961 94.8798L157.291 90.5298L146.891 80.5498Z" fill="white"/>
<path d="M139.381 43.8301L145.971 56.8901L165.221 47.4401L148.031 36.8301L139.381 43.8301Z" fill="white"/>
<path d="M146.891 58.5896L152.971 69.7296L167.271 76.3096L176.131 71.5396L185.601 60.1796L166.351 48.3496L165.221 50.1996L146.891 58.5896Z" fill="white"/>
<path d="M126.721 52.8501L138.351 44.5801L150.701 69.3001L142.261 72.8101L126.721 52.8501Z" fill="white"/>
<path d="M105.311 90.6302L108.701 96.4702L126.721 97.5302L119.311 83.7402L105.311 90.6302Z" fill="white"/>
<path d="M168.61 77.4796L174.99 87.7196L183.43 97.5396L192.08 82.3596L176.43 72.8096L168.61 77.4796Z" fill="white"/>
<path d="M178.49 71.8502L193.42 80.1902L200.42 68.9902L186.83 61.2402L178.49 71.8502Z" fill="white"/>
<path d="M66.3398 67.0798L78.3198 86.2398L93.1599 75.5198L79.7498 53.5498L66.3398 67.0798Z" fill="white"/>
<path d="M79.21 87.0197L93.67 75.6797L102.63 89.7797L85.81 97.5297L79.21 87.0197Z" fill="white"/>
<path d="M46.2402 87.7098L56.4602 101.35L66.7902 93.7098L55.4102 77.3398L46.2402 87.7098Z" fill="white"/>
<path d="M58 75.6801L75.49 101.84L84.76 98.1201L64.88 67.8701L58 75.6801Z" fill="white"/>
<path d="M57.2305 101.84L58.7605 109.97L73.4805 103.11L67.3605 94.8799L57.2305 101.84Z" fill="white"/>
<path d="M191.411 103.02L183.431 97.5405L201.611 71.2305L214.951 80.0105L191.411 103.02Z" fill="white"/>
<path d="M20.5797 207.46L12.9697 190.78L33.3897 185.4L41.6197 202.93L20.5797 207.46Z" fill="white"/>
<path d="M12.1596 189.12L32.5496 183.84L28.3196 174.39L8.05957 182.74L12.1596 189.12Z" fill="white"/>
<path d="M7.11957 181.14L27.6796 172.56L23.1996 164.22L3.80957 176.52L7.11957 181.14Z" fill="white"/>
<path d="M3.4 174.66L22.48 163.35L18.94 156.28L0 169.59L3.4 174.66Z" fill="white"/>
<path d="M43.5698 201.71L51.2798 199.52L46.8698 193.79L45.1498 183.09L35.7598 184.96L43.5698 201.71Z" fill="white"/>
<path d="M53.1496 199.25L48.8996 193.36L46.5596 182.68L55.2296 180.47L65.5996 196.19L53.1496 199.25Z" fill="white"/>
<path d="M34.8096 183.04L54.1796 178.51L46.1996 166.14L29.8096 173.56L34.8096 183.04Z" fill="white"/>
<path d="M28.8297 171.74L24.9297 163.48L38.7197 155.01L44.9297 164.55L28.8297 171.74Z" fill="white"/>
<path d="M23.9295 162.29L38.2895 153.47L32.2295 145.82L20.0195 155.33L23.9295 162.29Z" fill="white"/>
<path d="M67.0198 195.56L69.0298 195.55L64.0998 178.86L57.0898 179.87L67.0198 195.56Z" fill="white"/>
<path d="M56.7296 178.57L63.6496 177.1L57.5296 161L47.3496 165.32L56.7296 178.57Z" fill="white"/>
<path d="M46.8298 164.18L57.0898 159.56L53.3198 146.59L40.8398 154.28L46.8298 164.18Z" fill="white"/>
<path d="M39.77 152.75L52.73 145.1L48.82 134.46L34.21 145.04L39.77 152.75Z" fill="white"/>
<path d="M70.42 195.02L86.53 190.97L85.16 174.98L65.29 178.27L70.42 195.02Z" fill="white"/>
<path d="M64.9802 176.77L85.0002 174.06L82.5202 151.78L58.9502 160.37L64.9802 176.77Z" fill="white"/>
<path d="M83.7299 149.35L103.88 139.24L94.8699 128.7L83.4199 140.18L83.7299 149.35Z" fill="white"/>
<path d="M108.71 154.5L103.44 150.77L108.13 147.94L110.65 151.93L108.71 154.5Z" fill="white"/>
<path d="M83.9502 151.48L89.4002 148.35L91.6202 150.46L100.32 153.23L102.97 152.24L108.91 155.64L102.11 171.41L86.3702 173.96L83.9502 151.48Z" fill="white"/>
<path d="M91.4004 148.01L100.04 151.3L106.89 146.57L104.06 141.13L91.4004 148.01Z" fill="white"/>
<path d="M54.1301 144.04L68.5701 141.72L65.4001 120.51L50.0801 133.67L54.1301 144.04Z" fill="white"/>
<path d="M70.4604 141.35L82.9304 138.94L93.5303 127.31L91.6703 117.42L83.7204 104.95L66.6104 119.71L68.0303 121.35L70.4604 141.35Z" fill="white"/>
<path d="M58.8895 158.84L54.5195 145.24L81.8295 140.97L82.6095 150.08L58.8895 158.84Z" fill="white"/>
<path d="M88.3903 190.7L94.9903 189.23L101.46 172.39L86.0703 175.27L88.3903 190.7Z" fill="white"/>
<path d="M95.0505 126.38L106.75 123.41L118.66 118.34L106.82 105.5L92.9805 117.51L95.0505 126.38Z" fill="white"/>
<path d="M92.6904 115.26L105.16 103.57L96.6104 93.5L85.1104 104.1L92.6904 115.26Z" fill="white"/>
<path d="M54.1396 220.68L76.0196 215.08L70.3096 197.69L45.3096 203.8L54.1396 220.68Z" fill="white"/>
<path d="M77.0401 214.47L70.6201 197.25L86.7701 192.99L89.0501 211.37L77.0401 214.47Z" fill="white"/>
<path d="M67.6996 246.1L83.7996 240.49L79.6396 228.33L60.5996 234.21L67.6996 246.1Z" fill="white"/>
<path d="M59.8004 231.25L90.0304 222.51L89.3004 212.55L54.4404 222.32L59.8004 231.25Z" fill="white"/>
<path d="M84.4897 239.91L92.7097 240.92L90.6397 224.81L80.9297 228.14L84.4897 239.91Z" fill="white"/>
<path d="M126.3 112.41L118.66 118.34L99.0996 93.0402L111.52 82.9902L126.3 112.41Z" fill="white"/>
<path d="M173.921 305.37L155.681 307.17L157.201 286.1L176.451 283.99L173.921 305.37Z" fill="white"/>
<path d="M153.841 307.39L155.451 286.39L145.141 287.33L146.481 309.2L153.841 307.39Z" fill="white"/>
<path d="M144.67 309.57L143.21 287.35L133.87 288.88L139.22 311.22L144.67 309.57Z" fill="white"/>
<path d="M137.331 311L132.801 289.28L124.971 290.34L131.421 312.57L137.331 311Z" fill="white"/>
<path d="M175.931 281.76L176.361 273.75L169.511 276.07L158.831 274.23L157.561 283.72L175.931 281.76Z" fill="white"/>
<path d="M176.71 271.9L169.76 274.01L158.9 272.76L159.61 263.84L177.84 259.13L176.71 271.9Z" fill="white"/>
<path d="M155.431 284L157.421 264.2L143.141 267.74L144.841 285.66L155.431 284Z" fill="white"/>
<path d="M142.801 285.99L133.721 287L130.181 271.22L141.211 268.43L142.801 285.99Z" fill="white"/>
<path d="M132.28 287.57L128.58 271.13L119.38 274.37L124.42 289.01L132.28 287.57Z" fill="white"/>
<path d="M177.71 257.58L178.35 255.68L160.96 254.94L159.65 261.89L177.71 257.58Z" fill="white"/>
<path d="M158.3 261.81L159.15 254.78L141.94 255.36L142.73 266.39L158.3 261.81Z" fill="white"/>
<path d="M141.48 266.52L140.44 255.31L126.94 254.68L130.18 268.97L141.48 266.52Z" fill="white"/>
<path d="M128.39 269.49L125.35 254.75L114.01 255L119.29 272.26L128.39 269.49Z" fill="white"/>
<path d="M178.31 254.19L179.69 237.64L164.11 233.75L160.79 253.62L178.31 254.19Z" fill="white"/>
<path d="M159.271 253.419L163.201 233.6L141.311 228.729L141.811 253.809L159.271 253.419Z" fill="white"/>
<path d="M139.41 226.8L136.37 204.46L123.48 209.57L130.63 224.12L139.41 226.8Z" fill="white"/>
<path d="M152.371 204.83L147.131 208.61L145.971 203.26L150.561 202.17L152.371 204.83Z" fill="white"/>
<path d="M141.49 227.28L140.3 221.11L143.01 219.69L148.45 212.36L148.37 209.53L153.51 205.02L166.23 216.56L163.54 232.27L141.49 227.28Z" fill="white"/>
<path d="M140.631 219.11L146.541 212L144.281 203.99L138.221 204.91L140.631 219.11Z" fill="white"/>
<path d="M124.79 253.08L127.27 238.67L106.19 234.79L113.67 253.56L124.79 253.08Z" fill="white"/>
<path d="M127.54 236.76L129.3 224.19L121.73 210.38L111.77 208.94L97.4004 212.43L105.81 233.4L107.83 232.58L127.54 236.76Z" fill="white"/>
<path d="M140.331 253.38L126.061 253.1L130.871 225.88L139.731 228.09L140.331 253.38Z" fill="white"/>
<path d="M180.031 235.78L180.781 229.07L166.951 217.49L164.681 232.99L180.031 235.78Z" fill="white"/>
<path d="M121.35 208.65L122.32 196.62L121.39 183.71L105.4 190.75L112.28 207.74L121.35 208.65Z" fill="white"/>
<path d="M110.06 207.28L103.03 191.7L90.7402 196.52L97.0402 210.84L110.06 207.28Z" fill="white"/>
<path d="M197.31 277.91L199.09 255.38L180.79 255.16L178.48 280.79L197.31 277.91Z" fill="white"/>
<path d="M198.841 254.22L180.471 254.72L181.681 238.06L199.801 241.85L198.841 254.22Z" fill="white"/>
<path d="M225.74 273.31L225.65 256.26L212.81 256.25L212.2 276.17L225.74 273.31Z" fill="white"/>
<path d="M209.13 275.97L210.66 244.54L201 242.01L198.95 278.15L209.13 275.97Z" fill="white"/>
<path d="M225.33 255.41L228.94 247.97L213.03 244.71L213.04 254.97L225.33 255.41Z" fill="white"/>
<path d="M118.25 174.55L121.39 183.71L91.1199 194.01L85.6299 179.01L118.25 174.55Z" fill="white"/>
<path d="M316.43 192.3L312.12 210.12L292.73 201.74L297.08 182.87L316.43 192.3Z" fill="white"/>
<path d="M311.73 211.92L292.42 203.49L289.92 213.53L311.01 219.47L311.73 211.92Z" fill="white"/>
<path d="M310.77 221.3L289.3 215.37L287.67 224.69L310.52 226.99L310.77 221.3Z" fill="white"/>
<path d="M309.7 228.7L287.7 225.83L286.12 233.57L309.23 234.8L309.7 228.7Z" fill="white"/>
<path d="M294.79 182.63L287.37 179.59L287.31 186.82L282.06 196.29L290.6 200.62L294.79 182.63Z" fill="white"/>
<path d="M285.74 178.65L285.45 185.9L280.69 195.75L272.51 192.14L274.06 173.37L285.74 178.65Z" fill="white"/>
<path d="M290.16 202.72L272.12 194.32L270.76 208.98L288.24 213.26L290.16 202.72Z" fill="white"/>
<path d="M287.89 215.301L285.85 224.211L269.78 222.351L270.78 211.021L287.89 215.301Z" fill="white"/>
<path d="M285.91 225.76L269.17 223.83L269.2 233.59L284.68 233.65L285.91 225.76Z" fill="white"/>
<path d="M272.55 172.98L270.97 171.75L264.54 187.93L270.67 191.46L272.55 172.98Z" fill="white"/>
<path d="M270.16 192.71L263.8 189.59L258.68 206.03L269.35 208.91L270.16 192.71Z" fill="white"/>
<path d="M269.06 210.141L258.13 207.431L253.09 219.971L267.66 221.621L269.06 210.141Z" fill="white"/>
<path d="M267.56 223.48L252.64 221.5L249.14 232.28L267.17 232.98L267.56 223.48Z" fill="white"/>
<path d="M269.54 171.31L254.37 164.55L245.57 177.98L263.24 187.66L269.54 171.31Z" fill="white"/>
<path d="M262.55 189.03L245.13 178.79L233.33 197.86L257.17 205.65L262.55 189.03Z" fill="white"/>
<path d="M230.88 199.01L208.78 194.53L209.36 208.38L225.46 206.42L230.88 199.01Z" fill="white"/>
<path d="M214.4 179.54L216.24 185.73L210.81 185.07L211.29 180.37L214.4 179.54Z" fill="white"/>
<path d="M232.01 197.21L225.8 196.31L225.35 193.27L220.22 185.72L217.52 184.87L214.95 178.53L230.04 170.32L243.99 178.03L232.01 197.21Z" fill="white"/>
<path d="M224.02 195.33L219.25 187.41L210.94 186.9L209.81 192.93L224.02 195.33Z" fill="white"/>
<path d="M250.88 221.47L238.09 214.38L227.49 233.02L247.67 232.13L250.88 221.47Z" fill="white"/>
<path d="M236.37 213.5L225.08 207.7L209.55 210.31L204.92 219.23L203.47 233.95L226.04 232.91L225.93 230.74L236.37 213.5Z" fill="white"/>
<path d="M256.28 206.891L251.31 220.281L227.19 206.781L232.2 199.141L256.28 206.891Z" fill="white"/>
<path d="M252.73 163.61L246.64 160.7L231.15 169.95L245.04 177.19L252.73 163.61Z" fill="white"/>
<path d="M207.79 210.09L196.75 205.21L184.25 201.84L185.64 219.25L203.94 218.35L207.79 210.09Z" fill="white"/>
<path d="M202.78 220.3L185.75 221.81L186.26 235L201.85 233.77L202.78 220.3Z" fill="white"/>
<path d="M298.2 161.17L277.52 152.07L271.28 169.28L294.72 179.9L298.2 161.17Z" fill="white"/>
<path d="M276.34 151.92L270.76 169.44L255.43 162.81L264.98 146.95L276.34 151.92Z" fill="white"/>
<path d="M303.22 132.81L287.09 127.28L282.85 139.41L301.46 146.54L303.22 132.81Z" fill="white"/>
<path d="M300.27 149.37L271.09 137.58L265.52 145.87L298.97 159.7L300.27 149.37Z" fill="white"/>
<path d="M286.19 127.31L280.35 121.44L272.03 135.39L281.72 138.76L286.19 127.31Z" fill="white"/>
<path d="M174.58 201.79L184.25 201.84L184.02 233.82L168.04 234.06L174.58 201.79Z" fill="white"/>
<path d="M261.291 21.8604L276.401 32.2404L261.671 47.3703L245.581 36.5804L261.291 21.8604Z" fill="white"/>
<path d="M277.95 33.25L263.19 48.28L271.68 54.2L284.75 36.61L277.95 33.25Z" fill="white"/>
<path d="M286.371 37.4902L273.181 55.4302L281.301 60.2702L291.601 39.7402L286.371 37.4902Z" fill="white"/>
<path d="M292.911 41.1299L282.381 60.6499L289.051 64.8899L298.431 43.7299L292.911 41.1299Z" fill="white"/>
<path d="M244.541 38.6299L239.061 44.4799L245.791 47.1099L252.771 55.3999L259.861 48.9599L244.541 38.6299Z" fill="white"/>
<path d="M237.601 45.6699L244.271 48.5299L251.771 56.4799L245.481 62.8399L228.501 54.6999L237.601 45.6699Z" fill="white"/>
<path d="M261.661 50.1201L247.391 63.9801L260.601 70.4701L270.831 55.6701L261.661 50.1201Z" fill="white"/>
<path d="M272.611 56.7305L280.201 61.8005L272.751 76.1605L262.511 71.1805L272.611 56.7305Z" fill="white"/>
<path d="M281.68 62.3008L273.91 77.2608L283.04 80.7008L288.61 66.2608L281.68 62.3008Z" fill="white"/>
<path d="M227.601 55.9707L225.891 57.0207L238.711 68.7907L244.201 64.3107L227.601 55.9707Z" fill="white"/>
<path d="M245.181 65.2402L240.001 70.0702L253.541 80.7202L260.031 71.7702L245.181 65.2402Z" fill="white"/>
<path d="M261.07 72.4805L254.65 81.7205L264.57 90.9005L271.3 77.8805L261.07 72.4805Z" fill="white"/>
<path d="M273.011 78.6406L265.841 91.8706L274.671 98.9806L281.751 82.3806L273.011 78.6406Z" fill="white"/>
<path d="M224.971 58.1904L213.251 69.9604L222.661 82.9604L238.001 69.9104L224.971 58.1904Z" fill="white"/>
<path d="M239.031 71.04L223.261 83.66L236.871 101.49L252.641 81.99L239.031 71.04Z" fill="white"/>
<path d="M237.071 104.19L225.011 123.24L238.161 127.63L242.061 111.89L237.071 104.19Z" fill="white"/>
<path d="M213.011 112.65L219.451 113.13L216.891 117.97L212.681 115.84L213.011 112.65Z" fill="white"/>
<path d="M235.791 102.48L232.731 107.97L229.741 107.3L220.861 109.41L219.091 111.63L212.251 111.77L209.971 94.75L222.141 84.46L235.791 102.48Z" fill="white"/>
<path d="M231.19 109.29L222.09 110.92L218.65 118.5L223.88 121.7L231.19 109.29Z" fill="white"/>
<path d="M265.191 93.5L254.011 102.93L267.641 119.48L274.001 100.3L265.191 93.5Z" fill="white"/>
<path d="M252.571 104.221L243.12 112.701L240.021 128.141L246.711 135.651L259.951 142.251L267.02 120.791L264.951 120.111L252.571 104.221Z" fill="white"/>
<path d="M253.49 83.2705L264.23 92.6705L243.02 110.401L237.66 102.991L253.49 83.2705Z" fill="white"/>
<path d="M211.791 71.1504L206.891 75.8004L210.011 93.5704L221.731 83.1804L211.791 71.1504Z" fill="white"/>
<path d="M239.201 129.71L230.701 138.28L223.101 148.76L239.861 153.67L245.541 136.25L239.201 129.71Z" fill="white"/>
<path d="M246.951 138.03L242.291 154.47L254.791 158.7L259.201 143.69L246.951 138.03Z" fill="white"/>
<path d="M225.711 27.7998L209.841 43.8798L223.691 55.8398L241.971 37.7298L225.711 27.7998Z" fill="white"/>
<path d="M209.28 44.9297L223.65 56.3797L212 68.3497L200.58 53.7697L209.28 44.9297Z" fill="white"/>
<path d="M201.001 13L190.091 26.1L199.911 34.38L213.211 19.54L201.001 13Z" fill="white"/>
<path d="M215.42 21.6602L194 44.7202L199.76 52.8802L224.61 26.5602L215.42 21.6602Z" fill="white"/>
<path d="M189.79 26.96L182.23 30.32L192.3 43.06L198.9 35.21L189.79 26.96Z" fill="white"/>
<path d="M219.601 157.78L223.101 148.76L252.891 160.38L247.421 175.39L219.601 157.78Z" fill="white"/>
</g>
<defs>
<clipPath id="clip0_3734_585">
<rect width="907.08" height="312.57" fill="white"/>
</clipPath>
</defs>
</svg>
