<svg width="207" height="70" viewBox="0 0 207 70" fill="none" xmlns="http://www.w3.org/2000/svg">
<g clip-path="url(#clip0_3727_148)">
<path d="M18.6745 64.2086C17.9873 63.8526 17.3445 63.4966 16.6808 63.1798C15.9283 62.8185 15.1757 62.4598 14.7368 61.7032C14.6322 61.5226 14.6505 61.2739 14.6113 61.054C14.8178 61.054 15.0686 60.9833 15.2254 61.0723C16.4117 61.7634 17.6084 62.4467 18.7398 63.219C19.1762 63.5175 18.7999 63.9442 18.6745 64.206V64.2086Z" fill="white"/>
<path d="M45.3381 64.2927C44.9409 63.612 44.9488 63.4418 45.6491 62.9654C46.4957 62.3894 47.3632 61.8396 48.2542 61.337C48.5887 61.1485 49.012 61.1197 49.3934 61.0176C49.4509 61.0935 49.5084 61.1668 49.5659 61.2427C49.2942 61.6249 49.0903 62.0988 48.735 62.3658C48.1575 62.7978 47.4807 63.0936 46.8458 63.4471C46.3572 63.7194 45.8685 63.9942 45.3355 64.2927H45.3381Z" fill="white"/>
<path d="M17.7732 64.3944C15.9729 63.9964 14.1751 63.5985 12.3408 63.1927C12.6309 62.4963 13.0672 61.7895 13.9583 61.3418C14.6063 63.1796 16.4275 63.4624 17.7732 64.3944Z" fill="white"/>
<path d="M46.2285 64.4625C47.569 63.5122 49.4033 63.2713 50.0017 61.457C50.7934 61.745 51.4022 62.4702 51.6269 63.2634C49.8318 63.6614 48.0289 64.0619 46.2285 64.4599V64.4625Z" fill="white"/>
<path d="M51.0619 15.2943C51.4957 15.5064 51.9294 15.7158 52.418 15.9541C52.2378 16.3965 52.0575 16.8416 51.8772 17.2892C38.8253 12.2863 25.8206 12.2836 12.7792 17.2866C12.5963 16.8468 12.4186 16.4148 12.2305 15.9619C12.5048 15.8075 12.7531 15.6687 13.0013 15.53C14.2581 15.0928 15.5176 14.6555 16.7744 14.2183C17.0488 14.166 17.3232 14.1136 17.6001 14.0613C18.3945 13.8413 19.1888 13.6214 19.9806 13.4015C21.9168 13.0795 23.8504 12.7575 25.7866 12.4381C26.155 12.3779 26.3719 12.2313 26.2386 11.8045C25.993 11.0191 25.7631 10.2285 25.5279 9.43788C25.0785 7.92729 24.6317 6.41409 24.1848 4.90351C24.0855 4.61291 24.0986 4.40609 24.4879 4.38776C24.8381 4.37205 25.1856 4.31446 25.5645 4.27257C25.622 4.6548 25.6742 4.99776 25.7317 5.39046C26.1916 5.3538 26.6149 5.31715 27.0565 5.28312V4.11549C27.5268 4.09193 27.9867 4.06837 28.4989 4.04219V5.06059C28.525 5.06059 28.5537 5.06321 28.5799 5.06582C28.6217 4.72548 28.6452 4.38514 28.7079 4.05004C28.7915 3.59713 28.7366 3.23061 28.363 2.88503C28.1722 2.70701 28.0729 2.34573 28.0651 2.0656C28.052 1.37968 28.1174 0.691151 28.1513 0.002618C28.6661 0.002618 29.1782 0.002618 29.693 0.002618V1.28544C29.7531 1.31947 29.8158 1.35089 29.8759 1.38492C30.0484 1.19904 30.2234 1.01316 30.4325 0.790635C30.5527 0.774927 30.7408 0.748747 30.9969 0.717331V0H33.0115C32.9566 0.575959 33.1813 0.890119 33.7065 0.950333C33.8816 1.08385 34.0567 1.21737 34.2317 1.35089C34.284 1.30376 34.3363 1.25664 34.3885 1.20951C34.3624 0.806343 34.3389 0.403171 34.3127 0C34.8275 0 35.3396 0 35.8544 0C35.8936 0.531453 35.9223 1.06291 35.9772 1.59174C36.0399 2.1965 35.9589 2.68868 35.5043 3.19657C35.2508 3.47932 35.3788 4.1024 35.4703 4.58411C35.4938 4.42441 35.5173 4.26472 35.5513 4.05004C36.0112 4.07098 36.4711 4.09193 36.9518 4.11549V5.27788C37.3882 5.31453 37.8115 5.35119 38.2792 5.39307C38.3367 5.00823 38.3864 4.66527 38.4465 4.26995C38.9351 4.33017 39.395 4.38776 39.8679 4.44536V5.06582C39.1624 7.43511 38.4543 9.8044 37.7592 12.1397C38.2453 12.2575 38.598 12.3622 38.9586 12.425C40.9993 12.7732 43.0453 13.0952 45.086 13.4591C45.8543 13.5953 46.6042 13.8152 47.3646 13.9958C47.6337 14.0901 47.9028 14.1869 48.1746 14.2812C49.0447 14.5692 49.9148 14.8571 50.7849 15.1451C50.8764 15.1922 50.9678 15.2394 51.0593 15.2865L51.0619 15.2943ZM29.7505 11.5899H34.3336C34.156 9.96148 33.8999 8.3933 33.15 6.95602C32.9122 6.49787 32.6195 6.01877 32.0368 6.01616C31.4515 6.01616 31.1824 6.51096 30.9106 6.94816C30.8793 6.99791 30.8558 7.05288 30.8296 7.10524C30.1842 8.51896 29.8733 10.0086 29.7505 11.5899ZM33.1787 1.45561H30.8819C30.8819 2.01586 30.8741 2.54469 30.8819 3.07091C30.895 3.69399 31.3392 4.16 31.9375 4.2045C32.5803 4.25163 33.116 3.8406 33.1656 3.19657C33.2101 2.63109 33.1761 2.06036 33.1761 1.45561H33.1787ZM29.5989 3.60236C29.5989 4.19141 29.5989 4.73857 29.5989 5.28574C29.5989 5.37998 29.6303 5.47161 29.6486 5.58157H30.6154C30.78 4.02386 30.5265 3.51335 29.5963 3.60236H29.5989ZM33.4635 5.5868H34.412V3.58142C33.5445 3.54477 33.2179 4.24901 33.4635 5.5868ZM27.5216 12.2208C28.5955 12.1658 29.7792 12.103 30.9655 12.0428C30.9655 12.0166 30.9655 11.9878 30.9655 11.9616H27.9501C27.9292 11.7522 27.9136 11.5873 27.9057 11.4982C27.7907 11.7155 27.6496 11.98 27.5216 12.2208ZM33.892 12.0585C34.8615 12.1056 36.0504 12.1658 37.2419 12.2234V12.0585H33.892Z" fill="white"/>
<path d="M207 22.5357C206.885 22.554 206.767 22.5907 206.652 22.5933C203.749 22.5959 200.846 22.5933 197.943 22.5933C197.867 22.5933 197.789 22.575 197.666 22.5619V9.49023H207V11.9799H200.791V14.6739H205.594V17.1636H200.773V19.9256H207.002V22.5357H207Z" fill="white"/>
<path d="M13.995 19.0299C13.5944 18.995 13.28 18.6015 13.0518 17.8492C25.8919 12.9326 38.7112 12.9352 51.6402 17.8597C51.4677 18.2838 51.3188 18.6503 51.1568 19.0483C50.8014 18.9252 50.4905 18.8179 50.0829 18.6765V19.3965C50.0829 27.2635 50.0829 35.128 50.0829 42.9951C50.0829 51.1894 44.039 58.6586 36.0277 60.3629C25.9625 62.5044 16.4643 56.3469 14.3556 46.265C14.1074 45.0764 14.0133 43.8355 14.0081 42.6181C13.9768 34.9892 13.9924 27.3604 13.9924 19.7316C13.9924 19.4959 13.9924 19.2603 13.9924 19.0299H13.995ZM49.474 46.0398C49.5394 44.6025 49.6282 43.2281 49.6596 41.851C49.6909 40.3849 49.636 40.4399 48.3478 39.7331C46.8114 38.8927 45.4318 38.9241 44.0181 40.0184C43.0696 40.7515 42.0088 41.3405 40.9897 41.9819C40.1901 42.4846 39.3592 42.5186 38.51 42.0997C38.0318 41.8641 37.5484 41.6442 37.0755 41.3981C35.9049 40.7855 34.729 40.1781 33.5741 39.5393C32.555 38.9765 31.5673 38.9634 30.543 39.5236C29.2444 40.2331 27.8856 40.8405 26.634 41.618C24.9826 42.6417 23.5141 42.4898 21.996 41.3484C21.0057 40.6049 19.9108 40.0001 18.8578 39.3404C18.3796 39.0419 17.8466 38.9424 17.3266 39.1545C16.4173 39.5262 15.5262 39.9477 14.6431 40.3745C14.5255 40.4321 14.4157 40.652 14.4183 40.7907C14.4732 42.3092 14.5647 43.825 14.6117 45.3434C14.63 45.9037 14.8469 46.0503 15.4008 46.0503C26.5007 46.032 37.6007 46.0372 48.7006 46.0372C48.8966 46.0372 49.0925 46.0372 49.4714 46.0372L49.474 46.0398ZM14.4366 37.4109C15.035 37.1046 15.5628 36.8454 16.0828 36.5653C17.3945 35.861 18.6148 35.9396 19.835 36.8428C20.7992 37.5575 21.8549 38.1492 22.8556 38.8168C23.8381 39.4739 24.8154 39.5184 25.858 38.9477C27.1723 38.2277 28.5519 37.623 29.8218 36.8349C31.4079 35.8506 32.8633 35.9789 34.4155 36.903C35.7507 37.6989 37.1643 38.3612 38.5466 39.0786C39.3723 39.5079 40.1823 39.4556 40.9636 38.9634C41.8807 38.3874 42.8658 37.8874 43.6941 37.1988C45.4161 35.7668 47.1171 35.8453 48.8992 37.0051C49.1161 37.1465 49.3538 37.2564 49.6178 37.4004V33.065H14.4366V37.4057V37.4109ZM40.3129 27.994C40.3129 27.9547 40.3129 27.918 40.3103 27.8788C39.2547 27.7976 38.1964 27.7557 37.146 27.6301C34.7578 27.3473 32.7144 26.376 31.2015 24.457C30.2634 23.2659 30.0413 21.5642 31.1309 20.3756C31.144 20.3599 31.1179 20.3075 31.1048 20.2447C30.9742 20.2368 30.8383 20.2211 30.7024 20.2264C27.7733 20.3337 25.3354 22.8601 25.3327 25.7844C25.3327 26.5436 25.3327 27.3054 25.3327 28.0489C25.0166 28.0856 24.8102 28.1118 24.6116 28.1353C24.588 28.4128 24.5671 28.6432 24.5462 28.8972C24.0759 28.8212 23.6369 28.7479 23.0595 28.6537C23.2241 28.9862 23.3338 29.1511 23.3913 29.3318C23.6003 29.9993 24.0367 30.1486 24.7213 30.1433C29.1242 30.1067 33.5297 30.1276 37.9325 30.1172C38.348 30.1172 38.6903 30.1669 38.9829 30.5099C39.0875 30.6329 39.5081 30.6905 39.5317 30.646C39.7459 30.2245 40.117 30.4287 40.4175 30.3816C40.6004 30.3528 40.7859 30.3266 40.9688 30.3004C40.9636 30.2376 40.961 30.1774 40.9557 30.1145C40.5403 30.0857 40.1222 30.0569 39.6884 30.0281C39.6623 29.7428 39.6388 29.4784 39.6257 29.3501C39.3122 29.1851 39.1162 29.0438 38.8967 28.9757C38.7452 28.9286 38.5074 28.9103 38.4055 28.9967C38.0005 29.3422 37.632 29.2087 37.1983 29.0569C36.869 28.9417 36.4745 28.9495 36.1191 28.9888C35.7246 29.0333 35.3405 29.1773 34.9015 29.2925V27.994H40.3156H40.3129ZM25.7717 55.9097C25.9938 56.8783 26.6366 57.449 27.6113 57.4569C30.5117 57.4778 33.4147 57.4569 36.3151 57.47C37.2009 57.4726 37.5432 56.7867 38.1337 56.2107H30.4176C30.4071 56.1584 30.3967 56.106 30.3862 56.051C32.9078 55.1452 35.4267 54.242 38.0527 53.2995C37.8123 53.2288 37.6843 53.1791 37.5536 53.1555C35.8343 52.8361 34.2012 52.2628 32.6439 51.48C31.1727 50.7417 30.3235 49.5584 30.2295 47.8803C30.2216 47.7389 30.1877 47.5975 30.1589 47.4247C27.9483 49.3254 26.6628 51.9853 29.0406 56.2395C27.9222 56.14 26.8221 56.5223 25.7717 55.9123V55.9097Z" fill="white"/>
<path d="M53.1372 55.5466C53.7643 55.4209 54.428 55.2272 55.1021 55.1644C56.3407 55.0492 56.8371 55.5414 56.8554 56.798C56.8607 57.0912 56.8554 57.387 56.7561 57.6855C56.7013 57.2928 56.6699 56.8975 56.5889 56.5126C56.4374 55.7953 56.1552 55.5492 55.4366 55.6225C54.9349 55.6723 54.4332 55.8162 53.9498 55.9759C52.0868 56.5833 50.5555 57.696 49.2778 59.1568C49.4895 59.5705 49.7063 60.0024 49.8657 60.314C49.1472 60.5679 48.4678 60.7119 47.8903 61.0365C46.8451 61.6256 45.7947 62.246 44.8619 62.9948C42.6382 64.7829 40.0723 65.7097 37.3156 66.1835C36.1136 66.3903 34.8881 66.4741 33.6757 66.6312C33.4641 66.6574 33.2655 66.7752 33.0591 66.8511C33.0669 66.9323 33.0747 67.0108 33.0826 67.092C34.1173 67.304 35.1547 67.5161 36.1894 67.7229C36.5761 67.8014 36.9628 67.8983 37.3522 67.9376C37.8225 67.9847 37.9323 68.2727 37.9296 68.6706C37.927 69.5398 37.07 70.244 36.273 69.922C34.9639 69.3906 33.6862 68.7701 32.4189 68.1444C32.1288 68.0004 31.9747 68.0109 31.6899 68.1496C30.42 68.7727 29.1422 69.3879 27.8357 69.922C27.044 70.244 26.1164 69.4665 26.1686 68.6104C26.1895 68.2465 26.328 68.0109 26.7592 67.9376C27.9455 67.7386 29.1213 67.4899 30.2998 67.249C30.5454 67.1993 30.7805 67.1024 31.0209 67.0265C31.0314 66.9663 31.0418 66.9087 31.0523 66.8485C30.8302 66.7726 30.6133 66.6626 30.386 66.6233C28.502 66.3144 26.5972 66.105 24.7341 65.6966C22.811 65.2751 21.089 64.3666 19.4977 63.1702C18.3193 62.2853 17.0285 61.5497 15.7507 60.8061C15.3483 60.5731 14.8336 60.5339 14.2561 60.3716C14.4338 60.0129 14.6506 59.5757 14.8492 59.1699C13.4983 57.6017 11.8417 56.51 9.88457 55.8686C7.99017 55.2481 7.53812 55.5492 7.40747 57.5232C7.40225 57.6148 7.38395 57.7064 7.28466 57.7928C7.28466 57.3216 7.25331 56.8477 7.2925 56.3791C7.36044 55.5754 7.79419 55.1434 8.60944 55.1644C9.23133 55.1801 9.8506 55.3424 10.4673 55.4523C10.6528 55.4864 10.8331 55.5597 11.1702 55.6644C8.76883 54.2009 7.38134 54.1826 6.09576 56.099C6.35967 55.1068 7.02075 54.6434 7.84123 54.1879C6.91362 53.9549 6.12973 54.0805 5.3589 54.4313C5.34322 54.3685 5.32754 54.3083 5.31186 54.2454C5.96772 54.0465 6.62358 53.8449 7.30034 53.6407C6.47987 53.3422 5.62803 53.1276 4.73962 53.3946C4.55671 53.4496 4.37903 53.7323 4.32155 53.9444C4.24838 54.2114 4.30326 54.5125 4.25622 54.8031C4.22748 54.6722 4.19874 54.5413 4.16999 54.413C3.96096 53.5203 4.16999 53.0516 5.06363 52.9914C5.96772 52.9286 6.8901 53.1119 7.80464 53.2035C8.00846 53.2244 8.20704 53.3161 8.41347 53.3239C6.77252 52.4652 5.06886 52.7453 3.35475 53.0307C4.49662 52.4574 5.74039 52.3448 6.99462 52.2453C5.6202 51.8762 4.26145 52.0254 2.9027 52.3893C4.48878 51.5725 6.14279 51.3761 7.87781 51.7871C6.06701 50.9991 4.20135 50.6693 2.23639 51.1169C2.22855 51.0646 2.22071 51.0122 2.21287 50.9625C3.05687 50.7949 3.89824 50.6274 4.74224 50.4598C4.75007 50.431 4.7553 50.4022 4.76314 50.3734C3.5272 50.2347 2.29126 50.0959 1.20949 49.9729C2.38011 49.643 3.72579 49.7451 7.3317 50.4572C5.42945 49.5566 3.38349 49.4545 1.32446 49.4467V49.2922C2.52904 49.2372 3.73624 49.1822 4.94343 49.1299C4.94866 49.0958 4.95389 49.0618 4.95911 49.0252C3.7075 48.9178 2.45588 48.8079 1.3323 48.711C2.71457 48.2686 4.25622 48.4989 5.80049 48.7031C4.27451 48.122 2.70934 47.8759 1.01352 48.1691C2.05087 47.5722 3.74669 47.6088 6.50338 48.2476C5.62803 47.4491 3.2659 47.0329 0.33937 47.0355C1.37411 46.9098 2.40885 46.7842 3.49323 46.6506H0.843675C0.838449 46.6088 0.833223 46.5669 0.827997 46.525C2.07439 46.4124 3.31816 46.2972 4.6142 46.1794C3.32862 45.6872 2.02474 45.4987 0.686896 45.4909C2.41146 45.1401 4.07593 45.4097 5.71426 45.9909C4.11512 45.0458 2.3984 44.4384 0.592829 44.0536C2.47678 44.0824 4.24577 44.5484 6.0043 45.4961C5.09237 44.4227 2.42191 43.3441 -0.00292969 42.8598C0.754834 42.9462 1.52305 42.9854 2.27297 43.1294C3.0229 43.2734 3.75192 43.5195 4.46003 43.7132C3.85644 42.9854 1.66154 42.0168 0.151236 41.7052C0.726091 41.7786 1.31401 41.8021 1.87319 41.9382C2.44282 42.077 3.00461 42.2891 3.54027 42.5325C4.08638 42.7786 4.59591 43.1006 5.14463 43.3572C3.77282 41.9278 2.4794 40.4067 0.569312 39.6396C2.16323 39.8753 3.34168 40.8596 4.54626 41.8283C3.63172 40.48 2.63095 39.2155 1.22256 38.3306C2.54211 38.7076 3.44097 39.6737 4.38948 40.5769C3.38349 39.1265 2.18413 37.8751 0.68167 36.9195C2.22071 37.4589 3.40178 38.5008 4.57239 39.6318C4.24577 39.1003 3.9296 38.5637 3.58991 38.0427C3.23455 37.4981 2.86873 36.9562 2.4794 36.4352C2.0979 35.9221 1.68244 35.4351 1.31924 34.9063C2.67276 35.9299 3.69704 37.2494 4.67169 38.6212C3.96357 36.8698 2.78773 35.4221 1.64847 33.9507L1.76606 33.8513C2.69366 34.8775 3.62127 35.9011 4.54888 36.9274C3.88518 35.587 2.95235 34.4246 2.04042 33.2308C2.97848 34.045 3.91392 34.8592 4.85198 35.6734C4.80495 35.7284 4.7553 35.7833 4.70827 35.8357C3.88518 34.5188 2.97586 33.2701 1.82615 32.1967C3.13787 32.9009 4.03151 34.0686 5.02182 35.1367C4.29803 33.7596 3.28158 32.6208 2.17368 31.5265C2.62834 31.8459 3.08561 32.1653 3.54027 32.4847C3.5664 32.4585 3.59514 32.4349 3.62127 32.4087C3.12219 31.8642 2.62572 31.317 2.12665 30.7725L2.17891 30.7018C2.58914 31.0186 2.99938 31.3327 3.40962 31.6495C3.43575 31.6233 3.46188 31.5972 3.48539 31.571C2.98632 31.1128 2.48724 30.6573 1.98555 30.1992L2.07439 30.0813C3.05687 30.8327 4.03673 31.5841 5.01921 32.3354C4.18045 31.139 3.07777 30.2201 1.96464 29.2698C2.77989 29.7777 3.59253 30.2855 4.40777 30.7934C4.44174 30.762 4.47571 30.7306 4.50707 30.7018C3.68921 29.9269 2.87396 29.152 2.0561 28.3796C2.06132 28.3666 2.06655 28.3508 2.07177 28.3378C2.65185 28.7095 3.23194 29.0786 3.81202 29.4504C3.83292 29.4295 3.85382 29.4085 3.87734 29.3876C3.44881 28.9006 3.02028 28.4111 2.59437 27.9241C4.06809 28.8614 5.11067 30.1965 6.1036 31.5841C5.13157 29.8431 4.09683 28.1597 2.08745 27.1439C3.20842 27.3167 3.93483 27.911 4.66123 28.5315C3.98186 27.4424 3.07516 26.5758 2.06132 25.8035C3.31555 26.335 4.2928 27.2303 5.21257 28.254C5.07408 27.589 4.54626 27.0052 2.79557 25.3375C3.53243 25.8533 4.26667 26.369 5.00353 26.8848C5.04011 26.8586 5.07408 26.8324 5.11067 26.8062C4.35552 25.9449 3.60036 25.081 2.8426 24.2196C2.85567 24.1987 2.86612 24.1778 2.87918 24.1568C3.37826 24.5364 3.87734 24.9187 4.37642 25.2983C4.39732 25.2826 4.41823 25.2642 4.43913 25.2485C4.13341 24.8846 3.82769 24.5207 3.52198 24.1594L3.61082 24.0652C4.1517 24.5731 4.69259 25.0836 5.23348 25.5915C5.27006 25.5653 5.30664 25.5391 5.34322 25.5129C4.90163 24.8584 4.46003 24.2039 4.01844 23.5494C4.03151 23.5337 4.04457 23.518 4.05764 23.5023C4.48094 23.9343 4.90424 24.3663 5.32754 24.7982C5.36674 24.7694 5.40332 24.7406 5.44251 24.7118C5.01921 24.1725 4.55149 23.662 4.1909 23.0834C3.98447 22.7509 3.96879 22.3033 3.82769 21.9184C3.76237 21.7378 3.60559 21.5886 3.42791 21.3372C3.67875 21.4891 3.84598 21.5886 4.01322 21.6907C4.02628 21.6723 4.03673 21.6566 4.0498 21.6383C3.77543 21.4001 3.49846 21.1618 3.2241 20.921C3.27897 20.8581 3.33384 20.7979 3.38871 20.7351C4.50707 21.6252 5.62542 22.5179 6.76991 23.429C5.84491 22.1959 4.92776 20.9759 4.01322 19.7533C4.02628 19.7429 4.03934 19.7324 4.05241 19.7193C4.42607 20.0989 4.79972 20.4811 5.17338 20.8608C5.19951 20.8372 5.22825 20.8136 5.25438 20.7901C4.74485 20.1172 4.23532 19.447 3.72579 18.7742C3.73885 18.7664 3.75192 18.7611 3.7676 18.7533C4.32416 19.2769 4.88072 19.7979 5.43729 20.3215C5.4608 20.3005 5.48432 20.2796 5.50784 20.2586C5.20212 19.913 4.89901 19.5701 4.5933 19.2245C4.6142 19.1957 4.63772 19.1695 4.65862 19.1407C4.87811 19.3397 5.0976 19.536 5.3197 19.735C5.33799 19.7167 5.35629 19.6984 5.37458 19.68C4.9565 19.0858 4.53842 18.4941 4.12035 17.8998C4.15432 17.8736 4.18828 17.8501 4.22225 17.8239C4.80495 18.5438 5.38764 19.2664 5.97033 19.9863C5.99124 19.9706 6.01214 19.9575 6.03305 19.9418C5.57839 19.1381 5.12373 18.3344 4.66907 17.5307C4.69782 17.5123 4.72656 17.4966 4.7553 17.4783C5.12896 18.0778 5.5 18.68 5.87365 19.2795C5.91024 19.2612 5.9442 19.2428 5.98079 19.2271C5.66462 18.5046 5.34583 17.7846 5.02966 17.062C5.06363 17.0463 5.10021 17.028 5.13418 17.0123C5.50784 17.7323 5.88149 18.4522 6.25776 19.1721C6.29696 19.1564 6.33615 19.1407 6.37535 19.125C6.05134 18.3344 5.72733 17.5464 5.40332 16.7557C5.42684 16.7453 5.45035 16.7374 5.47387 16.7269C5.62542 16.9966 5.77436 17.2636 5.92591 17.5333C5.96511 17.5176 6.0043 17.5019 6.0435 17.4862C5.91285 17.1589 5.7822 16.8317 5.65155 16.5044L5.7221 16.4756C5.9442 16.8945 6.16631 17.3134 6.41977 17.7898C6.26821 16.9992 6.13234 16.2819 5.99646 15.5672C6.02782 15.5541 6.05918 15.541 6.09053 15.5279C6.26821 15.9363 6.44328 16.3447 6.62097 16.7531C6.65232 16.7479 6.68368 16.7426 6.71503 16.7374C6.67323 16.4573 6.63403 16.1745 6.59222 15.8944C6.61051 15.8892 6.63142 15.8866 6.64971 15.8813C6.72548 16.0881 6.79865 16.295 6.93452 16.6615V15.8551C6.96065 15.8525 6.98678 15.8473 7.01291 15.8447C7.10175 16.2557 7.19321 16.6641 7.28205 17.0751L7.37089 17.0699C7.52506 16.2531 7.67922 15.4363 7.83339 14.6221C7.84906 14.6221 7.86474 14.6221 7.88303 14.6221V15.4939C7.98755 15.4049 8.03981 15.3603 8.05549 15.3446C7.95097 16.5384 7.84123 17.7637 7.73409 18.9915C7.76545 18.9967 7.7968 18.9994 7.83077 19.0046C8.08423 17.8553 8.3403 16.706 8.59376 15.5541C8.63296 15.5619 8.67215 15.5698 8.71135 15.575C8.54673 16.4992 8.38472 17.4233 8.22011 18.3475C8.26191 18.358 8.30372 18.3684 8.34292 18.3763C8.64602 17.4102 8.94913 16.4442 9.25223 15.4808C9.27836 15.486 9.30711 15.4912 9.33323 15.4991C9.085 16.507 8.83677 17.515 8.58854 18.5203C8.61467 18.5307 8.63818 18.5438 8.66431 18.5543C9.00139 17.9574 9.33846 17.3605 9.74347 16.6432C9.83231 17.9103 8.74532 18.5936 8.65125 19.6957C8.98048 19.2297 9.27836 18.803 9.57885 18.3763C9.61282 18.3972 9.64679 18.4182 9.68076 18.4391C9.52921 18.7009 9.37766 18.9601 9.17907 19.3004C9.56579 19.0805 9.87935 18.9025 10.2661 18.6852C9.91593 19.1879 9.60498 19.6382 9.26268 20.133C9.71996 19.9104 10.0936 19.7272 10.5117 19.523C10.0204 20.1487 9.54227 20.7534 9.06671 21.3582C9.09023 21.3765 9.11374 21.3922 9.13726 21.4105C9.80096 20.811 10.4647 20.2141 11.1283 19.6146C11.1519 19.6329 11.178 19.6512 11.2015 19.667C10.8488 20.1225 10.496 20.5754 10.1433 21.0309C10.1615 21.0545 10.1798 21.0754 10.1981 21.099C10.3523 20.9812 10.5038 20.8634 10.6815 20.7246C10.807 21.4838 10.044 21.6383 9.85844 22.1986C10.3941 21.8059 10.9298 21.4132 11.4654 21.0205C11.4811 21.0362 11.4968 21.0519 11.5098 21.0676C10.5535 22.0493 9.59715 23.0337 8.6408 24.0154C8.68522 24.0599 8.72964 24.1018 8.77144 24.1463C9.35153 23.518 9.93422 22.8897 10.5143 22.264C10.5509 22.2928 10.5875 22.3216 10.624 22.3504C10.4281 22.6174 10.2321 22.8871 10.0387 23.1541C10.0623 23.1751 10.0858 23.196 10.1093 23.217C10.5561 22.751 11.0029 22.2876 11.4524 21.8216L11.5595 21.9158C11.4106 22.1252 11.259 22.3347 11.1101 22.5441C11.1257 22.5598 11.1414 22.5755 11.1545 22.5939C11.2695 22.5127 11.387 22.4342 11.6117 22.2771C11.4445 22.552 11.34 22.7222 11.1858 22.9761C11.387 22.8976 11.5177 22.8452 11.6536 22.7902C11.0108 23.6175 10.3784 24.4291 9.74609 25.2407C9.78267 25.2747 9.81925 25.3061 9.85322 25.3401C10.5012 24.7223 11.1493 24.1045 11.7973 23.4866C11.8208 23.5102 11.8469 23.5337 11.8704 23.5599C11.0865 24.5233 10.3026 25.4868 9.51876 26.4502C9.5475 26.4764 9.57624 26.5052 9.60498 26.5313C10.3784 25.8114 11.1493 25.0914 11.9227 24.3715C11.9619 24.4108 12.0037 24.45 12.0429 24.4893C11.7738 24.7878 11.502 25.0862 11.2329 25.3847C11.2564 25.4082 11.2773 25.4318 11.3008 25.4553C11.6039 25.2223 11.9044 24.992 12.2075 24.759C12.2363 24.7878 12.2676 24.8192 12.2964 24.848C11.6196 25.4318 10.9428 26.0156 10.2661 26.602C10.3236 26.6675 10.3784 26.7329 10.4359 26.801C10.9271 26.5601 11.4158 26.3193 11.907 26.0784C11.9122 26.0941 11.9175 26.1098 11.9227 26.1255C11.2773 26.6256 10.6319 27.1282 9.98648 27.6283C10.0152 27.6728 10.044 27.7147 10.0753 27.7592C10.658 27.3979 11.2381 27.034 11.8208 26.6727C11.8443 26.7015 11.8678 26.7329 11.8913 26.7617C11.6248 26.9843 11.3609 27.2094 11.0944 27.4319C11.1101 27.466 11.1257 27.5 11.1414 27.534C11.3583 27.4215 11.5752 27.3089 11.664 27.2644C10.8749 28.1519 10.0022 29.1336 9.12942 30.1154C9.17123 30.1573 9.21565 30.1992 9.25746 30.241C10.1197 29.597 10.982 28.9556 11.8469 28.3116C11.8783 28.3508 11.9096 28.3927 11.9436 28.432C11.4497 28.8875 10.9559 29.3457 10.4594 29.8012C10.4751 29.8248 10.4908 29.8457 10.5065 29.8693C10.8305 29.6756 11.1545 29.4818 11.4785 29.2907C11.4942 29.3116 11.5098 29.3326 11.5255 29.3535C10.8958 29.9321 10.2661 30.5107 9.63634 31.0893C9.66247 31.1207 9.69121 31.1547 9.71734 31.1861C10.4098 30.7411 11.1022 30.296 11.7947 29.8536C11.8156 29.885 11.8365 29.9164 11.8574 29.9504C11.2276 30.4819 10.5953 31.0107 9.96558 31.5422C9.98387 31.5657 10.0022 31.5867 10.0178 31.6103C10.6815 31.2202 11.3478 30.8327 12.0115 30.4426C12.0429 30.4845 12.0769 30.529 12.1082 30.5709C10.4281 31.5945 9.17384 33.0214 8.1391 34.6524C8.07117 34.5843 8.00323 34.5162 7.93529 34.4455C8.65909 33.8696 9.38027 33.2936 10.1041 32.7203C10.8174 32.1548 11.5334 31.5893 12.2859 31.0893C11.5334 31.8642 10.7808 32.6417 10.0283 33.4167C10.0518 33.4402 10.0753 33.4664 10.0988 33.49C10.7442 33.0292 11.387 32.5684 12.1317 32.037C11.1989 32.9821 10.3601 33.8303 9.52137 34.6812C9.55011 34.71 9.57885 34.7388 9.6076 34.7702C10.4464 34.1261 11.2851 33.4821 12.1239 32.8381C12.15 32.8721 12.1762 32.9088 12.2023 32.9428C11.6718 33.4324 11.1414 33.9219 10.6136 34.4115C10.6319 34.4429 10.6528 34.477 10.6711 34.5084C11.2564 34.2178 11.8417 33.9272 12.427 33.6366C12.4322 33.6575 12.4375 33.6759 12.4401 33.6968C11.5255 34.4298 10.611 35.1603 9.69644 35.8933C9.71473 35.9142 9.73302 35.9352 9.75131 35.9561C10.6084 35.4875 11.4654 35.0163 12.3251 34.5476C12.3329 34.5712 12.3408 34.5948 12.3486 34.6183C11.4968 35.2728 10.6476 35.9299 9.79573 36.5844C9.82709 36.6237 9.85844 36.6656 9.8898 36.7049C10.5901 36.2729 11.2904 35.8383 11.9906 35.4063L12.0716 35.532C10.3392 36.6368 9.10329 38.1997 8.03981 39.9276C9.34891 38.4144 10.6476 36.9038 12.5263 36.3331C11.8809 36.8724 11.0944 37.4327 10.4333 38.1134C9.77483 38.7914 9.24178 39.5899 8.72441 40.3962C9.79312 39.2941 10.8723 38.2338 12.3225 37.5688C11.4733 38.3778 10.6685 39.1448 9.86106 39.9145C9.89764 39.9564 9.93422 39.9983 9.96819 40.0428C10.5483 39.6161 11.131 39.192 11.711 38.7652C11.7581 38.8176 11.8051 38.87 11.8521 38.9223C11.05 39.6396 10.2478 40.3544 9.44559 41.0717C9.50308 41.1345 9.56318 41.1974 9.62066 41.2602C10.3837 40.5638 11.1231 39.8255 12.2101 39.658C10.9663 40.2418 10.1615 41.2602 9.46388 42.3885C9.95774 41.9932 10.4542 41.5979 10.9481 41.2026C10.9846 41.2471 11.0238 41.2916 11.0604 41.3361C9.59192 42.399 9.07455 43.996 8.61467 45.6296C9.42208 44.3468 10.2112 43.0614 11.5961 42.2995C10.4751 43.3179 9.74347 44.5877 9.21304 45.9909C9.88196 44.9777 10.4908 43.9175 11.5987 43.4855C11.293 43.8311 10.8775 44.2238 10.5587 44.6845C10.2399 45.1453 10.0178 45.6741 9.81402 46.203C10.381 45.5773 10.9481 44.9542 11.5151 44.3285C11.5517 44.3599 11.5882 44.3913 11.6222 44.4201C11.2904 44.8573 10.9271 45.2736 10.6371 45.737C10.3392 46.2108 10.1145 46.7318 9.92115 47.258C10.462 46.669 11.0029 46.0773 11.5438 45.4883C11.5935 45.5301 11.6457 45.572 11.6954 45.6113C10.9899 46.3496 10.3941 47.1507 10.1589 48.0513C10.7469 47.4648 11.3818 46.8313 12.0168 46.1951C12.0795 46.2501 12.1448 46.3025 12.2075 46.3574C11.0029 47.1481 10.4856 48.3183 10.2791 49.664C10.6737 48.6691 11.1911 47.7685 12.0925 47.1245C11.4106 48.0382 10.8435 48.9964 10.7625 50.1718C11.1205 49.4545 11.3008 48.6063 12.0377 48.3707C11.7555 48.8838 11.4158 49.5016 11.0761 50.1195L11.2094 50.1928C11.6562 49.7687 12.1056 49.3446 12.5524 48.9204C12.6099 48.9676 12.6674 49.0147 12.7249 49.0618C11.9227 49.5697 11.4863 50.2713 11.4471 51.3211C11.988 50.5645 12.542 49.9912 13.4225 49.9781C13.1221 50.1509 12.7693 50.2923 12.4976 50.5279C12.2232 50.7661 12.0272 51.0986 11.826 51.4442C12.5629 51.0567 13.2605 51.0175 13.8249 51.4102C13.4121 51.4573 12.8581 51.4102 12.3956 51.5987C11.8365 51.8264 11.7163 52.4181 11.6954 52.8658C12.1657 52.7008 12.6543 52.3814 13.1299 52.3998C13.6133 52.4181 14.0836 52.7715 14.5592 52.9757C14.5357 53.0307 14.5122 53.0857 14.4886 53.1407C14.1908 53.0176 13.8981 52.8736 13.5898 52.7741C12.6674 52.4705 12.0716 52.9469 12.1343 53.9182C12.1396 54.0177 12.1396 54.1198 12.1735 54.2114C12.8033 55.9262 13.7805 57.3635 15.4946 58.2876C15.9362 57.641 16.3621 57.0101 16.7959 56.3817C17.1486 55.8712 17.376 55.8293 17.8489 56.2377C18.4029 56.7142 18.9281 57.2247 19.4716 57.7117C22.4713 60.4082 25.9988 61.8429 30.0071 62.178C33.5712 62.4738 37.0229 62.0916 40.3022 60.6046C42.3534 59.6726 44.125 58.3217 45.7268 56.743C45.8391 56.6331 45.9567 56.5257 46.0743 56.421C46.8059 55.7717 46.9287 55.7901 47.4775 56.5938C47.8537 57.1462 48.2326 57.6934 48.635 58.2798C50.3779 57.3295 51.4387 55.8765 51.9483 54.0491C52.2279 53.049 51.4753 52.4521 50.4824 52.7925C50.1061 52.9234 49.756 53.1276 49.3902 53.3004C50.3831 52.1668 51.3551 52.0804 52.382 53.0333C52.4317 51.7008 51.6635 51.1798 50.1845 51.5358C50.7986 51.0515 51.3264 51.0306 52.2174 51.4547C51.9718 50.7033 51.6817 50.431 50.5947 49.9703C51.5537 50.0148 52.1364 50.5279 52.6668 51.3814C52.6303 50.2844 52.2043 49.5854 51.4126 49.0801C51.457 49.033 51.5014 48.9859 51.5459 48.9414C52.0058 49.3681 52.4683 49.7922 53.0117 50.2949C52.7661 49.677 52.544 49.1142 52.3141 48.5356C52.9203 48.9283 53.0797 49.6142 53.3227 50.2635C53.4089 49.5514 53.2521 49.1796 51.9483 47.0276C52.9386 47.7607 53.4507 48.6848 53.8427 49.698C53.618 48.3445 53.1529 47.1324 51.8202 46.3234C52.6721 46.5564 53.0588 46.9124 53.9158 48.1848C53.9002 47.546 53.5526 46.936 52.4578 45.6218C52.4996 45.5825 52.5414 45.5458 52.5832 45.5066C53.1293 46.1035 53.6754 46.7004 54.232 47.3078C53.8949 46.2108 53.2626 45.2867 52.4787 44.4489C52.5205 44.4096 52.5649 44.373 52.6067 44.3337C53.1764 44.9568 53.746 45.5799 54.3209 46.2108C53.955 45.0929 53.3253 44.1635 52.3559 43.4645C53.7016 43.9384 54.3208 45.106 55.0133 46.2108C54.4515 44.729 53.7146 43.3651 52.5231 42.2864C53.9707 43.1268 54.8278 44.4699 55.5986 45.8967C55.123 44.174 54.6083 42.4749 53.0745 41.3309C53.1084 41.2864 53.1424 41.2445 53.1764 41.2C53.6754 41.5953 54.1745 41.9932 54.8016 42.4906C53.9603 41.268 53.1581 40.2287 51.8699 39.6763C51.8934 39.6318 51.9169 39.5873 51.9378 39.5428C52.382 39.7653 52.8471 39.9538 53.2652 40.2208C53.6702 40.48 54.023 40.8177 54.4829 41.0377C53.712 40.2863 52.9386 39.5323 52.1678 38.7809C52.2017 38.7417 52.2331 38.705 52.267 38.6658C52.8968 39.1239 53.5265 39.5821 54.1562 40.0402C54.1928 40.0062 54.2268 39.9721 54.2634 39.9381C53.4612 39.1658 52.6616 38.3909 51.8333 37.5898C53.2809 38.2181 54.3235 39.3229 55.3843 40.4172C54.441 38.8359 53.3462 37.4013 51.7366 36.4352C53.6232 37.0609 54.8461 38.5113 56.0924 39.9433C55.042 38.2076 53.7852 36.6604 52.0632 35.532C52.092 35.4927 52.1181 35.4509 52.1469 35.4116C52.8471 35.8462 53.5474 36.2808 54.2477 36.7153C54.279 36.6735 54.3078 36.6316 54.3391 36.5923C53.4873 35.9352 52.6329 35.2754 51.7366 34.5843C52.2279 34.8068 52.7008 34.9848 53.1398 35.2283C53.5605 35.4613 53.9472 35.7572 54.3496 36.0242C54.3783 35.9849 54.4097 35.9483 54.4384 35.909C53.5291 35.1786 52.6198 34.4482 51.5981 33.6235C51.9875 33.7937 52.2723 33.9062 52.544 34.0424C52.8393 34.1916 53.1241 34.3618 53.3671 34.4979C52.9569 34.0162 52.5179 33.5004 52.0789 32.9821C52.0894 32.9638 52.0998 32.9454 52.1103 32.9245C52.8706 33.5057 53.6336 34.0843 54.394 34.6655L54.4724 34.5817C53.6781 33.7622 52.8837 32.9402 52.0658 32.0972C52.7217 32.5658 53.3697 33.0266 54.0151 33.4847C54.0386 33.4638 54.0622 33.4429 54.0831 33.4219C53.3279 32.6574 52.5754 31.893 51.7627 31.0683C53.4769 31.9846 54.6997 33.3538 55.9461 34.6995C54.9506 33.0161 53.6807 31.5945 52.0005 30.5631C52.0293 30.5185 52.0554 30.4767 52.0841 30.4322C52.7609 30.8275 53.4377 31.2228 54.117 31.6181C54.1353 31.5998 54.1536 31.5788 54.1719 31.5605C53.5317 31.0212 52.8942 30.4793 52.254 29.94L52.3115 29.8457C53.0065 30.2908 53.7042 30.7385 54.3992 31.1835C54.4254 31.1573 54.4489 31.1312 54.475 31.105C53.8505 30.5212 53.226 29.9347 52.6015 29.3509C52.6093 29.3352 52.6172 29.3195 52.625 29.3038C52.8576 29.4268 53.0901 29.5499 53.3227 29.6703C53.3514 29.6389 53.3802 29.6101 53.4089 29.5787C52.9255 29.1284 52.4395 28.6781 51.9535 28.2278C51.977 28.1964 52.0031 28.165 52.0267 28.1336C53.0013 28.8614 53.9785 29.5918 54.9532 30.3196C54.9898 30.2908 55.0237 30.2594 55.0603 30.2306C54.185 29.2279 53.3096 28.2252 52.5127 27.3115C52.578 27.3429 52.7766 27.4345 52.9752 27.5288C52.9961 27.5026 53.0144 27.4738 53.0353 27.4476C52.7635 27.2199 52.4892 26.9947 52.2174 26.767C52.2357 26.7355 52.2566 26.7067 52.2749 26.6753C52.8576 27.0366 53.4429 27.3979 54.0256 27.7566C54.0517 27.7199 54.0778 27.6833 54.1066 27.6466C53.537 27.1832 52.9699 26.7198 52.4003 26.2564C52.4108 26.2276 52.4212 26.1989 52.4317 26.1701C52.8706 26.4031 53.307 26.6361 53.746 26.8691C53.7956 26.8167 53.8453 26.7617 53.8975 26.7094C53.2208 26.1334 52.544 25.5601 51.8673 24.9841C51.9117 24.937 51.9561 24.8925 52.0031 24.8453C52.2435 25.0234 52.4839 25.2014 52.7269 25.382C52.7557 25.3532 52.7818 25.3244 52.8105 25.2956C52.4473 24.9946 52.0868 24.6961 51.7235 24.3951C51.7941 24.3217 51.862 24.2484 51.9326 24.1778C52.7975 24.9632 53.6598 25.7459 54.5247 26.5313C54.5508 26.513 54.5769 26.4973 54.6057 26.479C53.8505 25.5417 53.0954 24.6045 52.3428 23.6672C52.369 23.6411 52.3951 23.6123 52.4238 23.5861C53.0431 24.1778 53.665 24.7668 54.2843 25.3585C54.3209 25.3271 54.3548 25.2983 54.3914 25.2668C53.7591 24.4526 53.1241 23.6385 52.463 22.7902C52.6067 22.8583 52.7295 22.9185 52.9726 23.0363C52.7766 22.7379 52.6381 22.5258 52.5022 22.3164L52.544 22.2771C52.6851 22.3975 52.8262 22.5179 52.9673 22.6384C52.9935 22.6201 53.0196 22.6043 53.0457 22.586C52.8628 22.3425 52.6773 22.0991 52.4944 21.8556C52.5388 21.8137 52.5832 21.7718 52.6276 21.7299C53.0379 22.2143 53.4455 22.6986 53.8557 23.1829C53.9054 23.1384 53.9524 23.0965 54.0021 23.052C53.8035 22.8007 53.6049 22.5494 53.4089 22.298C53.4429 22.2666 53.4769 22.2326 53.5108 22.2012C54.1249 22.8531 54.7415 23.5076 55.3556 24.1594C54.7206 22.9578 53.5892 22.1802 52.7661 21.1252C53.2966 21.5153 53.827 21.908 54.3574 22.298C54.3705 22.2876 54.3862 22.2771 54.3992 22.2666C54.0334 21.8137 53.6676 21.3608 53.3044 20.9079C53.3514 20.866 53.3959 20.8241 53.4429 20.7822C53.5657 20.8581 53.6859 20.9314 53.8087 21.0074C53.8374 20.9864 53.8636 20.9629 53.8923 20.9419C53.5709 20.5283 53.2495 20.112 52.9281 19.6984C52.9464 19.68 52.9647 19.6591 52.983 19.6408C53.6153 20.1958 54.2477 20.7508 54.8774 21.3058C54.6187 20.7691 54.3522 20.2167 54.0883 19.6643C54.117 19.6382 54.1484 19.612 54.1771 19.5858C54.4097 19.8424 54.6422 20.0963 54.995 20.4864C54.6213 19.79 54.3313 19.2481 54.0386 18.7035C54.0883 18.6721 54.1379 18.6381 54.1876 18.6067C54.3052 18.6957 54.4228 18.7873 54.5403 18.8763C54.5639 18.8554 54.5874 18.837 54.6109 18.8161C54.522 18.659 54.4332 18.5019 54.347 18.3422C54.3809 18.3187 54.4149 18.2977 54.4463 18.2742C54.7886 18.7559 55.1309 19.2376 55.4732 19.7167C55.4993 19.7062 55.5254 19.6931 55.5516 19.6827C55.1544 18.824 54.7546 17.9679 54.3574 17.1092C54.4332 17.0725 54.5116 17.0359 54.5874 16.9992C54.9218 17.6275 55.2563 18.2532 55.5908 18.8816C55.6064 18.8763 55.6221 18.8711 55.6378 18.8658C55.3922 17.9234 55.1465 16.9809 54.9009 16.0358C54.9375 16.0253 54.9767 16.0148 55.0133 16.0018C55.272 16.8055 55.5307 17.6118 55.7893 18.4155C55.8285 18.4077 55.8677 18.3998 55.9043 18.3894C55.7449 17.4783 55.5855 16.5672 55.4235 15.6562C55.4627 15.6483 55.5019 15.6405 55.5411 15.6326C55.7998 16.8055 56.0559 17.9783 56.3146 19.1486C56.3381 19.1486 56.3616 19.146 56.3851 19.1434C56.2806 17.8893 56.1787 16.6379 56.0742 15.3839C56.0951 15.4022 56.1447 15.4467 56.2309 15.5279V14.753C56.2545 14.753 56.2806 14.7477 56.3041 14.7451C56.4557 15.5515 56.6072 16.3604 56.7901 17.3238C56.9181 16.7008 57.0174 16.2243 57.1141 15.7478L57.1794 15.753C57.1429 16.1431 57.1063 16.5306 57.0697 16.9207C57.0932 16.9259 57.1193 16.9338 57.1429 16.939C57.25 16.5699 57.3545 16.2007 57.4616 15.8342C57.4799 15.8342 57.4982 15.8394 57.5191 15.8394C57.4826 16.1327 57.446 16.4259 57.4068 16.7191C57.4329 16.7296 57.4616 16.7374 57.4878 16.7479C57.6733 16.3342 57.8562 15.918 58.0417 15.5043C58.0679 15.5122 58.094 15.5227 58.1201 15.5305C58.047 15.7792 57.9738 16.0279 57.8588 16.4102C58.0287 16.2138 58.1149 16.1143 58.2873 15.9154C58.0391 16.5882 57.8405 17.1353 57.6393 17.6799C57.6707 17.6956 57.7047 17.7113 57.736 17.727C57.9189 17.3814 58.1018 17.0359 58.2847 16.6903C58.3109 16.7008 58.3344 16.7086 58.3605 16.7191C58.2377 17.0542 58.1123 17.3867 57.9895 17.7218L58.0835 17.7689C58.2664 17.4286 58.4494 17.0882 58.6297 16.7505C58.6558 16.761 58.6819 16.7714 58.708 16.7819C58.3527 17.6406 57.9947 18.4967 57.6393 19.3554C57.6733 19.3711 57.7073 19.3868 57.7439 19.4052C58.1175 18.6878 58.4912 17.9705 58.8622 17.2558C58.8988 17.2689 58.9328 17.2846 58.9693 17.2977C58.7211 17.8789 58.4755 18.4601 58.2272 19.0439C58.2664 19.0648 58.303 19.0884 58.3422 19.1093C58.6061 18.7009 58.8727 18.2925 59.1366 17.8841C59.1653 17.8998 59.194 17.9155 59.2228 17.9286C58.9354 18.4653 58.6479 19.002 58.3579 19.5361C58.3945 19.5622 58.4311 19.5884 58.465 19.6146C58.9275 19.0308 59.3926 18.4443 59.8551 17.8605C59.8891 17.8841 59.9257 17.905 59.9597 17.9286C59.5259 18.5517 59.0921 19.1774 58.661 19.8005C58.6741 19.8188 58.6871 19.8371 58.6976 19.8554C58.9171 19.6539 59.1339 19.4523 59.3534 19.2507C59.377 19.2716 59.3979 19.2952 59.4214 19.3161C59.1313 19.6591 58.8413 20.0021 58.5486 20.3476C58.58 20.3764 58.6087 20.4052 58.6401 20.4314C59.2176 19.879 59.7924 19.3266 60.4352 18.7114C59.8499 19.4785 59.309 20.1906 58.7943 20.8634C59.1758 20.4995 59.5886 20.1068 60.0015 19.7115C60.0276 19.7324 60.0537 19.7533 60.0825 19.7743C59.2646 20.866 58.4467 21.9577 57.6289 23.0494C57.6472 23.0703 57.6628 23.0913 57.6811 23.1096C58.6871 22.3321 59.6957 21.5519 60.7017 20.7744C60.7279 20.7979 60.7514 20.8215 60.7775 20.845C60.5711 21.0728 60.3673 21.298 60.0668 21.6304C60.315 21.5336 60.4483 21.4786 60.639 21.4053C60.3934 21.8844 60.1739 22.3111 59.9544 22.7379C60.0302 22.7248 60.1243 22.7064 60.2445 22.6855C59.7036 23.3793 59.1888 24.039 58.6741 24.6987C58.7054 24.7275 58.7368 24.7537 58.7707 24.7825C59.1522 24.382 59.5337 23.9788 59.9152 23.5782C59.944 23.5992 59.9753 23.6201 60.0041 23.6437C59.5703 24.3087 59.1339 24.971 58.7002 25.636C58.7629 25.691 58.8256 25.7459 58.8883 25.8009C59.3979 25.1988 59.91 24.594 60.4195 23.9919C60.4744 24.0442 60.5319 24.0966 60.5868 24.1463C60.2784 24.5181 59.9701 24.8899 59.6618 25.2616C59.6827 25.2773 59.7036 25.293 59.7245 25.3087C60.268 24.8925 60.8141 24.4762 61.3576 24.0599C61.368 24.0783 61.3785 24.0966 61.389 24.1175C60.5554 25.0496 59.7245 25.9816 58.8909 26.9136C58.9223 26.945 58.951 26.9738 58.9824 27.0052C59.7532 26.4476 60.5267 25.8899 61.2975 25.3297L61.3968 25.4553C60.4248 26.2538 59.4318 27.034 58.8335 28.165C59.8081 27.3639 60.7801 26.5628 61.7522 25.7643C61.7809 25.8009 61.8123 25.8376 61.841 25.8742C60.9735 26.7643 60.106 27.6545 59.2385 28.5446C59.2855 28.5943 59.3299 28.6441 59.377 28.6964C60.0851 27.9791 60.8428 27.3455 62.003 27.1413C59.9022 28.2723 58.7655 30.0656 57.7909 31.9951C58.7786 30.4138 59.9361 28.9844 61.5144 27.9267C61.0806 28.4215 60.6469 28.9137 60.2131 29.4085C60.234 29.4295 60.2549 29.4504 60.2784 29.4687C60.8585 29.097 61.4386 28.7226 62.0187 28.3508C62.0265 28.3666 62.0344 28.3823 62.0422 28.398C61.193 29.1991 60.3464 30.0002 59.4972 30.8013C59.5233 30.8327 59.552 30.8667 59.5782 30.8982C60.4326 30.3536 61.2844 29.8117 62.1389 29.2671C62.1441 29.2829 62.1493 29.2986 62.1546 29.3143C61.0597 30.3117 59.9649 31.3092 58.87 32.3093C58.9092 32.3511 58.9458 32.3957 58.985 32.4375C59.9936 31.6574 61.0022 30.8746 62.0108 30.0944C62.0422 30.1311 62.0762 30.1704 62.1075 30.207C61.6502 30.6311 61.1956 31.0552 60.7383 31.482C60.7566 31.5081 60.7749 31.5317 60.7932 31.5579C61.1695 31.2804 61.5431 31.0055 61.9194 30.728C61.9377 30.7463 61.956 30.7646 61.9769 30.7856C61.4778 31.3301 60.9761 31.8747 60.477 32.4166C60.5005 32.4454 60.5241 32.4742 60.5502 32.5056C61.0127 32.1862 61.4778 31.8642 61.9403 31.5448C60.882 32.5815 59.9205 33.6654 59.2176 34.9665C60.1008 34.0764 60.9839 33.1837 61.8671 32.2935C61.9037 32.3302 61.9377 32.3642 61.9743 32.4009C61.0963 33.5292 60.221 34.6576 59.343 35.786C59.3796 35.8148 59.4162 35.8462 59.4553 35.875C60.2706 35.011 61.0885 34.1471 61.9037 33.2805C61.9351 33.3093 61.969 33.3381 62.0004 33.3669C61.1512 34.5241 60.3046 35.6812 59.4553 36.8384C59.4945 36.8672 59.5337 36.8986 59.5729 36.9274C60.4718 35.9247 61.3707 34.922 62.2695 33.9219C62.3139 33.956 62.3584 33.99 62.4002 34.0214C61.1851 35.6027 59.9414 37.163 59.2202 39.0532C60.1765 37.4693 61.3445 36.0713 62.8 34.8304C61.6633 36.4562 60.5711 38.0191 59.4789 39.5847L59.6147 39.6972C60.7148 38.5218 61.8959 37.4641 63.4454 36.9222C61.9298 37.8777 60.72 39.1422 59.6957 40.6031C60.72 39.6213 61.7077 38.5951 63.1579 38.2364C61.564 39.0506 60.5423 40.4224 59.5573 41.844C60.8716 40.7732 62.1755 39.7051 64.1117 39.5323C61.875 40.1842 60.5032 41.755 59.0712 43.2682C60.6155 42.4383 62.165 41.666 63.887 41.7707C63.1971 41.9932 62.408 42.1843 61.6712 42.5011C60.9369 42.8179 60.2523 43.2577 59.5729 43.708C61.1015 43.2813 62.604 42.7786 64.3338 42.9854C62.0056 43.3101 59.9414 43.996 58.1515 45.4019C59.8473 44.5798 61.6215 44.0824 63.2964 44.0405C61.7678 44.585 60.0563 45.1977 58.3448 45.8076C58.3657 45.8836 58.3866 45.9595 58.4075 46.038C60.0224 45.449 61.6607 45.1479 63.3617 45.5092C62.037 45.5144 60.754 45.716 59.4841 46.1951C60.7801 46.3155 62.0265 46.4281 63.2755 46.5433C63.2703 46.5852 63.2651 46.6245 63.2598 46.6664H60.5214C61.6267 46.7946 62.6928 46.9203 63.7615 47.0433C63.7615 47.0957 63.7589 47.1481 63.7563 47.2004C61.4935 46.9098 59.343 47.2423 57.3362 48.3523C59.194 47.6952 61.0702 47.491 62.9855 48.1036C61.2531 47.8994 59.5938 48.1691 57.9869 48.8262C59.6147 48.4937 61.2374 48.3052 62.813 48.7241C61.6293 48.8236 60.3986 48.9283 59.1679 49.0304C59.1705 49.1116 59.1731 49.1953 59.1758 49.2765H62.7581C62.7581 49.3236 62.7581 49.3707 62.7581 49.4205C61.7809 49.4833 60.7984 49.4885 59.8316 49.6273C58.87 49.7634 57.9294 50.0331 56.9965 50.3394C59.0085 49.8682 61.0231 49.6509 63.0508 49.9729C61.8332 50.1064 60.5946 50.2425 59.3561 50.3787C59.3561 50.4127 59.3561 50.4467 59.3587 50.4781C60.2 50.6405 61.0388 50.8028 61.8802 50.9651C61.8776 51.0175 61.8723 51.0724 61.8697 51.1248C59.8996 50.6797 58.0287 51.0175 56.2048 51.7976C57.932 51.3892 59.586 51.5803 61.3053 52.3971C60.4927 52.2689 59.8212 52.1223 59.1418 52.0699C58.465 52.0175 57.7804 52.0594 57.0984 52.0594C57.0984 52.1092 57.1011 52.1563 57.1037 52.206C58.2508 52.405 59.4005 52.604 60.5476 52.8029C60.5397 52.8658 60.5293 52.9312 60.5214 52.994C58.9798 52.7951 57.4329 52.5097 55.9513 53.2689C56.372 53.1721 56.7875 53.0255 57.2134 52.9914C57.817 52.9417 58.4389 52.8946 59.032 52.9862C59.9205 53.1223 60.1112 53.4862 59.9283 54.3633C59.9048 54.4758 59.8865 54.591 59.8342 54.8764C59.8055 54.6591 59.7924 54.6015 59.7924 54.5465C59.8081 53.4365 59.6539 53.248 58.546 53.3004C57.932 53.3291 57.3232 53.4915 56.6098 53.6119C57.4172 53.8449 58.0861 54.0386 58.7577 54.2324C58.7498 54.2559 58.7394 54.2821 58.7316 54.3057C57.9529 54.2114 57.1768 54.1198 56.3982 54.0255C56.3773 54.0936 56.3537 54.1591 56.3328 54.2271C56.9835 54.6146 57.6236 55.0099 57.9241 55.8843C56.3982 54.2716 54.8487 54.2062 53.111 55.5571L53.1372 55.5466ZM45.7006 61.6622C45.651 61.5235 45.6353 61.4423 45.5961 61.3795C45.2016 60.7433 44.8305 60.0914 44.3811 59.4945C44.2766 59.3532 43.8428 59.3008 43.6704 59.4003C42.7976 59.8951 41.9562 60.4449 41.1123 60.9894C40.8013 61.191 40.7334 61.4816 40.9372 61.8088C41.2925 62.3769 41.6427 62.9477 42.0085 63.5105C42.2097 63.8195 42.4945 63.9059 42.8238 63.7017C43.6756 63.1676 44.53 62.6387 45.3688 62.0863C45.5177 61.9895 45.6013 61.7931 45.698 61.6649L45.7006 61.6622ZM22.986 60.9135C21.8886 60.2826 21.0315 61.3271 20.0308 61.2172C19.9707 60.5941 19.8949 59.971 19.8583 59.3427C19.8348 58.9317 19.7303 58.6175 19.2416 58.5128C18.6589 59.382 18.0736 60.2537 17.4674 61.1543C17.6765 61.2695 17.8228 61.3507 17.9822 61.4397C18.3846 60.8611 18.7661 60.314 19.2103 59.6726C19.3044 60.5601 19.3827 61.2957 19.4664 62.0863C20.2607 61.8403 20.9662 61.623 21.8259 61.3585C21.3634 62.0602 20.9897 62.623 20.5899 63.2304C20.799 63.3692 20.9688 63.4817 21.17 63.6126C21.7815 62.7016 22.3615 61.8403 22.986 60.9135ZM34.8803 63.3351C35.7896 63.1807 36.6362 63.0367 37.4828 62.8927L37.5743 62.7356C37.4332 62.623 37.2764 62.4005 37.151 62.4188C36.1215 62.5576 35.0998 62.7409 34.0128 62.9189C34.1826 63.9923 34.3446 65.0159 34.5171 66.1128C35.6982 65.9217 36.8322 65.7411 38.0159 65.55C37.9506 65.3274 37.9061 65.1677 37.8591 65.0054C36.9472 65.1416 36.0797 65.2725 35.1886 65.406C35.1416 65.097 35.1102 64.8693 35.0711 64.6101C35.4264 64.5446 35.7295 64.4713 36.0379 64.4347C36.3932 64.3902 36.746 64.3719 36.4873 63.8404C35.9856 63.9085 35.4891 63.9765 34.9639 64.0472C34.9326 63.7907 34.909 63.5996 34.8777 63.3351H34.8803ZM32.6358 64.0315C32.688 63.1126 32.6018 62.9974 31.7709 62.9372C31.081 62.8875 30.3912 62.8822 29.7014 62.843C29.2467 62.8194 28.9854 62.9896 28.9645 63.4713C28.9358 64.1022 28.8888 64.7331 28.8548 65.3641C28.8313 65.8013 29.0664 66.0291 29.4871 66.0578C30.2553 66.1102 31.0236 66.1442 31.7918 66.1861C32.2673 66.2123 32.5208 66.0133 32.5704 65.5133C32.6279 64.94 32.2151 65.0159 31.8675 64.9426C31.831 65.1599 31.797 65.3641 31.7578 65.6049C31.0209 65.5526 30.3233 65.5002 29.6152 65.4505C29.6596 64.7331 29.6988 64.0917 29.738 63.4739C30.2527 63.4739 30.7022 63.4896 31.1516 63.4686C31.6062 63.4477 31.9721 63.5158 31.9668 64.0944C32.2098 64.0734 32.4006 64.0551 32.6358 64.0341V64.0315ZM27.2687 65.7934C26.9734 64.6075 26.72 63.4608 26.3725 62.3455C26.3254 62.1911 25.6696 62.0209 25.5206 62.1387C24.6218 62.8587 23.7882 63.6598 22.9181 64.4452C23.3362 64.7043 23.6367 64.7227 23.9633 64.3719C24.2899 64.021 26.2888 64.6258 26.3463 65.0997C26.4116 65.6573 26.7592 65.728 27.2687 65.7934ZM40.3388 64.7305C39.9808 63.7043 39.6333 62.7121 39.2779 61.6963C39.014 61.7931 38.8024 61.8743 38.5672 61.9633C38.933 63 39.2832 63.9922 39.6411 65.008C39.9051 64.9033 40.101 64.8274 40.3388 64.7331V64.7305Z" fill="white"/>
<path d="M76.1262 36.4664V57.1277H71.0439V31.1074H80.5212C82.0132 36.1968 83.5104 41.3123 85.0077 46.4279C85.0469 46.4279 85.0861 46.4253 85.1253 46.4227C85.6061 44.8702 86.0895 43.3177 86.5676 41.7626C87.605 38.388 88.6476 35.0134 89.6692 31.6336C89.7947 31.2173 89.9697 31.055 90.4348 31.0576C93.2203 31.0838 96.0031 31.0707 98.7885 31.0707H99.3582V57.1303H93.2412V36.3905C93.2046 36.3827 93.1654 36.3748 93.1288 36.3669C92.9668 36.8722 92.8022 37.3775 92.6454 37.8828C90.7301 44.1215 88.8096 50.3575 86.9073 56.5988C86.7793 57.0177 86.6094 57.1983 86.1391 57.1774C85.1148 57.1355 84.0853 57.1381 83.0584 57.1774C82.6142 57.1931 82.4548 57.0308 82.332 56.625C80.3644 50.0486 78.3786 43.4774 76.3979 36.9063C76.3483 36.7439 76.2986 36.5842 76.2464 36.4219C76.2046 36.435 76.1628 36.4481 76.1236 36.4612L76.1262 36.4664Z" fill="white"/>
<path d="M206.553 43.7803C206.553 47.4166 205.853 50.4483 204.053 53.1789C202.218 55.9644 199.592 57.3258 196.316 57.5352C192.927 57.7525 189.93 56.92 187.661 54.2261C186.224 52.5217 185.278 50.553 184.792 48.3801C184.04 45.0186 184.082 41.6754 185.174 38.3846C186.917 33.1302 190.672 30.5201 196.182 30.7034C200.551 30.85 203.347 33.2062 205.09 37.0494C206.117 39.3166 206.6 41.6963 206.556 43.7803H206.553ZM190.538 44.1127C190.583 44.1232 190.627 44.1337 190.672 44.1415C190.745 45.1259 190.784 46.1129 190.904 47.0894C191.061 48.3696 191.369 49.6158 192.085 50.7179C193.731 53.2495 197.35 53.1998 198.876 50.6001C199.211 50.0294 199.462 49.388 199.632 48.7466C200.227 46.5056 200.235 44.2175 200.044 41.9241C199.916 40.3795 199.652 38.861 198.806 37.5232C197.282 35.1225 193.846 35.0309 192.216 37.3635C191.847 37.8871 191.508 38.4945 191.377 39.1097C191.032 40.7617 190.81 42.4398 190.538 44.1075V44.1127Z" fill="white"/>
<path d="M158.228 41.401H167.912V46.294H158.241V51.962H170.58V57.1325H151.98V31.1201H170.582V36.076H158.228V41.3984V41.401Z" fill="white"/>
<path d="M110.317 31.0759C112.595 31.0759 114.827 31.0864 117.055 31.0654C117.458 31.0628 117.487 31.3142 117.568 31.5733C118.681 35.1312 119.796 38.6864 120.907 42.2443C122.402 47.0274 123.894 51.8078 125.386 56.5909C125.438 56.7585 125.477 56.9313 125.532 57.1355H118.963C118.503 55.5778 118.02 54.0174 117.586 52.444C117.455 51.9728 117.278 51.7869 116.755 51.7947C114.367 51.8288 111.976 51.8209 109.588 51.8C109.143 51.7947 108.934 51.9021 108.804 52.3602C108.393 53.8211 107.931 55.2688 107.468 56.7166C107.414 56.8867 107.233 57.1459 107.11 57.1485C105.42 57.1773 103.727 57.1669 101.971 57.1669C104.761 48.4437 107.529 39.786 110.317 31.0733V31.0759ZM115.94 46.9488C115.03 43.9381 114.145 41.0034 113.209 37.9063C112.268 41.0165 111.377 43.9617 110.473 46.9488H115.94Z" fill="white"/>
<path d="M148.501 40.809C146.335 40.9452 144.255 41.0761 142.151 41.2096C142.034 40.4425 141.968 39.699 141.804 38.9791C141.151 36.1385 138.36 34.8295 135.852 36.1699C134.856 36.7014 134.276 37.581 133.881 38.5994C133.105 40.6101 133.016 42.7228 133.058 44.8407C133.09 46.4613 133.194 48.0792 133.745 49.6264C134.354 51.3334 135.776 52.4408 137.482 52.5403C139.549 52.6633 140.96 51.8936 141.799 50.0898C142.146 49.3463 142.353 48.5347 142.661 47.6472C144.508 47.7572 146.447 47.8724 148.483 47.9928C148.428 48.3986 148.391 48.7599 148.328 49.1159C147.448 54.0954 143.557 57.3993 138.509 57.5564C134.893 57.6689 131.783 56.6244 129.35 53.8624C127.707 51.9957 126.839 49.7757 126.479 47.3436C126.042 44.3957 126.108 41.4688 127.059 38.6204C128.851 33.2404 132.951 30.4679 138.715 30.7088C141.613 30.8292 144.179 31.7193 146.053 34.0755C147.354 35.7118 147.978 37.6334 148.334 39.6597C148.394 40.0079 148.436 40.3614 148.501 40.8064V40.809Z" fill="white"/>
<path d="M174.272 31.1045H180.301V57.1431H174.272V31.1045Z" fill="white"/>
<path d="M163.995 16.8283C164.792 18.742 165.573 20.6113 166.399 22.5905C165.278 22.5905 164.222 22.6062 163.172 22.5695C163.041 22.5643 162.877 22.292 162.804 22.114C162.239 20.7055 161.68 19.2918 161.15 17.8676C161.027 17.5404 160.873 17.4069 160.517 17.4278C159.968 17.4592 159.417 17.4357 158.793 17.4357V22.5591H155.704V9.52669C155.79 9.50575 155.861 9.47433 155.934 9.47433C158.066 9.47695 160.201 9.43244 162.331 9.50313C165.14 9.59738 166.838 11.9038 166.109 14.5323C165.808 15.6214 165.051 16.3047 163.995 16.8257V16.8283ZM158.824 11.8829V15.0768C159.825 15.0768 160.789 15.1344 161.743 15.0585C162.563 14.9931 163.086 14.2365 163.049 13.3647C163.015 12.5557 162.469 11.9352 161.643 11.8934C160.721 11.8462 159.793 11.8829 158.824 11.8829Z" fill="white"/>
<path d="M85.8674 17.4355V22.5511H82.8154V9.51867C82.8938 9.50296 82.967 9.47416 83.0401 9.47416C85.1514 9.47678 87.2653 9.43751 89.3766 9.50296C92.1411 9.58673 93.8291 11.7675 93.2281 14.3829C92.9956 15.3935 92.4808 15.9982 91.0881 16.8569C91.8668 18.7288 92.6507 20.6085 93.4764 22.5877C92.3476 22.5877 91.2919 22.6008 90.2363 22.5694C90.1187 22.5668 89.9698 22.3181 89.9044 22.1557C89.34 20.7473 88.7756 19.3362 88.2504 17.912C88.1067 17.5245 87.916 17.4015 87.5188 17.4276C86.9936 17.4617 86.4631 17.4355 85.8674 17.4355ZM85.8935 15.1997C86.9204 15.1552 87.9029 15.1578 88.8749 15.0531C89.6248 14.972 90.1553 14.218 90.1396 13.43C90.1265 12.6838 89.6118 11.9743 88.8984 11.9246C87.9081 11.8565 86.9074 11.9063 85.8935 11.9063V15.1971V15.1997Z" fill="white"/>
<path d="M185.103 22.5517V9.37793C187.216 9.4748 189.309 9.45647 191.371 9.70256C193.26 9.92771 194.467 11.2786 195.181 12.9306C196.192 15.271 196.08 17.6403 194.765 19.8656C193.783 21.5281 192.265 22.447 190.344 22.536C188.614 22.6171 186.877 22.5543 185.103 22.5543V22.5517ZM188.154 11.9331V20.1039C188.604 20.1039 188.998 20.1065 189.393 20.1039C190.639 20.0908 191.536 19.5279 192.066 18.3917C192.79 16.8366 192.821 15.2684 192.134 13.6976C191.679 12.6609 190.911 12.009 189.746 11.9383C189.236 11.9069 188.724 11.9331 188.157 11.9331H188.154Z" fill="white"/>
<path d="M17.6007 14.0614C17.3263 14.1137 17.052 14.1661 16.775 14.2185C15.8918 12.5089 15.0086 10.802 14.1228 9.09243C13.7623 8.39866 13.3912 7.70751 13.0254 7.01636C13.4539 6.81477 13.8824 6.61581 14.3528 6.39589C14.4991 6.81477 14.6062 7.12632 14.7447 7.52425C15.1733 7.40382 15.5939 7.28863 16.0382 7.16559C15.9545 6.77027 15.884 6.42993 15.7978 6.01628C16.336 5.89847 16.8377 5.78852 17.3655 5.67071C17.4857 5.28586 17.3211 4.99788 16.9344 4.80677C16.5581 4.62089 16.4353 4.31459 16.404 3.89833C16.3543 3.21503 16.2367 2.53697 16.1401 1.8144C16.6313 1.7123 17.0677 1.62329 17.5772 1.51857C17.6817 1.98719 17.781 2.43748 17.8908 2.9349C18.2827 2.85898 18.6433 2.78829 19.0143 2.71499V1.24106C19.6205 1.12848 20.2111 1.01853 20.833 0.903337C20.9976 1.37719 21.1439 1.80131 21.3059 2.26993C21.6874 2.20186 22.048 2.13641 22.4661 2.06049C22.3877 1.57616 22.3145 1.12063 22.2335 0.625829C22.7195 0.531581 23.1768 0.442569 23.6759 0.345703C23.8928 1.1887 24.1096 1.98195 24.2925 2.78829C24.3239 2.93228 24.2481 3.14696 24.1462 3.26477C23.6524 3.83549 23.8196 4.37218 24.188 4.91149C24.6348 6.42207 25.0817 7.93528 25.5311 9.44586C25.7663 10.2365 25.9962 11.0271 26.2418 11.8125C26.3751 12.2393 26.1582 12.3859 25.7898 12.4461C23.8536 12.7655 21.92 13.0875 19.9837 13.4095C19.1711 13.5614 18.3141 13.5561 17.6033 14.0692L17.6007 14.0614ZM24.4807 12.1555C23.979 10.4957 23.4198 8.9432 22.3119 7.67086C21.515 6.75718 20.7311 6.90117 20.3287 8.04261C19.759 9.6553 19.7852 11.323 19.9916 13.0325C21.4914 12.7393 22.9364 12.4566 24.4807 12.1555ZM19.3514 4.96909C18.996 5.04239 18.6773 5.10522 18.3114 5.18114C18.4473 5.86444 18.5754 6.50847 18.7112 7.18915C19.0979 7.11061 19.4141 7.04516 19.7538 6.97447C19.6127 6.27808 19.4873 5.64715 19.3488 4.96909H19.3514ZM22.0454 4.44287C22.1786 5.13402 22.2988 5.77281 22.4321 6.46134C22.8136 6.38542 23.1141 6.32783 23.4695 6.25714C23.3362 5.57123 23.2108 4.92982 23.0775 4.24652C22.7117 4.3172 22.4112 4.3748 22.0454 4.44549V4.44287Z" fill="white"/>
<path d="M104.832 9.51367V11.9563H98.6996V14.6423H103.505V17.1347H98.6892V19.9307H104.822V22.5618H95.4961V9.51629H104.832V9.51367Z" fill="white"/>
<path d="M126.51 22.5621H117.229V9.50879H126.497V11.9514H120.393V14.6374H125.19V17.1272H120.382V19.9467H126.51V22.5621Z" fill="white"/>
<path d="M47.368 14.0011C46.6102 13.8204 45.8577 13.6005 45.0895 13.4644C43.0514 13.1031 41.0054 12.7785 38.9621 12.4303C38.6015 12.3701 38.2487 12.2627 37.7627 12.1449C38.4604 9.80706 39.1659 7.43777 39.8714 5.07111C40.1719 4.43493 40.441 3.80399 39.8374 3.17567C39.759 3.09452 39.7355 2.90864 39.7642 2.79083C39.955 1.98972 40.164 1.19123 40.3757 0.361328C40.8643 0.455576 41.3033 0.539352 41.805 0.636218C41.7344 1.11269 41.6665 1.56822 41.5803 2.15466C42.0166 2.15466 42.5261 2.3065 42.7613 2.11539C43.0331 1.89547 43.0644 1.37449 43.2238 0.924197C43.7699 1.0263 44.3108 1.10484 44.8386 1.23836C44.9432 1.26454 45.0607 1.4923 45.0634 1.63106C45.0686 1.98187 45.0137 2.33268 44.9797 2.72014C45.3769 2.80654 45.7375 2.88508 46.1503 2.97409C46.2601 2.50023 46.362 2.04732 46.477 1.54466C46.9551 1.64153 47.4098 1.73316 47.9141 1.83526C47.8017 2.69135 47.7077 3.51078 47.5796 4.32498C47.5561 4.47158 47.4098 4.65484 47.2713 4.71768C46.6494 4.9978 46.5737 5.50046 46.6625 6.16805C46.7095 6.05547 46.7357 6.00573 46.7487 5.95337C46.767 5.88268 46.7749 5.80676 46.7931 5.69419C47.2765 5.80938 47.7286 5.91672 48.2224 6.03453C48.1362 6.42723 48.063 6.76757 47.9768 7.16812C48.4053 7.29378 48.813 7.41159 49.265 7.54249C49.3957 7.17597 49.5106 6.85134 49.67 6.40367C50.1377 6.62881 50.5741 6.84087 51.0105 7.05031C49.7955 9.36986 48.583 11.6868 47.368 14.0063V14.0011ZM39.5604 12.1711C41.1099 12.4774 42.5471 12.7602 44.073 13.0612C44.107 12.4827 44.2063 11.9512 44.1566 11.4355C44.0469 10.2862 43.9764 9.11329 43.6759 8.0085C43.3806 6.92726 42.581 6.79375 41.8233 7.61318C40.6448 8.88814 40.083 10.4825 39.5578 12.1737L39.5604 12.1711ZM44.3056 6.99533C44.6531 7.07125 44.9693 7.13932 45.3403 7.21786C45.4762 6.52409 45.6016 5.87745 45.7375 5.18891C45.3534 5.11561 45.0372 5.0554 44.6897 4.98995C44.5564 5.68372 44.4362 6.31465 44.3056 6.99533ZM40.5743 6.27538C40.9348 6.34345 41.251 6.40367 41.6221 6.47173C41.7553 5.77796 41.8807 5.13655 42.0114 4.46635C41.643 4.39043 41.3399 4.33021 40.9793 4.25691C40.846 4.92711 40.7154 5.57376 40.5743 6.27538Z" fill="white"/>
<path d="M143.021 9.49512H146.318C146.318 9.73074 146.318 9.94279 146.318 10.1522C146.323 12.7781 146.323 15.4066 146.342 18.0324C146.347 18.8204 146.436 19.6163 147.274 19.9933C148.21 20.4148 149.179 20.4174 150.047 19.8545C150.353 19.6582 150.564 19.2236 150.684 18.8545C150.81 18.4722 150.794 18.035 150.797 17.624C150.805 14.9379 150.802 12.2519 150.802 9.51868H153.384C153.378 12.7441 153.431 15.959 153.344 19.1686C153.295 21.0693 152.054 22.0929 150.303 22.5458C148.962 22.8914 147.601 22.8888 146.258 22.5851C144.249 22.1322 143.125 20.8782 143.047 18.6712C142.94 15.6369 143.021 12.5948 143.021 9.49512Z" fill="white"/>
<path d="M178.884 22.5934C177.876 22.5934 176.89 22.6091 175.908 22.575C175.77 22.5698 175.574 22.342 175.516 22.1771C175.304 21.5619 175.124 20.9362 174.959 20.3052C174.878 19.9884 174.735 19.8549 174.39 19.8602C173.285 19.8811 172.177 19.8811 171.071 19.8602C170.724 19.8523 170.583 19.9937 170.499 20.3052C170.319 20.9519 170.123 21.5933 169.909 22.2268C169.862 22.3682 169.707 22.5698 169.598 22.575C168.798 22.6038 167.996 22.5907 167.092 22.5907C167.452 21.465 167.782 20.4387 168.108 19.4125C169.109 16.2761 170.118 13.1398 171.1 9.99555C171.228 9.58191 171.411 9.44053 171.84 9.45624C172.728 9.49028 173.616 9.44839 174.505 9.48242C174.675 9.49028 174.936 9.67877 174.986 9.83585C176.303 14.0116 177.599 18.1951 178.897 22.3787C178.908 22.4127 178.895 22.4546 178.887 22.5907L178.884 22.5934ZM172.814 13.1659C172.767 13.1659 172.723 13.1686 172.676 13.1712C172.252 14.5666 171.827 15.9646 171.388 17.4071H174.084C173.653 15.9646 173.232 14.5666 172.814 13.1686V13.1659Z" fill="white"/>
<path d="M71.1061 9.53759C73.3272 9.53759 75.4959 9.45381 77.6569 9.55853C80.181 9.68157 81.8324 12.0299 81.1034 14.7814C80.6409 16.5276 79.3266 17.6036 77.5105 17.6717C76.4497 17.711 75.3862 17.6796 74.2757 17.6796V22.5516H71.1035V9.53759H71.1061ZM74.1842 11.9304V15.2946C74.9942 15.2946 75.7625 15.3234 76.5254 15.2867C77.4687 15.2422 78.1141 14.5798 78.169 13.6714C78.2213 12.7734 77.7039 12.0613 76.7449 11.9488C75.914 11.8493 75.0622 11.9278 74.1842 11.9278V11.9304Z" fill="white"/>
<path d="M106.521 9.49023H115.791V12.069H109.74V14.9488H114.521V17.4385H109.711V22.5593H106.521V9.49023Z" fill="white"/>
<path d="M135.652 12.0869H132.428V9.49512H141.955V12.0922H138.772V22.5432H135.652V12.0869Z" fill="white"/>
<path d="M128.229 9.49316H131.241V22.5465H128.229V9.49316Z" fill="white"/>
<path d="M13.0256 7.01902C13.3914 7.71017 13.7624 8.40132 14.123 9.09509C15.0088 10.802 15.892 12.5116 16.7752 14.2211C15.5184 14.6583 14.2589 15.0955 13.0021 15.5327C12.9158 15.4123 12.8322 15.2919 12.746 15.1715C13.4855 14.9542 14.2249 14.7343 15.0193 14.5013C14.3007 13.0771 13.5273 11.8754 12.4951 10.8622C12.2077 10.5795 11.8523 10.3386 11.4865 10.1685C11.3088 10.0873 11.0371 10.2156 10.8072 10.247C10.7392 10.1789 10.6425 10.1266 10.6112 10.0454C9.85603 8.18926 9.10611 6.33049 8.33789 4.42458C8.70371 4.37484 8.97807 3.85386 9.33344 4.34343C9.55031 4.64188 9.70709 4.98484 9.91352 5.34612C10.2741 5.19951 10.6138 5.06076 11.0136 4.89844C10.8411 4.456 10.6817 4.03974 10.4936 3.55803C10.9404 3.37215 11.3846 3.18889 11.868 2.9873C12.2312 3.74914 12.6023 4.46647 12.9054 5.20737C12.9864 5.40372 12.9237 5.71264 12.8244 5.92208C12.6179 6.35667 12.6493 6.70486 13.0256 7.01378V7.01902ZM12.8897 8.83329C12.6179 8.16832 12.3749 7.57403 12.1136 6.93786C11.7713 7.07662 11.4735 7.19704 11.1312 7.33842C11.4029 8.006 11.6485 8.60814 11.9046 9.23908C12.2626 9.09247 12.55 8.97466 12.8897 8.83329Z" fill="white"/>
<path d="M47.3682 14.001C48.5832 11.6814 49.7956 9.3645 51.0107 7.04495C51.4078 6.68628 51.4601 6.28835 51.2615 5.78308C51.1622 5.53175 51.1883 5.17046 51.2902 4.91128C51.5568 4.24108 51.8965 3.59967 52.2257 2.91113C52.6986 3.10225 53.1141 3.2698 53.587 3.46353C53.4172 3.92168 53.2578 4.35103 53.088 4.81703C53.4564 4.96626 53.7987 5.10501 54.175 5.25948C54.4232 4.83274 54.6584 4.42957 54.9118 3.99498C55.1888 4.11018 55.437 4.21228 55.7689 4.34841C54.9275 6.38783 54.0966 8.39845 53.2657 10.4091C53.2552 10.2651 53.2447 10.1211 53.2343 9.97973C51.9722 10.0138 49.6754 12.527 49.1946 14.3439C49.5213 14.5167 49.8505 14.6869 50.1771 14.8597C49.5108 14.6686 48.8445 14.4748 48.1782 14.2837C47.9091 14.1895 47.6399 14.0926 47.3682 13.9984V14.001ZM52.1969 9.16029C52.4582 8.50579 52.7012 7.89318 52.9599 7.24392C52.6046 7.09993 52.3067 6.97688 51.9775 6.84336C51.7109 7.50572 51.4731 8.10262 51.2171 8.7388C51.5542 8.88278 51.852 9.01107 52.1969 9.15767V9.16029Z" fill="white"/>
<path d="M191.547 30.6178C191.272 29.8507 191.021 29.1491 190.747 28.3768C193.488 27.039 196.224 25.7038 199.007 24.3477C199.417 25.4786 199.804 26.552 200.214 27.6882C197.316 28.6674 194.465 29.6282 191.547 30.6151V30.6178Z" fill="white"/>
<path d="M50.1767 14.8621C50.3805 14.959 50.5843 15.0558 50.7881 15.1501C49.918 14.8621 49.0479 14.5741 48.1777 14.2861C48.844 14.4772 49.5104 14.671 50.1767 14.8621Z" fill="white"/>
<path d="M17.6006 14.0611C18.3139 13.548 19.1684 13.5532 19.981 13.4014C19.1867 13.6213 18.3923 13.8412 17.6006 14.0611Z" fill="white"/>
<path d="M33.0335 3.30435C32.4168 3.27032 31.8629 3.24152 31.3089 3.20748C31.2697 3.20748 31.2044 3.19701 31.1992 3.17869C31.1574 3.03731 31.0764 2.77551 31.0999 2.76504C31.6016 2.54513 30.6609 1.64978 31.6225 1.66025C32.0981 1.66548 32.4822 1.83827 32.686 2.265C32.8428 2.58964 32.9185 2.95354 33.0335 3.30435Z" fill="white"/>
<path d="M27.9424 28.0417H34.3912C34.4199 28.0862 34.4487 28.1307 34.4774 28.1752C34.3677 28.2642 34.2658 28.4082 34.143 28.4318C33.9339 28.4763 33.7092 28.4684 33.495 28.4396C32.9802 28.3715 32.6954 28.5391 32.7738 29.1386H27.9424V28.0391V28.0417Z" fill="white"/>
<path d="M34.5175 29.1569H33.1038C33.0725 29.1098 33.0411 29.0601 33.0098 29.0129C33.1352 28.9292 33.2763 28.7616 33.3834 28.7799C33.7362 28.8454 34.2196 28.5234 34.5175 29.1569Z" fill="white"/>
<path d="M43.8143 59.9287C44.1984 60.5413 44.5485 61.099 44.9248 61.6985C44.1566 62.1828 43.4328 62.6383 42.6645 63.1227C42.2987 62.5389 41.9434 61.9786 41.5566 61.3608C42.2883 60.8974 43.0095 60.4392 43.8169 59.9287H43.8143Z" fill="white"/>
<path d="M25.8498 62.7402C25.936 63.1356 26.0379 63.6016 26.1581 64.1487C25.6564 63.9995 25.2383 63.8738 24.8359 63.7534C25.173 63.4157 25.5075 63.0832 25.8498 62.7402Z" fill="white"/>
</g>
<defs>
<clipPath id="clip0_3727_148">
<rect width="207" height="70" fill="white"/>
</clipPath>
</defs>
</svg>
