<svg width="31" height="33" viewBox="0 0 31 33" fill="none" xmlns="http://www.w3.org/2000/svg">
<path d="M13.6362 0.767578L16.5758 6.18738L22.0615 3.5713L21.3313 9.72515L27.2697 10.9145L23.1473 15.4513L27.2697 19.9908L21.3313 21.1774L22.0615 27.3312L16.5758 24.7152L13.6362 30.135L10.6966 24.7152L5.20822 27.3312L5.94108 21.1774L0 19.9908L4.12508 15.4513L0 10.9145L5.94108 9.72515L5.20822 3.5713L10.6966 6.18738L13.6362 0.767578Z" fill="white"/>
<path d="M17.3667 2.86523L20.3062 8.28504L25.792 5.66896L25.0618 11.8228L31.0002 13.0122L26.8778 17.5489L31.0002 22.0884L25.0618 23.275L25.792 29.4289L20.3062 26.8128L17.3667 32.2326L14.4271 26.8128L8.93868 29.4289L9.67155 23.275L3.73047 22.0884L7.85555 17.5489L3.73047 13.0122L9.67155 11.8228L8.93868 5.66896L14.4271 8.28504L17.3667 2.86523Z" fill="#0641B6"/>
</svg>
