<svg width="152" height="44" viewBox="0 0 152 44" fill="none" xmlns="http://www.w3.org/2000/svg">
<path d="M64.4043 9.73468C50.3014 9.23129 36.1944 9.29471 22.0915 9.9408C18.104 10.1231 14.1126 10.353 10.1251 10.6265C7.84773 10.7811 7.83969 18.0308 10.1251 17.8723C24.224 16.9051 38.327 16.5048 52.4339 16.6871C56.4254 16.7386 60.4128 16.8377 64.4043 16.9804C66.6857 17.0637 66.6898 9.81792 64.4043 9.73468Z" fill="#FABB43"/>
<path d="M147.734 35.8598C112.64 35.3565 77.5375 35.4199 42.4471 36.066C32.5207 36.2483 22.5984 36.4782 12.676 36.7517C7.01072 36.9063 6.98658 44.156 12.676 43.9974C47.7543 43.0303 82.8568 42.6299 117.955 42.8123C127.882 42.8638 137.812 42.9629 147.738 43.1056C153.42 43.1888 153.42 35.9431 147.738 35.8598H147.734Z" fill="#FABB43"/>
<path d="M11.7949 3.80502H13.8148L15.1265 13.54H15.1627L16.4744 3.80502H18.3132L16.3859 16.3543H13.7303L11.8029 3.80502H11.7949Z" fill="white"/>
<path d="M19.2749 3.80502H24.735V5.59663H21.2787V8.9143H24.0268V10.7059H21.2787V14.5587H24.735V16.3503H19.2749V3.80105V3.80502Z" fill="white"/>
<path d="M25.8817 3.80502H28.7385L30.014 12.7869H30.0502L31.3257 3.80502H34.1825V16.3543H32.2914V6.85314H32.2552L30.7986 16.3543H29.1248L27.6682 6.85314H27.632V16.3543H25.8857V3.80502H25.8817Z" fill="white"/>
<path d="M40.1335 3.80502H42.8455L44.9217 16.3543H42.9179L42.5558 13.8611V13.8967H40.2824L39.9203 16.3543H38.0654L40.1416 3.80502H40.1335ZM42.3144 12.1923L41.4211 5.98905H41.3849L40.5118 12.1923H42.3144Z" fill="white"/>
<path d="M47.0663 0.899586H49.2511L47.3037 2.96074H45.7948L47.0703 0.899586H47.0663ZM45.8833 3.80502H47.8831V16.3543H45.8833V3.80502Z" fill="white"/>
<path d="M52.1442 13.3775V6.7818C52.1442 4.77217 53.2185 3.62665 55.182 3.62665C57.1456 3.62665 58.2199 4.77217 58.2199 6.7818V13.3775C58.2199 15.3871 57.1456 16.5326 55.182 16.5326C53.2185 16.5326 52.1442 15.3871 52.1442 13.3775ZM56.2201 13.5043V6.65496C56.2201 5.75915 55.8178 5.41827 55.182 5.41827C54.5463 5.41827 54.1439 5.75915 54.1439 6.65496V13.5043C54.1439 14.4001 54.5463 14.741 55.182 14.741C55.8178 14.741 56.2201 14.4001 56.2201 13.5043Z" fill="white"/>
<path d="M12.7124 2.90147H14.7323L16.044 12.6364H16.0802L17.3919 2.90147H19.2307L17.3034 15.4507H14.6478L12.7204 2.90147H12.7124Z" fill="#315AA5"/>
<path d="M20.1924 2.90147H25.6525V4.69309H22.1962V8.01075H24.9443V9.80236H22.1962V13.6551H25.6525V15.4468H20.1924V2.89751V2.90147Z" fill="#315AA5"/>
<path d="M26.7992 2.90147H29.656L30.9315 11.8833H30.9677L32.2432 2.90147H35.1V15.4507H33.2089V5.9496H33.1727L31.7161 15.4507H30.0423L28.5857 5.9496H28.5495V15.4507H26.8033V2.90147H26.7992Z" fill="#315AA5"/>
<path d="M41.047 2.90147H43.759L45.8352 15.4507H43.8314L43.4693 12.9575V12.9932H41.1959L40.8338 15.4507H38.9789L41.0551 2.90147H41.047ZM43.2319 11.2927L42.3386 5.08946H42.3024L41.4293 11.2927H43.2319Z" fill="#315AA5"/>
<path d="M47.9798 0H50.1646L48.2172 2.06115H46.7083L47.9838 0H47.9798ZM46.7968 2.90147H48.7966V15.4507H46.7968V2.90147Z" fill="#315AA5"/>
<path d="M53.0577 12.4739V5.87825C53.0577 3.86862 54.132 2.7231 56.0955 2.7231C58.0591 2.7231 59.1334 3.86862 59.1334 5.87825V12.4739C59.1334 14.4836 58.0591 15.6291 56.0955 15.6291C54.132 15.6291 53.0577 14.4836 53.0577 12.4739ZM57.1336 12.6008V5.75141C57.1336 4.8556 56.7312 4.51472 56.0955 4.51472C55.4598 4.51472 55.0574 4.8556 55.0574 5.75141V12.6008C55.0574 13.4966 55.4598 13.8375 56.0955 13.8375C56.7312 13.8375 57.1336 13.4966 57.1336 12.6008Z" fill="#315AA5"/>
<path d="M138.464 21.4717C138.403 21.4123 138.347 21.3528 138.295 21.2894L137.852 20.7821C137.1 19.9259 136.323 19.038 135.526 18.1937C135.241 17.8925 135.241 17.7775 135.526 17.4763C136.391 16.5725 137.224 15.6252 138.005 14.7334C138.102 14.6263 138.202 14.5233 138.303 14.4163C138.608 14.1031 138.926 13.7781 139.124 13.3064L139.232 13.0488L138.959 12.9854C138.456 12.8744 137.961 12.7594 137.466 12.6484C136.174 12.3551 134.951 12.0737 133.696 11.816C133.281 11.7328 133.205 11.6258 133.265 11.2254C133.366 10.5397 133.43 9.84209 133.486 9.16826L133.527 8.71242C133.583 8.07426 133.635 7.43609 133.688 6.75433L133.792 5.43836L133.43 5.59295C132.927 5.80303 132.436 6.00914 131.953 6.2113C130.718 6.72658 129.547 7.21412 128.388 7.73338C127.994 7.90778 127.898 7.87607 127.692 7.51537C126.964 6.22715 126.179 4.93893 125.399 3.6626C125.371 3.61504 125.346 3.56747 125.322 3.51594C125.21 3.28604 125.061 2.97291 124.606 2.8976L124.445 2.86985L123.6 4.27302C122.989 5.28378 122.377 6.2985 121.761 7.31322C121.523 7.70431 121.179 7.80473 120.731 7.61447C120.623 7.5669 120.514 7.51933 120.405 7.47177C120.305 7.4242 120.2 7.3806 120.096 7.33304L115.678 5.45025L115.662 5.79114C115.621 6.68298 115.714 7.52726 115.806 8.33983C115.875 8.94628 115.935 9.52103 115.947 10.0997C115.947 10.3177 116.004 10.5318 116.056 10.7419C116.156 11.1501 116.205 11.4117 116.048 11.602C115.835 11.8517 115.444 11.8914 115.03 11.9389C114.833 11.9587 114.627 11.9825 114.434 12.0301C113.485 12.256 112.535 12.4621 111.553 12.6801L109.928 13.0369L110.362 13.5799C110.479 13.7266 110.572 13.8455 110.672 13.9604C110.934 14.2577 111.195 14.555 111.457 14.8523C112.197 15.6966 112.966 16.5646 113.75 17.397C114.064 17.73 114.06 17.8647 113.73 18.1977C113.714 18.2135 113.698 18.2334 113.682 18.2492C113.782 18.38 113.867 18.5227 113.935 18.6733C113.984 18.6258 114.028 18.5742 114.072 18.5267C114.583 18.0154 114.591 17.5912 114.1 17.072C113.32 16.2475 112.555 15.3795 111.819 14.5391C111.557 14.2419 111.296 13.9446 111.03 13.6473C110.946 13.5522 110.865 13.4491 110.769 13.3302L111.654 13.136C112.64 12.9219 113.593 12.7119 114.543 12.4859C114.708 12.4463 114.889 12.4265 115.078 12.4066C115.545 12.3551 116.076 12.2996 116.41 11.9072C116.736 11.5227 116.619 11.051 116.519 10.6348C116.47 10.4406 116.426 10.2583 116.422 10.0958C116.41 9.49328 116.342 8.88287 116.277 8.29227C116.201 7.60257 116.12 6.89306 116.128 6.15977L119.902 7.76905C120.003 7.81265 120.104 7.85625 120.204 7.89985C120.317 7.95138 120.426 7.99895 120.542 8.04651C121.512 8.45478 121.649 8.41514 122.172 7.55501C122.787 6.54029 123.403 5.52556 124.011 4.51481L124.675 3.41288C124.767 3.46838 124.819 3.56747 124.892 3.71809C124.924 3.78548 124.956 3.8489 125.013 3.94006C125.769 5.18072 126.554 6.46101 127.278 7.74527C127.604 8.32398 127.97 8.43893 128.59 8.16543C129.744 7.65014 130.911 7.1626 132.146 6.64731C132.513 6.49272 132.883 6.33814 133.261 6.17958L133.217 6.72262C133.164 7.40042 133.112 8.03858 133.056 8.67675L133.016 9.13655C132.959 9.80642 132.899 10.4961 132.798 11.166C132.702 11.816 132.943 12.153 133.603 12.2877C134.85 12.5454 136.07 12.8228 137.361 13.1162C137.759 13.2073 138.158 13.2985 138.56 13.3897C138.399 13.6552 138.19 13.8732 137.969 14.0992C137.86 14.2102 137.755 14.3211 137.655 14.4361C136.878 15.324 136.045 16.2634 135.192 17.1631C134.73 17.6467 134.73 18.0431 135.188 18.5227C135.981 19.3591 136.754 20.243 137.502 21.0992L137.949 21.6065C138.009 21.6739 138.069 21.7373 138.134 21.8047C138.283 21.9593 138.423 22.102 138.536 22.3002L135.386 23.0097C135.213 23.0493 135.04 23.0929 134.866 23.1326C134.452 23.2356 134.022 23.3387 133.599 23.3902C132.71 23.4933 132.702 24.064 132.762 24.5873C132.903 25.8121 133.016 27.0567 133.124 28.2656C133.16 28.6699 133.197 29.0782 133.237 29.4825C133.12 29.4865 133.02 29.4349 132.875 29.3596C132.81 29.3239 132.746 29.2883 132.678 29.2605C132.167 29.0465 131.656 28.8245 131.145 28.6025C130.453 28.3013 129.756 28.004 129.06 27.7147C128.972 27.679 128.895 27.6433 128.819 27.6116C128.827 27.782 128.819 27.9485 128.799 28.115C128.823 28.1269 128.847 28.1348 128.875 28.1467C129.571 28.4321 130.263 28.7333 130.951 29.0306C131.462 29.2526 131.973 29.4746 132.488 29.6886C132.541 29.7084 132.589 29.7362 132.641 29.7679C132.863 29.8868 133.164 30.0493 133.587 29.8709L133.744 29.8036L133.728 29.6331C133.684 29.1654 133.639 28.6937 133.599 28.222C133.49 27.0131 133.378 25.7645 133.237 24.5318C133.177 24.0006 133.237 23.9055 133.655 23.854C134.106 23.8024 134.553 23.6915 134.979 23.5884C135.148 23.5448 135.321 23.5052 135.49 23.4655L139.188 22.6292L139.095 22.3794C138.938 21.9514 138.689 21.6977 138.472 21.4717H138.464Z" fill="#FF5206"/>
<path d="M14.5347 18.6959H18.1767L21.0006 29.5891H21.0533V18.6959H23.6397V36.8947H20.6575L17.1738 23.6095H17.1211V36.8947H14.5347V18.6959Z" fill="white"/>
<path d="M29.9936 37.1546C28.5684 37.1546 27.4776 36.756 26.7211 35.9587C25.9645 35.1614 25.5862 34.0348 25.5862 32.5789V23.0116C25.5862 21.5557 25.9645 20.4291 26.7211 19.6318C27.4776 18.8345 28.5684 18.4359 29.9936 18.4359C31.4187 18.4359 32.5095 18.8345 33.2661 19.6318C34.0226 20.4291 34.4009 21.5557 34.4009 23.0116V32.5789C34.4009 34.0348 34.0226 35.1614 33.2661 35.9587C32.5095 36.756 31.4187 37.1546 29.9936 37.1546ZM29.9936 34.5548C30.9964 34.5548 31.4979 33.9568 31.4979 32.7609V22.8296C31.4979 21.6337 30.9964 21.0357 29.9936 21.0357C28.9907 21.0357 28.4893 21.6337 28.4893 22.8296V32.7609C28.4893 33.9568 28.9907 34.5548 29.9936 34.5548Z" fill="white"/>
<path d="M35.5473 18.6959H38.4767L40.3769 32.8129H40.4296L42.3298 18.6959H44.9953L42.1978 36.8947H38.3447L35.5473 18.6959Z" fill="white"/>
<path d="M50.5344 37.1546C49.1092 37.1546 48.0184 36.756 47.2619 35.9587C46.5053 35.1614 46.127 34.0348 46.127 32.5789V23.0116C46.127 21.5557 46.5053 20.4291 47.2619 19.6318C48.0184 18.8345 49.1092 18.4359 50.5344 18.4359C51.9595 18.4359 53.0503 18.8345 53.8069 19.6318C54.5634 20.4291 54.9417 21.5557 54.9417 23.0116V32.5789C54.9417 34.0348 54.5634 35.1614 53.8069 35.9587C53.0503 36.756 51.9595 37.1546 50.5344 37.1546ZM50.5344 34.5548C51.5372 34.5548 52.0387 33.9568 52.0387 32.7609V22.8296C52.0387 21.6337 51.5372 21.0357 50.5344 21.0357C49.5315 21.0357 49.0301 21.6337 49.0301 22.8296V32.7609C49.0301 33.9568 49.5315 34.5548 50.5344 34.5548Z" fill="white"/>
<path d="M65.2223 37.1546C63.8324 37.1546 62.7679 36.7647 62.029 35.9847C61.3076 35.2048 60.9469 34.1042 60.9469 32.6829V22.9076C60.9469 21.4864 61.3076 20.3858 62.029 19.6058C62.7679 18.8259 63.8324 18.4359 65.2223 18.4359C66.6122 18.4359 67.6679 18.8259 68.3893 19.6058C69.1282 20.3858 69.4977 21.4864 69.4977 22.9076V24.8315H66.753V22.7256C66.753 21.599 66.2692 21.0357 65.3015 21.0357C64.3338 21.0357 63.85 21.599 63.85 22.7256V32.8909C63.85 34.0002 64.3338 34.5548 65.3015 34.5548C66.2692 34.5548 66.753 34.0002 66.753 32.8909V30.1091H69.4977V32.6829C69.4977 34.1042 69.1282 35.2048 68.3893 35.9847C67.6679 36.7647 66.6122 37.1546 65.2223 37.1546Z" fill="white"/>
<path d="M71.2346 18.6959H79.1519V21.2957H74.1376V26.1054H78.1227V28.7052H74.1376V34.2948H79.1519V36.8947H71.2346V18.6959Z" fill="white"/>
<path d="M80.822 18.6959H84.464L87.2878 29.5891H87.3406V18.6959H89.9269V36.8947H86.9447L83.4611 23.6095H83.4083V36.8947H80.822V18.6959Z" fill="white"/>
<path d="M94.3543 21.2957H91.3193V18.6959H100.292V21.2957H97.2573V36.8947H94.3543V21.2957Z" fill="white"/>
<path d="M101.698 18.6959H106C107.495 18.6959 108.586 19.0425 109.272 19.7358C109.958 20.4118 110.301 21.4604 110.301 22.8816V23.9995C110.301 25.8887 109.668 27.0846 108.401 27.5873V27.6393C109.105 27.8473 109.598 28.2719 109.879 28.9132C110.178 29.5545 110.328 30.4124 110.328 31.487V34.6848C110.328 35.2048 110.345 35.6294 110.381 35.9587C110.416 36.2707 110.504 36.5827 110.644 36.8947H107.689C107.583 36.6 107.513 36.3227 107.478 36.0627C107.442 35.8027 107.425 35.3348 107.425 34.6588V31.331C107.425 30.4991 107.284 29.9185 107.002 29.5891C106.739 29.2598 106.272 29.0952 105.604 29.0952H104.601V36.8947H101.698V18.6959ZM105.657 26.4953C106.237 26.4953 106.668 26.348 106.95 26.0534C107.249 25.7587 107.398 25.2648 107.398 24.5715V23.1676C107.398 22.5089 107.275 22.0323 107.029 21.7377C106.8 21.443 106.431 21.2957 105.92 21.2957H104.601V26.4953H105.657Z" fill="white"/>
<path d="M116.538 37.1546C115.113 37.1546 114.022 36.756 113.266 35.9587C112.509 35.1614 112.131 34.0348 112.131 32.5789V23.0116C112.131 21.5557 112.509 20.4291 113.266 19.6318C114.022 18.8345 115.113 18.4359 116.538 18.4359C117.963 18.4359 119.054 18.8345 119.811 19.6318C120.567 20.4291 120.945 21.5557 120.945 23.0116V32.5789C120.945 34.0348 120.567 35.1614 119.811 35.9587C119.054 36.756 117.963 37.1546 116.538 37.1546ZM116.538 34.5548C117.541 34.5548 118.042 33.9568 118.042 32.7609V22.8296C118.042 21.6337 117.541 21.0357 116.538 21.0357C115.535 21.0357 115.034 21.6337 115.034 22.8296V32.7609C115.034 33.9568 115.535 34.5548 116.538 34.5548Z" fill="white"/>
<path d="M123.146 26.2874V18.6959H126.049V26.2874L125.68 32.085H123.516L123.146 26.2874ZM123.199 34.1388H125.996V36.8947H123.199V34.1388Z" fill="white"/>
<path d="M15.6134 20.1236H19.2549L22.0795 31.016H22.1318V20.1236H24.719V38.3212H21.7374L18.253 25.0387H18.2007V38.3212H15.6134V20.1236Z" fill="#315AA5"/>
<path d="M26.6705 34.0087V24.4441C26.6705 21.5308 28.2276 19.87 31.0764 19.87C33.9251 19.87 35.4823 21.5347 35.4823 24.4441V34.0087C35.4823 36.922 33.9251 38.5828 31.0764 38.5828C28.2276 38.5828 26.6705 36.9181 26.6705 34.0087ZM32.5812 34.187V24.2578C32.5812 22.9577 32.0018 22.4622 31.0764 22.4622C30.1509 22.4622 29.5715 22.9577 29.5715 24.2578V34.187C29.5715 35.4871 30.1509 35.9826 31.0764 35.9826C32.0018 35.9826 32.5812 35.4871 32.5812 34.187Z" fill="#315AA5"/>
<path d="M36.621 20.1236H39.5502L41.4494 34.2386H41.5017L43.4008 20.1236H46.0645L43.2681 38.3212H39.4174L36.621 20.1236Z" fill="#315AA5"/>
<path d="M47.2032 34.0087V24.4441C47.2032 21.5308 48.7604 19.87 51.6091 19.87C54.4579 19.87 56.015 21.5347 56.015 24.4441V34.0087C56.015 36.922 54.4579 38.5828 51.6091 38.5828C48.7604 38.5828 47.2032 36.9181 47.2032 34.0087ZM53.114 34.187V24.2578C53.114 22.9577 52.5346 22.4622 51.6091 22.4622C50.6837 22.4622 50.1043 22.9577 50.1043 24.2578V34.187C50.1043 35.4871 50.6837 35.9826 51.6091 35.9826C52.5346 35.9826 53.114 35.4871 53.114 34.187Z" fill="#315AA5"/>
<path d="M62.0103 34.1117V24.3371C62.0103 21.5308 63.487 19.866 66.2834 19.866C69.0799 19.866 70.5565 21.5308 70.5565 24.3371V26.2595H67.8124V24.1548C67.8124 22.9577 67.233 22.4662 66.3599 22.4662C65.4867 22.4662 64.9073 22.9617 64.9073 24.1548V34.3178C64.9073 35.5149 65.4867 35.9826 66.3599 35.9826C67.233 35.9826 67.8124 35.5149 67.8124 34.3178V31.5353H70.5565V34.1078C70.5565 36.9141 69.0799 38.5789 66.2834 38.5789C63.487 38.5789 62.0103 36.9141 62.0103 34.1078V34.1117Z" fill="#315AA5"/>
<path d="M72.3028 20.1236H80.2174V22.7239H75.2039V27.5319H79.1873V30.1321H75.2039V35.721H80.2174V38.3212H72.3028V20.1236Z" fill="#315AA5"/>
<path d="M81.8791 20.1236H85.5205L88.3451 31.016H88.3975V20.1236H90.9847V38.3212H88.0031L84.5186 25.0387H84.4663V38.3212H81.8791V20.1236Z" fill="#315AA5"/>
<path d="M92.3849 22.7239V20.1236H101.358V22.7239H98.3238V38.3212H95.4228V22.7239H92.3849Z" fill="#315AA5"/>
<path d="M102.754 20.1236H107.055C110.065 20.1236 111.356 21.503 111.356 24.3094V25.4271C111.356 27.298 110.749 28.4951 109.457 29.0143V29.0659C110.91 29.5058 111.385 30.8575 111.385 32.9147V36.1134C111.385 36.9973 111.413 37.6474 111.703 38.3212H108.749C108.592 37.8535 108.484 37.5681 108.484 36.0857V32.7601C108.484 31.0715 107.981 30.5245 106.665 30.5245H105.663V38.3212H102.762V20.1236H102.754ZM106.713 27.9243C107.796 27.9243 108.455 27.4566 108.455 26.0019V24.5987C108.455 23.2986 108.009 22.7278 106.979 22.7278H105.659V27.9283H106.713V27.9243Z" fill="#315AA5"/>
<path d="M113.179 34.0087V24.4441C113.179 21.5308 114.736 19.87 117.585 19.87C120.434 19.87 121.991 21.5347 121.991 24.4441V34.0087C121.991 36.922 120.434 38.5828 117.585 38.5828C114.736 38.5828 113.179 36.9181 113.179 34.0087ZM119.09 34.187V24.2578C119.09 22.9577 118.511 22.4622 117.585 22.4622C116.66 22.4622 116.08 22.9577 116.08 24.2578V34.187C116.08 35.4871 116.66 35.9826 117.585 35.9826C118.511 35.9826 119.09 35.4871 119.09 34.187Z" fill="#315AA5"/>
<path d="M124.184 27.7142V20.1236H127.085V27.7142L126.715 33.5092H124.55L124.18 27.7142H124.184ZM124.236 35.5664H127.033V38.3212H124.236V35.5664Z" fill="#315AA5"/>
<path d="M6.50064 1L7.90199 3.58372L10.5171 2.33659L10.1691 5.27025L13 5.83725L11.0348 8L13 10.1641L10.1691 10.7297L10.5171 13.6634L7.90199 12.4163L6.50064 15L5.0993 12.4163L2.48286 13.6634L2.83223 10.7297L0 10.1641L1.96651 8L0 5.83725L2.83223 5.27025L2.48286 2.33659L5.0993 3.58372L6.50064 1Z" fill="#FF5208"/>
</svg>
