<svg width="79" height="79" viewBox="0 0 79 79" fill="none" xmlns="http://www.w3.org/2000/svg">
<circle cx="39.5003" cy="39.4999" r="38.3382" fill="#203B67"/>
<path d="M57.0455 41.5L17.9545 41.5C17.4362 41.5 16.939 41.2893 16.5725 40.9142C16.2059 40.5391 16 40.0304 16 39.5C16 38.9696 16.2059 38.4609 16.5725 38.0858C16.939 37.7107 17.4362 37.5 17.9545 37.5L57.0455 37.5C57.5638 37.5 58.061 37.7107 58.4275 38.0858C58.7941 38.4609 59 38.9696 59 39.5C59 40.0304 58.7941 40.5391 58.4275 40.9142C58.061 41.2893 57.5638 41.5 57.0455 41.5Z" fill="white"/>
<path d="M56.1698 39.5L39.5864 22.9181C39.2109 22.5426 39 22.0333 39 21.5023C39 20.9712 39.2109 20.462 39.5864 20.0865C39.9618 19.711 40.471 19.5 41.002 19.5C41.5329 19.5 42.0421 19.711 42.4176 20.0865L60.4126 38.0842C60.5988 38.2699 60.7465 38.4906 60.8473 38.7336C60.9481 38.9765 61 39.237 61 39.5C61 39.763 60.9481 40.0235 60.8473 40.2664C60.7465 40.5094 60.5988 40.7301 60.4126 40.9158L42.4176 58.9135C42.0421 59.289 41.5329 59.5 41.002 59.5C40.471 59.5 39.9618 59.289 39.5864 58.9135C39.2109 58.538 39 58.0288 39 57.4977C39 56.9667 39.2109 56.4574 39.5864 56.0819L56.1698 39.5Z" fill="white"/>
</svg>
