<svg width="37" height="37" viewBox="0 0 37 37" fill="none" xmlns="http://www.w3.org/2000/svg">
<path d="M24.9688 12.4814C24.9687 14.0727 24.3366 15.5989 23.2114 16.7241C22.0862 17.8493 20.56 18.4814 18.9688 18.4814C17.3775 18.4814 15.8513 17.8493 14.7261 16.7241C13.6009 15.5989 12.9688 14.0727 12.9688 12.4814M24.9688 12.4814H12.9688M24.9688 12.4814C24.9687 10.8901 24.3366 9.36402 23.2114 8.2388C22.0862 7.11359 20.56 6.48145 18.9688 6.48145M12.9688 12.4814C12.9688 10.8901 13.6009 9.36402 14.7261 8.2388C15.8513 7.11359 17.3775 6.48145 18.9688 6.48145M18.9688 6.48145V3.48145M9.96875 12.4814H27.9688M14.4688 25.9814V28.9814M23.4688 25.9814V28.9814M18.9688 20.7314C11.927 20.7314 6.21875 26.1037 6.21875 32.7314H31.7188C31.7188 26.1037 26.0105 20.7314 18.9688 20.7314Z" stroke="black" stroke-width="1.6" stroke-linecap="round" stroke-linejoin="round"/>
</svg>
