<svg width="37" height="37" viewBox="0 0 37 37" fill="none" xmlns="http://www.w3.org/2000/svg">
<path d="M18.2793 3.48145C14.137 3.48145 10.7793 6.8392 10.7793 10.9814C10.7793 15.1237 14.137 18.4814 18.2793 18.4814C22.4215 18.4814 25.7793 15.1237 25.7793 10.9814C25.7793 6.8392 22.4215 3.48145 18.2793 3.48145ZM12.6543 10.9814C12.6543 9.4896 13.2469 8.05886 14.3018 7.00397C15.3567 5.94908 16.7875 5.35645 18.2793 5.35645C19.7711 5.35645 21.2019 5.94908 22.2568 7.00397C23.3117 8.05886 23.9043 9.4896 23.9043 10.9814C23.9043 12.4733 23.3117 13.904 22.2568 14.9589C21.2019 16.0138 19.7711 16.6064 18.2793 16.6064C16.7875 16.6064 15.3567 16.0138 14.3018 14.9589C13.2469 13.904 12.6543 12.4733 12.6543 10.9814ZM9.4668 21.4814C8.62155 21.4814 7.81091 21.8172 7.21316 22.4148C6.61541 23.0124 6.2795 23.8229 6.2793 24.6682V25.2314C6.2793 28.0477 7.7358 30.1567 9.9693 31.5164C12.1668 32.8537 15.1188 33.4814 18.2793 33.4814C21.4398 33.4814 24.3918 32.8537 26.5893 31.5164C28.8228 30.1567 30.2793 28.0477 30.2793 25.2314V24.6682C30.2793 24.2496 30.1968 23.8352 30.0366 23.4485C29.8765 23.0618 29.6416 22.7105 29.3457 22.4146C29.0497 22.1186 28.6983 21.8839 28.3115 21.7238C27.9248 21.5637 27.5103 21.4813 27.0918 21.4814H9.4668ZM8.1543 24.6682C8.1545 24.3202 8.29286 23.9866 8.53898 23.7406C8.7851 23.4946 9.11883 23.3564 9.4668 23.3564H27.0918C27.817 23.3564 28.4043 23.9437 28.4043 24.6682V25.2314C28.4043 27.2894 27.3843 28.8374 25.6143 29.9152C23.8068 31.0154 21.2283 31.6064 18.2793 31.6064C15.3303 31.6064 12.7518 31.0154 10.9443 29.9152C9.1743 28.8374 8.1543 27.2902 8.1543 25.2314V24.6682Z" fill="black"/>
</svg>
