<svg width="68" height="68" viewBox="0 0 68 68" fill="none" xmlns="http://www.w3.org/2000/svg">
<path d="M14.875 31.875H57.375C57.9386 31.875 58.4791 32.0989 58.8776 32.4974C59.2761 32.8959 59.5 33.4364 59.5 34C59.5 34.5636 59.2761 35.1041 58.8776 35.5026C58.4791 35.9011 57.9386 36.125 57.375 36.125H14.875C14.3114 36.125 13.7709 35.9011 13.3724 35.5026C12.9739 35.1041 12.75 34.5636 12.75 34C12.75 33.4364 12.9739 32.8959 13.3724 32.4974C13.7709 32.0989 14.3114 31.875 14.875 31.875Z" fill="white"/>
<path d="M15.7546 33.9998L33.3794 51.6203C33.7784 52.0193 34.0026 52.5605 34.0026 53.1248C34.0026 53.689 33.7784 54.2302 33.3794 54.6293C32.9804 55.0283 32.4392 55.2524 31.8749 55.2524C31.3106 55.2524 30.7694 55.0283 30.3704 54.6293L11.2454 35.5043C11.0475 35.3069 10.8905 35.0724 10.7834 34.8142C10.6762 34.556 10.6211 34.2793 10.6211 33.9998C10.6211 33.7202 10.6762 33.4435 10.7834 33.1853C10.8905 32.9271 11.0475 32.6926 11.2454 32.4953L30.3704 13.3703C30.7694 12.9712 31.3106 12.7471 31.8749 12.7471C32.4392 12.7471 32.9804 12.9712 33.3794 13.3703C33.7784 13.7693 34.0026 14.3105 34.0026 14.8748C34.0026 15.4391 33.7784 15.9802 33.3794 16.3793L15.7546 33.9998Z" fill="white"/>
</svg>
