<svg width="79" height="79" viewBox="0 0 79 79" fill="none" xmlns="http://www.w3.org/2000/svg">
<circle cx="39.4997" cy="39.5001" r="38.3382" transform="rotate(-180 39.4997 39.5001)" fill="#203B67"/>
<path d="M21.9545 37.5L61.0455 37.5C61.5638 37.5 62.061 37.7107 62.4275 38.0858C62.7941 38.4609 63 38.9696 63 39.5C63 40.0304 62.7941 40.5391 62.4275 40.9142C62.061 41.2893 61.5638 41.5 61.0455 41.5L21.9545 41.5C21.4362 41.5 20.939 41.2893 20.5725 40.9142C20.2059 40.5391 20 40.0304 20 39.5C20 38.9696 20.2059 38.4609 20.5725 38.0858C20.939 37.7107 21.4362 37.5 21.9545 37.5Z" fill="white"/>
<path d="M22.8302 39.5L39.4136 56.0819C39.7891 56.4574 40 56.9667 40 57.4977C40 58.0288 39.7891 58.538 39.4136 58.9135C39.0382 59.289 38.529 59.5 37.998 59.5C37.4671 59.5 36.9579 59.289 36.5824 58.9135L18.5874 40.9158C18.4012 40.7301 18.2535 40.5094 18.1527 40.2664C18.0519 40.0235 18 39.763 18 39.5C18 39.237 18.0519 38.9765 18.1527 38.7336C18.2535 38.4906 18.4012 38.2699 18.5874 38.0842L36.5824 20.0865C36.9579 19.711 37.4671 19.5 37.998 19.5C38.529 19.5 39.0382 19.711 39.4136 20.0865C39.7891 20.462 40 20.9712 40 21.5023C40 22.0333 39.7891 22.5426 39.4136 22.9181L22.8302 39.5Z" fill="white"/>
</svg>
