<svg width="36" height="41" viewBox="0 0 36 41" fill="none" xmlns="http://www.w3.org/2000/svg">
<g clip-path="url(#clip0_3729_1562)">
<path d="M1.60742 36.9111H34.3931M9.71514 16.9799L18.0003 10.4742L26.2854 16.9799M3.94999 22.4391V36.9111M32.0506 22.4391V36.9034M1.60742 22.4391H34.3931M18.0003 10.4716V4.08936H21.2146M10.9751 22.4468H25.0254V36.9111H10.9751V22.4416V22.4468ZM8.11571 16.9825H27.8848V22.4365H8.11571V16.9825Z" stroke="black" stroke-width="1.6" stroke-linecap="round" stroke-linejoin="round"/>
<path d="M15.4629 31.1639C15.4629 30.8496 15.5248 30.5384 15.6452 30.2481C15.7655 29.9578 15.9419 29.6941 16.1642 29.472C16.3866 29.2499 16.6505 29.0738 16.9409 28.9538C17.2314 28.8337 17.5426 28.7721 17.8569 28.7725C18.1712 28.7721 18.4824 28.8337 18.7728 28.9538C19.0633 29.0738 19.3272 29.2499 19.5495 29.472C19.7719 29.6941 19.9483 29.9578 20.0686 30.2481C20.1889 30.5384 20.2509 30.8496 20.2509 31.1639V36.911H15.4629V31.1639Z" stroke="black" stroke-width="1.6" stroke-linecap="round" stroke-linejoin="round"/>
</g>
<defs>
<clipPath id="clip0_3729_1562">
<rect width="34.7857" height="40.8217" fill="white" transform="translate(0.607422 0.0893555)"/>
</clipPath>
</defs>
</svg>
