<svg width="37" height="37" viewBox="0 0 37 37" fill="none" xmlns="http://www.w3.org/2000/svg">
<rect width="36" height="36" transform="translate(0.5 0.5)" fill="white"/>
<path d="M12.875 29.75V34.25M6.125 2.75H19.625C20.2217 2.75 20.794 2.98705 21.216 3.40901C21.6379 3.83097 21.875 4.40326 21.875 5V33.9688C21.875 34.0433 21.8454 34.1149 21.7926 34.1676C21.7399 34.2204 21.6683 34.25 21.5938 34.25H3.875V5C3.875 4.40326 4.11205 3.83097 4.53401 3.40901C4.95597 2.98705 5.52826 2.75 6.125 2.75ZM23 14H30.875C31.4717 14 32.044 14.2371 32.466 14.659C32.8879 15.081 33.125 15.6533 33.125 16.25V34.25H21.875V15.125C21.875 14.8266 21.9935 14.5405 22.2045 14.3295C22.4155 14.1185 22.7016 14 23 14Z" stroke="black" stroke-width="1.6" stroke-linecap="round" stroke-linejoin="round"/>
<path d="M7.39589 30.866C7.1629 30.8965 6.92621 30.8532 6.71905 30.7423C6.51188 30.6314 6.34465 30.4584 6.24081 30.2476C6.13697 30.0368 6.10174 29.7988 6.14007 29.567C6.17839 29.3352 6.28835 29.1211 6.45451 28.955C6.62066 28.7888 6.83467 28.6789 7.06651 28.6406C7.29834 28.6022 7.53635 28.6375 7.74715 28.7413C7.95794 28.8451 8.13092 29.0124 8.24182 29.2195C8.35272 29.4267 8.39597 29.6634 8.3655 29.8964C8.33334 30.1423 8.22084 30.3706 8.0455 30.546C7.87015 30.7213 7.64178 30.8338 7.39589 30.866ZM7.39589 25.241C7.1629 25.2715 6.92621 25.2282 6.71905 25.1173C6.51188 25.0064 6.34465 24.8334 6.24081 24.6226C6.13697 24.4118 6.10174 24.1738 6.14007 23.942C6.17839 23.7102 6.28835 23.4961 6.45451 23.33C6.62066 23.1638 6.83467 23.0539 7.06651 23.0156C7.29834 22.9772 7.53635 23.0125 7.74715 23.1163C7.95794 23.2201 8.13092 23.3874 8.24182 23.5945C8.35272 23.8017 8.39597 24.0384 8.3655 24.2714C8.33334 24.5173 8.22084 24.7456 8.0455 24.921C7.87015 25.0963 7.64178 25.2088 7.39589 25.241ZM7.39589 19.616C7.1629 19.6465 6.92621 19.6032 6.71905 19.4923C6.51188 19.3814 6.34465 19.2084 6.24081 18.9976C6.13697 18.7868 6.10174 18.5488 6.14007 18.317C6.17839 18.0852 6.28835 17.8712 6.45451 17.705C6.62066 17.5388 6.83467 17.4289 7.06651 17.3906C7.29834 17.3522 7.53635 17.3875 7.74715 17.4913C7.95794 17.5951 8.13092 17.7624 8.24182 17.9695C8.35272 18.1767 8.39597 18.4134 8.3655 18.6464C8.33334 18.8923 8.22084 19.1206 8.0455 19.296C7.87015 19.4713 7.64178 19.5838 7.39589 19.616ZM7.39589 13.991C7.1629 14.0215 6.92621 13.9782 6.71905 13.8673C6.51188 13.7564 6.34465 13.5834 6.24081 13.3726C6.13697 13.1618 6.10174 12.9238 6.14007 12.692C6.17839 12.4602 6.28835 12.2462 6.45451 12.08C6.62066 11.9138 6.83467 11.8039 7.06651 11.7656C7.29834 11.7272 7.53635 11.7625 7.74715 11.8663C7.95794 11.9701 8.13092 12.1374 8.24182 12.3445C8.35272 12.5517 8.39597 12.7884 8.3655 13.0214C8.33334 13.2673 8.22084 13.4956 8.0455 13.671C7.87015 13.8463 7.64178 13.9588 7.39589 13.991ZM7.39589 8.36599C7.1629 8.39646 6.92621 8.35321 6.71905 8.24231C6.51188 8.13141 6.34465 7.95842 6.24081 7.74763C6.13697 7.53684 6.10174 7.29883 6.14007 7.067C6.17839 6.83516 6.28835 6.62115 6.45451 6.45499C6.62066 6.28884 6.83467 6.17888 7.06651 6.14055C7.29834 6.10223 7.53635 6.13746 7.74715 6.2413C7.95794 6.34513 8.13092 6.51237 8.24182 6.71953C8.35272 6.9267 8.39597 7.16339 8.3655 7.39638C8.33334 7.64227 8.22084 7.87064 8.0455 8.04598C7.87015 8.22133 7.64178 8.33383 7.39589 8.36599ZM13.0209 25.241C12.7879 25.2715 12.5512 25.2282 12.344 25.1173C12.1369 25.0064 11.9696 24.8334 11.8658 24.6226C11.762 24.4118 11.7267 24.1738 11.7651 23.942C11.8034 23.7102 11.9134 23.4961 12.0795 23.33C12.2457 23.1638 12.4597 23.0539 12.6915 23.0156C12.9233 22.9772 13.1614 23.0125 13.3721 23.1163C13.5829 23.2201 13.7559 23.3874 13.8668 23.5945C13.9777 23.8017 14.021 24.0384 13.9905 24.2714C13.9583 24.5173 13.8458 24.7456 13.6705 24.921C13.4951 25.0963 13.2668 25.2088 13.0209 25.241ZM13.0209 19.616C12.7879 19.6465 12.5512 19.6032 12.344 19.4923C12.1369 19.3814 11.9696 19.2084 11.8658 18.9976C11.762 18.7868 11.7267 18.5488 11.7651 18.317C11.8034 18.0852 11.9134 17.8712 12.0795 17.705C12.2457 17.5388 12.4597 17.4289 12.6915 17.3906C12.9233 17.3522 13.1614 17.3875 13.3721 17.4913C13.5829 17.5951 13.7559 17.7624 13.8668 17.9695C13.9777 18.1767 14.021 18.4134 13.9905 18.6464C13.9583 18.8923 13.8458 19.1206 13.6705 19.296C13.4951 19.4713 13.2668 19.5838 13.0209 19.616ZM13.0209 13.991C12.7879 14.0215 12.5512 13.9782 12.344 13.8673C12.1369 13.7564 11.9696 13.5834 11.8658 13.3726C11.762 13.1618 11.7267 12.9238 11.7651 12.692C11.8034 12.4602 11.9134 12.2462 12.0795 12.08C12.2457 11.9138 12.4597 11.8039 12.6915 11.7656C12.9233 11.7272 13.1614 11.7625 13.3721 11.8663C13.5829 11.9701 13.7559 12.1374 13.8668 12.3445C13.9777 12.5517 14.021 12.7884 13.9905 13.0214C13.9583 13.2673 13.8458 13.4956 13.6705 13.671C13.4951 13.8463 13.2668 13.9588 13.0209 13.991ZM13.0209 8.36599C12.7879 8.39646 12.5512 8.35321 12.344 8.24231C12.1369 8.13141 11.9696 7.95842 11.8658 7.74763C11.762 7.53684 11.7267 7.29883 11.7651 7.067C11.8034 6.83516 11.9134 6.62115 12.0795 6.45499C12.2457 6.28884 12.4597 6.17888 12.6915 6.14055C12.9233 6.10223 13.1614 6.13746 13.3721 6.2413C13.5829 6.34513 13.7559 6.51237 13.8668 6.71953C13.9777 6.9267 14.021 7.16339 13.9905 7.39638C13.9583 7.64227 13.8458 7.87064 13.6705 8.04598C13.4951 8.22133 13.2668 8.33383 13.0209 8.36599ZM18.6459 30.866C18.4129 30.8965 18.1762 30.8532 17.969 30.7423C17.7619 30.6314 17.5946 30.4584 17.4908 30.2476C17.387 30.0368 17.3517 29.7988 17.3901 29.567C17.4284 29.3352 17.5384 29.1211 17.7045 28.955C17.8707 28.7888 18.0847 28.6789 18.3165 28.6406C18.5483 28.6022 18.7864 28.6375 18.9971 28.7413C19.2079 28.8451 19.3809 29.0124 19.4918 29.2195C19.6027 29.4267 19.646 29.6634 19.6155 29.8964C19.5833 30.1423 19.4708 30.3706 19.2955 30.546C19.1201 30.7213 18.8918 30.8338 18.6459 30.866ZM18.6459 25.241C18.4129 25.2715 18.1762 25.2282 17.969 25.1173C17.7619 25.0064 17.5946 24.8334 17.4908 24.6226C17.387 24.4118 17.3517 24.1738 17.3901 23.942C17.4284 23.7102 17.5384 23.4961 17.7045 23.33C17.8707 23.1638 18.0847 23.0539 18.3165 23.0156C18.5483 22.9772 18.7864 23.0125 18.9971 23.1163C19.2079 23.2201 19.3809 23.3874 19.4918 23.5945C19.6027 23.8017 19.646 24.0384 19.6155 24.2714C19.5833 24.5173 19.4708 24.7456 19.2955 24.921C19.1201 25.0963 18.8918 25.2088 18.6459 25.241ZM18.6459 19.616C18.4129 19.6465 18.1762 19.6032 17.969 19.4923C17.7619 19.3814 17.5946 19.2084 17.4908 18.9976C17.387 18.7868 17.3517 18.5488 17.3901 18.317C17.4284 18.0852 17.5384 17.8712 17.7045 17.705C17.8707 17.5388 18.0847 17.4289 18.3165 17.3906C18.5483 17.3522 18.7864 17.3875 18.9971 17.4913C19.2079 17.5951 19.3809 17.7624 19.4918 17.9695C19.6027 18.1767 19.646 18.4134 19.6155 18.6464C19.5833 18.8923 19.4708 19.1206 19.2955 19.296C19.1201 19.4713 18.8918 19.5838 18.6459 19.616Z" fill="black"/>
<path d="M19.2971 13.6716C19.7351 13.2336 19.7333 12.5217 19.2932 12.0816C18.853 11.6414 18.1411 11.6396 17.7032 12.0776C17.2652 12.5156 17.267 13.2274 17.7071 13.6676C18.1473 14.1078 18.8592 14.1095 19.2971 13.6716Z" fill="black"/>
<path d="M18.6459 8.36599C18.4129 8.39646 18.1762 8.35321 17.969 8.24231C17.7619 8.13141 17.5946 7.95842 17.4908 7.74763C17.387 7.53684 17.3517 7.29883 17.3901 7.067C17.4284 6.83516 17.5384 6.62115 17.7045 6.45499C17.8707 6.28884 18.0847 6.17888 18.3165 6.14055C18.5483 6.10223 18.7864 6.13746 18.9971 6.2413C19.2079 6.34513 19.3809 6.51237 19.4918 6.71953C19.6027 6.9267 19.646 7.16339 19.6155 7.39638C19.5833 7.64227 19.4708 7.87064 19.2955 8.04598C19.1201 8.22133 18.8918 8.33383 18.6459 8.36599ZM28.6246 28.6251C28.4021 28.6251 28.1846 28.6911 27.9996 28.8147C27.8146 28.9383 27.6704 29.114 27.5853 29.3196C27.5001 29.5252 27.4778 29.7514 27.5213 29.9696C27.5647 30.1878 27.6718 30.3883 27.8291 30.5456C27.9865 30.703 28.1869 30.8101 28.4052 30.8535C28.6234 30.8969 28.8496 30.8746 29.0552 30.7895C29.2607 30.7043 29.4364 30.5602 29.56 30.3751C29.6837 30.1901 29.7496 29.9726 29.7496 29.7501C29.7496 29.4518 29.6311 29.1656 29.4201 28.9546C29.2092 28.7437 28.923 28.6251 28.6246 28.6251ZM28.6246 23.0001C28.4021 23.0001 28.1846 23.0661 27.9996 23.1897C27.8146 23.3133 27.6704 23.489 27.5853 23.6946C27.5001 23.9002 27.4778 24.1264 27.5213 24.3446C27.5647 24.5628 27.6718 24.7633 27.8291 24.9206C27.9865 25.078 28.1869 25.1851 28.4052 25.2285C28.6234 25.2719 28.8496 25.2496 29.0552 25.1645C29.2607 25.0793 29.4364 24.9352 29.56 24.7501C29.6837 24.5651 29.7496 24.3476 29.7496 24.1251C29.7496 23.8268 29.6311 23.5406 29.4201 23.3296C29.2092 23.1187 28.923 23.0001 28.6246 23.0001ZM28.6246 17.3751C28.4021 17.3751 28.1846 17.4411 27.9996 17.5647C27.8146 17.6883 27.6704 17.864 27.5853 18.0696C27.5001 18.2752 27.4778 18.5014 27.5213 18.7196C27.5647 18.9378 27.6718 19.1383 27.8291 19.2956C27.9865 19.453 28.1869 19.5601 28.4052 19.6035C28.6234 19.6469 28.8496 19.6246 29.0552 19.5395C29.2607 19.4543 29.4364 19.3102 29.56 19.1251C29.6837 18.9401 29.7496 18.7226 29.7496 18.5001C29.7496 18.2018 29.6311 17.9156 29.4201 17.7046C29.2092 17.4937 28.923 17.3751 28.6246 17.3751ZM24.1246 28.6251C23.9021 28.6251 23.6846 28.6911 23.4996 28.8147C23.3146 28.9383 23.1704 29.114 23.0853 29.3196C23.0001 29.5252 22.9778 29.7514 23.0213 29.9696C23.0647 30.1878 23.1718 30.3883 23.3291 30.5456C23.4865 30.703 23.6869 30.8101 23.9052 30.8535C24.1234 30.8969 24.3496 30.8746 24.5552 30.7895C24.7607 30.7043 24.9364 30.5602 25.06 30.3751C25.1837 30.1901 25.2496 29.9726 25.2496 29.7501C25.2496 29.4518 25.1311 29.1656 24.9201 28.9546C24.7092 28.7437 24.423 28.6251 24.1246 28.6251ZM24.1246 23.0001C23.9021 23.0001 23.6846 23.0661 23.4996 23.1897C23.3146 23.3133 23.1704 23.489 23.0853 23.6946C23.0001 23.9002 22.9778 24.1264 23.0213 24.3446C23.0647 24.5628 23.1718 24.7633 23.3291 24.9206C23.4865 25.078 23.6869 25.1851 23.9052 25.2285C24.1234 25.2719 24.3496 25.2496 24.5552 25.1645C24.7607 25.0793 24.9364 24.9352 25.06 24.7501C25.1837 24.5651 25.2496 24.3476 25.2496 24.1251C25.2496 23.8268 25.1311 23.5406 24.9201 23.3296C24.7092 23.1187 24.423 23.0001 24.1246 23.0001ZM24.1246 17.3751C23.9021 17.3751 23.6846 17.4411 23.4996 17.5647C23.3146 17.6883 23.1704 17.864 23.0853 18.0696C23.0001 18.2752 22.9778 18.5014 23.0213 18.7196C23.0647 18.9378 23.1718 19.1383 23.3291 19.2956C23.4865 19.453 23.6869 19.5601 23.9052 19.6035C24.1234 19.6469 24.3496 19.6246 24.5552 19.5395C24.7607 19.4543 24.9364 19.3102 25.06 19.1251C25.1837 18.9401 25.2496 18.7226 25.2496 18.5001C25.2496 18.2018 25.1311 17.9156 24.9201 17.7046C24.7092 17.4937 24.423 17.3751 24.1246 17.3751Z" fill="black"/>
</svg>
