<svg width="36" height="36" viewBox="0 0 36 36" fill="none" xmlns="http://www.w3.org/2000/svg">
<path d="M7.625 11.6875C7.625 10.6432 8.03984 9.64169 8.77827 8.90327C9.51669 8.16484 10.5182 7.75 11.5625 7.75C12.6068 7.75 13.6083 8.16484 14.3467 8.90327C15.0852 9.64169 15.5 10.6432 15.5 11.6875C15.5 12.7318 15.0852 13.7333 14.3467 14.4717C13.6083 15.2102 12.6068 15.625 11.5625 15.625C10.5182 15.625 9.51669 15.2102 8.77827 14.4717C8.03984 13.7333 7.625 12.7318 7.625 11.6875ZM11.5625 5.5C9.92147 5.5 8.34766 6.1519 7.18728 7.31228C6.0269 8.47266 5.375 10.0465 5.375 11.6875C5.375 13.3285 6.0269 14.9023 7.18728 16.0627C8.34766 17.2231 9.92147 17.875 11.5625 17.875C13.2035 17.875 14.7773 17.2231 15.9377 16.0627C17.0981 14.9023 17.75 13.3285 17.75 11.6875C17.75 10.0465 17.0981 8.47266 15.9377 7.31228C14.7773 6.1519 13.2035 5.5 11.5625 5.5ZM23.375 13.375C23.375 12.7783 23.6121 12.206 24.034 11.784C24.456 11.3621 25.0283 11.125 25.625 11.125C26.2217 11.125 26.794 11.3621 27.216 11.784C27.6379 12.206 27.875 12.7783 27.875 13.375C27.875 13.9717 27.6379 14.544 27.216 14.966C26.794 15.3879 26.2217 15.625 25.625 15.625C25.0283 15.625 24.456 15.3879 24.034 14.966C23.6121 14.544 23.375 13.9717 23.375 13.375ZM25.625 8.875C24.4315 8.875 23.2869 9.34911 22.443 10.193C21.5991 11.0369 21.125 12.1815 21.125 13.375C21.125 14.5685 21.5991 15.7131 22.443 16.557C23.2869 17.4009 24.4315 17.875 25.625 17.875C26.8185 17.875 27.9631 17.4009 28.807 16.557C29.6509 15.7131 30.125 14.5685 30.125 13.375C30.125 12.1815 29.6509 11.0369 28.807 10.193C27.9631 9.34911 26.8185 8.875 25.625 8.875ZM2 23.5C2 22.6049 2.35558 21.7464 2.98851 21.1135C3.62145 20.4806 4.47989 20.125 5.375 20.125H17.75C18.6451 20.125 19.5036 20.4806 20.1365 21.1135C20.7694 21.7464 21.125 22.6049 21.125 23.5V23.7542C21.1228 23.8592 21.1153 23.9639 21.1025 24.0681C21.08 24.2627 21.0384 24.5271 20.9563 24.8399C20.7401 25.6649 20.3577 26.4371 19.8324 27.109C18.5161 28.7987 16.04 30.25 11.5625 30.25C7.085 30.25 4.61 28.7987 3.29262 27.109C2.76692 26.4372 2.38409 25.665 2.16762 24.8399C2.0817 24.5089 2.02671 24.1707 2.00338 23.8296C2.00229 23.8045 2.00154 23.7794 2.00112 23.7542V23.7284L2 23.7194V23.7104V23.5ZM4.25 23.7002V23.7138C4.26559 23.9029 4.29759 24.0904 4.34562 24.274C4.44688 24.6655 4.65275 25.1943 5.06675 25.7264C5.85987 26.7434 7.6025 28 11.5625 28C15.5225 28 17.2663 26.7434 18.0583 25.7275C18.3946 25.297 18.6396 24.8024 18.7782 24.274C18.8266 24.0904 18.859 23.9029 18.875 23.7138L18.8761 23.7002V23.5C18.8761 23.2016 18.7576 22.9155 18.5466 22.7045C18.3356 22.4935 18.0495 22.375 17.7511 22.375H5.375C5.07663 22.375 4.79048 22.4935 4.5795 22.7045C4.36853 22.9155 4.25 23.2016 4.25 23.5V23.7002ZM21.6616 27.4285C22.7079 27.784 24.0095 28 25.625 28C29.2261 28 31.2725 26.9279 32.3896 25.6094C32.933 24.9681 33.2109 24.3179 33.3515 23.8184C33.4273 23.5506 33.4759 23.2758 33.4966 22.9983L33.4977 22.9578L33.4989 22.933V22.8903C33.499 22.5272 33.4276 22.1676 33.2888 21.8321C33.1499 21.4966 32.9464 21.1918 32.6897 20.935C32.433 20.6782 32.1282 20.4745 31.7928 20.3355C31.4574 20.1965 31.0978 20.125 30.7347 20.125H21.5221C22.0846 20.7539 22.493 21.5234 22.6865 22.375H30.7347C31.016 22.375 31.2432 22.5989 31.25 22.8767C31.2389 22.9887 31.2179 23.0994 31.187 23.2075C31.1173 23.455 30.9732 23.8015 30.6729 24.1559C30.1025 24.8298 28.7739 25.75 25.625 25.75C24.3144 25.75 23.3199 25.5903 22.5639 25.3562C22.3637 26.0866 22.0599 26.7844 21.6616 27.4285Z" fill="black"/>
</svg>
