<svg width="35" height="35" viewBox="0 0 35 35" fill="none" xmlns="http://www.w3.org/2000/svg">
<g clip-path="url(#clip0_3728_843)">
<path d="M34.2041 6.49783C33.6819 5.23757 32.9111 4.07945 31.9168 3.08512C29.9282 1.09646 27.2843 0 24.4728 0C21.6613 0 19.0175 1.09646 17.0288 3.08512C14.2463 5.8677 13.2577 9.98183 14.4351 13.7086L0.254363 27.8894C0.0924957 28.0513 0 28.2729 0 28.5022V34.1329C0 34.6127 0.389253 35 0.867147 35H6.49783C6.97765 35 7.36497 34.6127 7.36497 34.1329V31.0631H10.4385C10.9183 31.0631 11.3057 30.6758 11.3057 30.196V27.1224H14.3754C14.8552 27.1224 15.2425 26.7351 15.2425 26.2553V23.1856H17.5395C17.7707 23.1856 17.9904 23.095 18.1542 22.9312L20.719 20.3664C24.5576 21.8251 28.9878 20.8983 31.9149 17.9711C33.9055 15.9844 35 13.3406 35 10.5291C35 9.12432 34.7264 7.76001 34.2041 6.49783ZM30.6893 16.7456C28.1804 19.2545 24.3495 20.0041 21.089 18.6456C21.0871 18.6456 21.0852 18.6437 21.0852 18.6437C21.0139 18.6148 20.9426 18.5839 20.8713 18.5512C20.5418 18.4047 20.1564 18.476 19.902 18.7304L17.1811 21.4513H14.3754C13.8975 21.4513 13.5082 21.8386 13.5082 22.3184V25.3881H10.4366C10.2073 25.3881 9.98761 25.4787 9.82382 25.6425C9.66002 25.8063 9.56945 26.026 9.56945 26.2553V29.3289H6.49783C6.01993 29.3289 5.63068 29.7162 5.63068 30.196V33.2657H1.73429V28.8606L16.0461 14.5507C16.287 14.3099 16.364 13.9514 16.2446 13.6316C15.0286 10.4058 15.8187 6.74833 18.2563 4.31069C19.9155 2.64962 22.1238 1.73429 24.4728 1.73429C25.6464 1.73429 26.7852 1.96361 27.8393 2.39911C28.8914 2.83654 29.8588 3.48015 30.6893 4.31069C32.3504 5.97176 33.2657 8.18009 33.2657 10.5291C33.2657 12.8781 32.3504 15.0845 30.6893 16.7456Z" fill="#00AB5A"/>
<path d="M21.0855 18.6438C21.0142 18.6149 20.9429 18.584 20.8716 18.5513C20.5421 18.4048 20.1567 18.4761 19.9023 18.7305L19.9274 18.7054C20.2434 18.3894 20.7444 18.3682 21.0855 18.6438Z" fill="#00AB5A"/>
<path d="M27.7753 10.1823C26.8465 11.1111 25.3415 11.1111 24.4127 10.1823C23.4839 9.25348 23.4858 7.75042 24.4127 6.82161C25.3415 5.8928 26.8465 5.8928 27.7753 6.82161C28.7022 7.75042 28.7022 9.2554 27.7753 10.1823Z" fill="#00AB5A"/>
</g>
<defs>
<clipPath id="clip0_3728_843">
<rect width="35" height="35" fill="white"/>
</clipPath>
</defs>
</svg>
