<?xml version="1.0" encoding="UTF-8"?>
<svg id="Camada_2" data-name="Camada 2" xmlns="http://www.w3.org/2000/svg" viewBox="0 0 907.08 312.57">
  <defs>
    <style>
      .cls-1 {
        fill: #315ba6;
      }

      .cls-1, .cls-2, .cls-3, .cls-4, .cls-5, .cls-6, .cls-7, .cls-8, .cls-9, .cls-10 {
        stroke-width: 0px;
      }

      .cls-2 {
        fill: #eb5b24;
      }

      .cls-3 {
        fill: #395da8;
      }

      .cls-4 {
        fill: #233c73;
      }

      .cls-5 {
        fill: #4361ab;
      }

      .cls-6 {
        fill: #3e60aa;
      }

      .cls-7 {
        fill: #e9551e;
      }

      .cls-8 {
        fill: #ea5822;
      }

      .cls-9 {
        fill: #5eb672;
      }

      .cls-10 {
        fill: #fbbc43;
      }
    </style>
  </defs>
  <g id="Camada_1-2" data-name="Camada 1">
    <g>
      <path class="cls-8" d="M165.93,203.71c-2.58-4.4-5.11-8.7-7.64-12.99q-3.27-5.56-9.05-3.08c-3.73,1.61-7.46,3.23-11.2,4.83-.85.37-1.65,1.03-2.93.46.53-5.81,1.05-11.73,1.6-17.64.3-3.21.32-3.25-2.86-3.97-5.15-1.18-10.32-2.3-15.48-3.44-.65-.14-1.37-.11-2.06-1.17,1.82-2.08,3.74-4.28,5.68-6.46,2.16-2.44,4.23-4.96,6.51-7.29,1.42-1.45,1.54-2.45.09-4.01-3.7-3.98-7.21-8.12-10.78-12.21-.53-.6-1-1.25-1.76-2.22,5.04-1.13,9.79-2.15,14.52-3.29,2.09-.5,4.73-.16,6.1-1.79,1.32-1.57-.11-3.89-.15-5.9-.09-4.97-1.24-9.88-1-15.3,4.99,2.16,9.68,4.18,14.37,6.22.75.32,1.48.68,2.23,1,3.01,1.29,3.04,1.3,4.67-1.41,3.07-5.11,6.1-10.24,9.12-15.32,1.49.25,1.69,1.47,2.21,2.33,2.73,4.53,5.46,9.07,8.03,13.69.93,1.67,1.75,1.93,3.52,1.13,5.66-2.57,11.41-4.93,17.67-7.61-.3,3.72-.54,7-.83,10.27-.26,2.97-.48,5.96-.91,8.91-.28,1.88.28,2.65,2.17,3.05,6.1,1.27,12.16,2.73,18.44,4.16-.86,2.08-2.49,3.35-3.78,4.84-2.84,3.29-5.69,6.57-8.67,9.73-1.29,1.37-1.35,2.27-.02,3.7,3.33,3.57,6.5,7.3,9.7,10.99.87,1.01,1.99,1.86,2.63,3.61-4.06.93-8.05,1.85-12.05,2.76-2.11.48-4.21,1.12-6.35,1.37-2.26.27-2.42,1.4-2.2,3.33.68,6.05,1.17,12.12,1.72,18.14-1.4.62-2.25-.24-3.18-.64-4.24-1.81-8.43-3.72-12.68-5.5-4.58-1.92-3.7-2.3-6.41,2.2-2.73,4.53-5.43,9.08-8.15,13.62-.14.23-.36.4-.83.9Z"/>
      <path class="cls-4" d="M788.42,155.32c.45.36.73.68,1.09.85,4.47,2.1,6.06,5.96,6.48,10.54.25,2.7.5,5.41.67,8.12.3,4.58.37,9.21,3.89,13.28-1.21.12-1.71.21-2.21.21-8.97,0-17.93.03-26.9,0-3.28-.01-3.39-.09-3.74-3.41-.32-2.97-.45-5.96-.69-8.93-.55-6.54-2.33-8.17-9-8.19-5.57-.02-11.14.06-16.71-.04-1.96-.04-2.6.62-2.56,2.57.11,5.02.07,10.05.02,15.07-.03,2.87-.08,2.93-2.95,2.94-7.88.03-15.76.03-23.64,0-2.81-.01-2.89-.07-2.89-3-.02-20.37-.02-40.74,0-61.1,0-2.77.07-2.83,3.02-2.83,21.06,0,42.11.04,63.17.08,3.82,0,7.59.39,11.24,1.59,9.86,3.24,14.96,14.72,10.73,24.18-1.2,2.68-3.03,4.81-5.61,6.26-1.05.59-2.13,1.14-3.4,1.83ZM750.8,150.82c2.72,0,5.43,0,8.15,0,1.36,0,2.7-.03,4.04-.41,3.3-.93,4.75-2.86,4.59-6.23-.16-3.38-1.96-5.46-5.72-5.61-7.05-.27-14.11-.16-21.17-.24-1.39-.02-1.95.55-1.93,1.93.05,2.71.1,5.43-.03,8.14-.1,2.08.88,2.51,2.7,2.45,3.12-.1,6.24-.03,9.37-.03Z"/>
      <path class="cls-4" d="M856.36,119.2c8.44-.25,16.84.16,25.06,2.32,2.89.76,5.69,1.77,8.39,3.08,10.8,5.25,16.14,14.16,17.07,25.84.35,4.45.32,8.94-.61,13.38-1.93,9.19-6.85,16.1-15.16,20.57-5.21,2.8-10.81,4.42-16.63,5.14-14.23,1.77-28.44,1.91-42.55-1.18-3.05-.67-5.98-1.75-8.81-3.09-10.34-4.91-15.87-13.18-17.26-24.41-.67-5.44-.48-10.83.75-16.18,2.08-9.05,7.35-15.59,15.56-19.79,7.66-3.92,15.97-5.14,24.42-5.66,3.25-.2,6.52-.03,9.78-.03ZM855.5,136.01c-.74.04-2.38.05-3.99.25-7.76.95-12.7,5.35-14.22,12.93-.86,4.28-.79,8.62.38,12.89,1.49,5.42,4.96,8.96,10.3,10.54,5.45,1.61,11,1.62,16.46.06,5.86-1.67,9.4-5.67,10.75-11.59.95-4.16.95-8.34,0-12.5-1.36-5.9-4.87-9.82-10.75-11.59-2.64-.79-5.32-.95-8.92-.97Z"/>
      <path class="cls-4" d="M548.5,152.07c0,5.12,0,10.24,0,15.35,0,5.97.02,11.95-.01,17.92-.02,2.91-.07,2.96-2.88,2.97-7.47.03-14.94-.06-22.41.05-2.1.03-2.84-.58-2.8-2.73.12-5.97.04-11.94.04-17.92,0-14.39,0-28.78,0-43.17,0-3.09.05-3.14,3.08-3.15,9.24-.02,18.47.07,27.7-.06,2.2-.03,3.44.85,4.71,2.46,8.35,10.53,16.79,20.98,25.21,31.46.67.83,1.38,1.64,2.06,2.45,1.36-.64.77-1.71.78-2.52.04-10.04.03-20.09.03-30.14,0-4.05-.19-3.65,3.81-3.66,7.06-.01,14.12-.02,21.19,0,2.95.01,3.03.06,3.03,2.79.02,20.5-.02,40.99.05,61.49,0,2.21-.82,2.7-2.85,2.68-8.96-.09-17.93-.11-26.89.01-2.07.03-3.18-.93-4.36-2.36-8.66-10.46-17.37-20.87-26.07-31.29-.86-1.02-1.76-2.01-2.64-3.01-.27.12-.53.23-.8.35Z"/>
      <path class="cls-4" d="M421.31,147.64c-2.5,0-4.53,0-6.55,0-6.79,0-13.59-.16-20.37.06-3.73.12-6.47,0-7.9-4.5-1.31-4.1-5.29-6.11-9.49-6.82-4.03-.68-8.1-.56-12.12.5-5.94,1.57-9.67,5.35-11.12,11.24-1.12,4.54-1.02,9.16.05,13.72.31,1.31.8,2.61,1.44,3.79,3.49,6.45,9.44,8.11,16.18,8.06,6.62-.05,12.55-1.7,15.45-8.35,1.13-2.59,2.54-3.22,5.16-3.17,8.42.17,16.84.05,25.26.07,1.21,0,2.44-.18,3.84.35-1.82,9.88-6.3,17.79-15.61,22.41-4.91,2.44-10.15,3.81-15.56,4.5-13.96,1.78-27.88,1.92-41.71-1.13-1.58-.35-3.14-.85-4.67-1.39-13.63-4.78-20.94-14.43-21.84-28.84-.26-4.22-.07-8.42.82-12.56,2.05-9.47,7.34-16.47,16.06-20.83,6.67-3.34,13.85-4.8,21.19-5.3,11.12-.75,22.25-.94,33.28,1.24,5.37,1.06,10.49,2.77,15.13,5.73,7.56,4.83,11.71,11.8,13.07,21.21Z"/>
      <path class="cls-4" d="M470.83,188.33c-11.82,0-23.64,0-35.46,0-3.63,0-3.67-.03-3.67-3.42-.01-20.1-.01-40.19,0-60.29,0-3.15.05-3.21,3.05-3.21,24.32-.02,48.64-.02,72.95,0,3.01,0,3.04.06,3.06,3.2.03,3.53-.08,7.06.04,10.59.06,1.91-.54,2.66-2.54,2.6-4.48-.12-8.97-.04-13.45-.04-10.19,0-20.38-.01-30.57,0-3.1,0-3.17.06-3.15,3.1.07,6.93-.9,5.76,5.76,5.8,12.36.07,24.73,0,37.09.03,3.29,0,3.31.05,3.34,3.38.03,3.26.03,6.52,0,9.78-.03,3.12-.06,3.17-3.13,3.18-11.82.02-23.64,0-35.46.01-1.9,0-3.8.04-5.71,0-1.37-.03-1.82.54-1.94,1.92-.59,7.02-.64,7.02,6.23,7.02,13.45,0,26.9-.01,40.35,0,3.07,0,3.09.06,3.12,3.13.03,3.26.03,6.52,0,9.78-.02,3.39-.04,3.41-3.67,3.42-5.98.02-11.96,0-17.93,0-6.11,0-12.23,0-18.34,0Z"/>
      <path class="cls-4" d="M660.96,121.4c12.76,0,25.53,0,38.29,0,3.23,0,3.25.04,3.27,3.36.02,3.53.04,7.06,0,10.59-.03,2.9-.07,2.96-2.9,2.98-6.52.04-13.03.01-19.55.01-.95,0-1.9.03-2.85.01-1.15-.03-1.8.42-1.76,1.65.03.95,0,1.9,0,2.85,0,13.98,0,27.96,0,41.94,0,3.5-.04,3.52-3.56,3.53-7.33.02-14.66,0-22,0-4.12,0-3.84.33-3.84-4.06,0-13.57.03-27.14-.01-40.71-.02-5.75.88-5.18-5.17-5.21-6.25-.03-12.49.02-18.74-.01-3.19-.02-3.23-.06-3.26-3.06-.04-3.8.08-7.6-.04-11.4-.06-2.01.73-2.53,2.62-2.51,8.96.08,17.92.03,26.88.03,4.21,0,8.42,0,12.63,0Z"/>
      <path class="cls-2" d="M382.76,52.09v3.91c0,15.61,0,31.22,0,46.83,0,1.09,0,2.17-.02,3.26-.01.99-.53,1.48-1.51,1.49-.41,0-.81,0-1.22.02q-4.45.15-4.46-4.29c0-19.55,0-39.09,0-58.64,0-1.21-.21-2.44.29-3.74,2.07-.59,4.25-.18,6.39-.3,1.89-.11,2.47,1.46,3.34,2.6,9.67,12.6,19.31,25.21,28.97,37.82,3.85,5.03,7.71,10.06,11.83,15.43.82-1.51.55-2.73.55-3.85.02-16.15,0-32.31.04-48.46,0-1.12-.69-2.82.72-3.26,1.9-.59,4.01-.57,5.99.06.24.08.41.66.44,1.02.07.95.04,1.9.04,2.85,0,19.41,0,38.82,0,58.23,0,.81-.05,1.63,0,2.44.11,1.6-.65,2.2-2.18,2.09-.81-.06-1.64-.1-2.44.01-2.43.34-3.94-.74-5.39-2.67-10.06-13.32-20.24-26.55-30.39-39.81-3.38-4.41-6.77-8.82-10.15-13.23-.28.06-.56.12-.85.18Z"/>
      <path class="cls-2" d="M515.12,74.2c.02,4.81-.76,9.46-2.53,13.94-4.66,11.81-13.5,18.36-25.87,20.31-5.54.87-11.09.67-16.58-.66-13.22-3.2-22.48-13.29-24.58-26.79-.85-5.43-.77-10.81.51-16.16,3.6-15,14.99-24.6,30.38-25.55,4.76-.29,9.5-.1,14.15,1.13,13.69,3.62,22.96,14.66,24.24,28.91.15,1.62.18,3.25.27,4.88ZM480.47,44.76c-14.05-.09-23.81,7.2-27.2,20.37-.95,3.7-1.37,7.47-1.06,11.29,1.06,13.07,7.95,25.14,24.45,26.84,14.61,1.51,26.67-5.7,30.24-20.47,1.07-4.4,1.26-8.82.76-13.32-1.66-15.09-12.1-24.61-27.2-24.71Z"/>
      <path class="cls-2" d="M583.86,74.02c.03-3.69.46-7.31,1.46-10.87,3.9-13.81,15.08-22.82,29.69-23.84,4.62-.32,9.25-.22,13.77.92,11.37,2.87,19.23,9.75,23.08,20.89,2.88,8.33,2.97,16.79.21,25.19-4.11,12.54-12.94,19.74-25.77,22.05-5.65,1.02-11.35.83-16.99-.5-14.04-3.32-23.62-14.19-25.11-28.56-.18-1.75-.23-3.52-.34-5.28ZM619.27,44.76c-14.35-.09-24.11,7.45-27.33,21.21-.49,2.1-.78,4.28-.86,6.44-.53,14.32,6.32,29.04,24.48,30.88,12.53,1.27,24.78-3.69,29.57-18.18,1.42-4.28,1.97-8.72,1.7-13.24-.98-16.5-11.66-27-27.55-27.1Z"/>
      <path class="cls-2" d="M581.24,40.85c-3.14,7.59-6.08,14.72-9.02,21.84-5.68,13.79-11.36,27.59-17.05,41.38-1.46,3.53-1.47,3.53-5.22,3.54-.27,0-.54,0-.82,0-4.32-.03-3.51.26-4.99-3.29-3.91-9.39-7.76-18.8-11.64-28.21-4.34-10.53-8.68-21.06-13.02-31.6-.45-1.1-.89-2.2-1.31-3.25.41-.27.62-.53.84-.54q6.47-.32,8.93,5.79c6.59,16.35,13.16,32.71,19.78,49.05.54,1.33.83,2.81,1.9,3.95,1.36-.8,1.45-2.27,1.94-3.47,6.78-16.86,13.53-33.73,20.28-50.6q1.97-4.93,7.19-4.8c.52.01,1.05.1,2.21.21Z"/>
      <path class="cls-6" d="M617.11,234.42c1.72-1.11,2.06-2.5,2.69-3.65,4.08-7.51,8.19-15,12.1-22.6,1.14-2.22,2.49-3.37,5.01-3.01.8.11,1.63.08,2.44,0,1.86-.17,2.65.44,2.63,2.49-.09,10.45-.12,20.9,0,31.35.03,2.6-1.44,2.39-3.13,2.43-1.8.05-3.12-.03-3.07-2.51.13-7.06.05-14.11.04-21.17,0-1.3,0-2.6,0-3.95-1.68.06-1.79,1.19-2.19,1.95-4.05,7.68-8.11,15.35-12.07,23.08-.88,1.72-1.84,2.65-3.99,2.67-2.27.02-3.36-.83-4.35-2.76-3.65-7.12-7.46-14.16-11.25-21.21-.6-1.12-.95-2.5-2.85-3.44v27.03c-.98.14-1.51.26-2.03.27-3.99.11-4.01.1-4.01-3.89-.01-9.77-.02-19.54,0-29.32,0-2.93.06-2.93,2.85-3.03.14,0,.27.02.41,0,3.65-.58,5.83.74,7.54,4.26,4.09,8.41,8.7,16.56,13.19,24.99Z"/>
      <path class="cls-5" d="M489.89,223.22c0-5.01-.03-10.02,0-15.03.02-2.96.07-3.03,2.85-3.04,6.23-.03,12.47-.15,18.7.06,10.59.36,16.34,6.43,16.49,17.06.05,3.15-.3,6.21-1.42,9.17-2.3,6.08-6.81,9.5-13.17,9.84-7.03.38-14.09.09-21.13.18-1.78.02-2.37-.69-2.35-2.4.06-5.28.02-10.56.02-15.84ZM496.01,223.28h0c0,3.79.02,7.59-.01,11.38,0,1.29.39,2.05,1.84,2.02,5.01-.08,10.04.09,15.03-.24,4.41-.29,7.14-3.1,8.26-7.27.89-3.28,1.15-6.63.43-10.05-1.12-5.28-3.87-8.06-9.16-8.91-4.72-.76-9.47-.24-14.21-.42-1.9-.07-2.24.92-2.22,2.52.06,3.66.02,7.32.02,10.97Z"/>
      <path class="cls-6" d="M814.27,242.22c-3.64.2-7.4-.33-10.95-1.83-7.07-2.99-10.86-8.43-11.21-16.05-.36-7.92,2.78-14.17,10.14-17.51,7.92-3.6,16.17-3.57,24.11,0,7.05,3.17,10.24,9.17,10.17,16.72-.07,7.37-3.35,13.03-10.16,16.34-3.75,1.82-7.73,2.47-12.09,2.34ZM814.34,237.55c1.5-.13,3.01-.14,4.47-.4,7.54-1.37,11.83-6.66,11.68-14.28-.14-7.24-4.74-12.27-12.21-13.4-2.71-.41-5.4-.41-8.1.02-7.37,1.17-12.06,6.34-12.23,13.5-.18,7.32,4.46,12.85,11.94,14.18,1.46.26,2.97.27,4.45.39Z"/>
      <path class="cls-5" d="M738.56,223.1c0-5.02.07-10.04-.03-15.06-.04-1.96.32-2.98,2.64-2.96,9.09.11,18.19.06,27.28.03,1.57,0,2.52.27,2.53,2.21.01,1.92-.57,2.64-2.55,2.62-6.79-.08-13.57-.05-20.36-.02-3.31.02-3.31.06-3.38,3.38q-.15,7.06,6.98,7.06c5.29,0,10.59.06,15.88-.03,1.94-.03,2.69.65,2.6,2.59-.07,1.44-.36,2.34-2.06,2.22-1.35-.09-2.71-.01-4.07-.01-5.43,0-10.86-.02-16.29.01-2.95.02-2.97.06-3.04,2.83-.05,1.9-.04,3.8,0,5.7.06,2.91.08,2.97,2.9,2.99,6.11.04,12.22.01,18.32.02.95,0,1.9.04,2.85,0,1.68-.08,2.83.15,2.86,2.34.03,2.12-.94,2.57-2.72,2.43-.67-.05-1.36,0-2.04,0-7.87,0-15.75.02-23.62,0-5.16-.01-4.67.57-4.69-4.9-.02-4.48,0-8.95,0-13.43Z"/>
      <path class="cls-5" d="M534.73,223.04c0-5.02.07-10.04-.04-15.06-.04-2.03.46-2.92,2.7-2.9,9.09.1,18.19.06,27.28.03,1.63,0,2.46.38,2.47,2.27.02,1.99-.7,2.58-2.61,2.56-6.79-.08-13.57-.05-20.36-.02-3.26.02-3.26.07-3.32,3.43q-.14,7.01,7.04,7.01c5.29,0,10.59.06,15.88-.03,1.99-.03,2.54.77,2.56,2.65.02,1.97-.99,2.18-2.54,2.17-6.52-.03-13.03-.03-19.55,0-3.33.01-3.41.05-3.37,3.3.03,2.55-1.08,5.77.47,7.49,1.76,1.96,5.11.64,7.76.71,5.43.14,10.86.08,16.29.02,1.75-.02,2.37.67,2.38,2.41.01,1.75-.58,2.4-2.35,2.38-6.38-.07-12.76-.02-19.14-.02-2.85,0-5.7.03-8.55,0-2.91-.04-2.97-.08-2.99-2.92-.05-5.16-.01-10.31-.01-15.47Z"/>
      <path class="cls-6" d="M732.04,218.4c-1.51,0-2.46-.09-3.38.02-1.76.21-2.67-.49-3.31-2.17-1.55-4.09-4.91-5.96-9.01-6.75-2.98-.57-5.97-.48-8.91.15-6.57,1.4-10.3,6.29-10.5,13.63-.18,6.71,3.3,11.74,9.51,13.52,3.59,1.03,7.26.99,10.87.04,3.15-.83,6.02-2.49,7.14-5.57,1.39-3.81,3.74-4.43,7.17-3.44.53,1.12.03,2.12-.34,3.12-.61,1.67-1.52,3.18-2.68,4.53-7.57,8.86-25.09,9.12-33.14.64-6.75-7.11-7.14-24.38,6.32-29.84,7.41-3,14.91-2.69,22.16.66,4.6,2.12,7.41,5.73,8.09,11.46Z"/>
      <path class="cls-6" d="M688.25,241.17c-.5.11-.77.21-1.03.22-5.23.2-5.17.17-7.56-4.57-3.7-7.37-1.24-5.79-9.51-5.97-2.99-.07-5.99.16-8.96-.06-2.78-.2-4.67.48-5.53,3.37-.42,1.41-1.47,2.63-1.9,4.04-.81,2.67-2.43,3.72-5.15,3.24-.77-.14-1.6.1-2.27-.36-.26-.98.31-1.65.66-2.36,5.14-10.32,10.3-20.63,15.48-30.92.52-1.04.76-2.49,2.31-2.55,1.88-.07,3.8-.35,5.65.21.69.21.89.98,1.19,1.58,5.51,11.04,11.03,22.08,16.53,33.13.11.22.05.52.09,1ZM659.72,225.88h14.79c-2.53-5.24-4.88-10.12-7.53-15.6-2.57,5.53-4.83,10.37-7.27,15.6Z"/>
      <path class="cls-3" d="M778.89,222.98c0-5.01-.04-10.02.02-15.03.03-2.66.1-2.66,2.77-2.68,2.9-.02,3.05.05,3.06,2.82.03,10.16.03,20.31-.01,30.47,0,.97.56,2.4-.97,2.7-1.43.28-2.99.51-4.35-.2-.8-.42-.5-1.46-.5-2.24-.02-5.28-.01-10.56-.01-15.84Z"/>
      <path class="cls-5" d="M823.94,195.77c-4.23,2.56-5.81,7.75-11.32,6.46,2.64-6.59,3.53-7.16,11.32-6.46Z"/>
      <g>
        <g>
          <g>
            <polygon class="cls-7" points="68.77 31.09 82.36 18.78 93.68 36.61 79.47 49.77 68.77 31.09"/>
            <polygon class="cls-9" points="83.69 17.51 94.91 35.34 102.63 28.44 88.53 11.67 83.69 17.51"/>
            <polygon class="cls-10" points="89.77 10.29 104.18 27.28 110.77 20.48 93.16 5.73 89.77 10.29"/>
            <polygon class="cls-1" points="94.81 4.78 111.38 19.53 117.04 14.01 98.62 0 94.81 4.78"/>
            <polygon class="cls-10" points="81.22 51.26 85.65 57.95 89.76 52 99.44 47.12 94.81 38.74 81.22 51.26"/>
            <polygon class="cls-9" points="86.47 59.64 90.79 53.81 100.26 48.34 105 55.93 93.16 70.57 86.47 59.64"/>
            <polygon class="cls-1" points="96.35 37.25 106.54 54.34 115.91 42.98 103.87 29.61 96.35 37.25"/>
            <polygon class="cls-7" points="105.31 28.12 112 21.91 124.25 32.48 117.04 41.28 105.31 28.12"/>
            <polygon class="cls-10" points="112.82 20.59 125.59 31.6 131.04 23.51 118.28 14.75 112.82 20.59"/>
            <polygon class="cls-1" points="94.19 71.74 94.81 73.65 109.22 63.89 106.13 57.52 94.19 71.74"/>
            <polygon class="cls-7" points="107.26 56.78 110.76 62.93 124.25 52.22 117.04 43.83 107.26 56.78"/>
            <polygon class="cls-10" points="117.97 42.98 125.48 51.37 136.7 43.83 125.59 34.28 117.97 42.98"/>
            <polygon class="cls-9" points="126.72 32.8 137.94 42.83 146.89 35.87 132.38 25.15 126.72 32.8"/>
            <polygon class="cls-9" points="95.73 74.82 104.48 88.94 119.31 82.78 110.15 64.84 95.73 74.82"/>
            <polygon class="cls-10" points="111.48 64.1 120.13 82.36 140.61 73.23 125.28 53.38 111.48 64.1"/>
            <polygon class="cls-10" points="143.29 73.66 159.04 89.79 166.35 78.01 151.94 70.58 143.29 73.66"/>
            <polygon class="cls-10" points="145.96 99.02 147.92 92.87 152.04 96.47 149 100.08 145.96 99.02"/>
            <polygon class="cls-1" points="141.33 74.5 145.97 78.75 144.63 81.51 144.63 90.64 146.38 92.87 144.93 99.55 127.85 97.85 120.64 83.63 141.33 74.5"/>
            <polygon class="cls-9" points="146.89 80.55 146.38 89.79 152.96 94.88 157.29 90.53 146.89 80.55"/>
            <polygon class="cls-1" points="139.38 43.83 145.97 56.89 165.22 47.44 148.03 36.83 139.38 43.83"/>
            <polygon class="cls-7" points="146.89 58.59 152.97 69.73 167.27 76.31 176.13 71.54 185.6 60.18 166.35 48.35 165.22 50.2 146.89 58.59"/>
            <polygon class="cls-7" points="126.72 52.85 138.35 44.58 150.7 69.3 142.26 72.81 126.72 52.85"/>
            <polygon class="cls-7" points="105.31 90.63 108.7 96.47 126.72 97.53 119.31 83.74 105.31 90.63"/>
            <polygon class="cls-1" points="168.61 77.48 174.99 87.72 183.43 97.54 192.08 82.36 176.43 72.81 168.61 77.48"/>
            <polygon class="cls-7" points="178.49 71.85 193.42 80.19 200.42 68.99 186.83 61.24 178.49 71.85"/>
          </g>
          <polygon class="cls-1" points="66.34 67.08 78.32 86.24 93.16 75.52 79.75 53.55 66.34 67.08"/>
          <polygon class="cls-7" points="79.21 87.02 93.67 75.68 102.63 89.78 85.81 97.53 79.21 87.02"/>
          <polygon class="cls-7" points="46.24 87.71 56.46 101.35 66.79 93.71 55.41 77.34 46.24 87.71"/>
          <polygon class="cls-10" points="58 75.68 75.49 101.84 84.76 98.12 64.88 67.87 58 75.68"/>
          <polygon class="cls-9" points="57.23 101.84 58.76 109.97 73.48 103.11 67.36 94.88 57.23 101.84"/>
        </g>
        <polygon class="cls-10" points="191.41 103.02 183.43 97.54 201.61 71.23 214.95 80.01 191.41 103.02"/>
      </g>
      <g>
        <g>
          <g>
            <polygon class="cls-7" points="20.58 207.46 12.97 190.78 33.39 185.4 41.62 202.93 20.58 207.46"/>
            <polygon class="cls-9" points="12.16 189.12 32.55 183.84 28.32 174.39 8.06 182.74 12.16 189.12"/>
            <polygon class="cls-10" points="7.12 181.14 27.68 172.56 23.2 164.22 3.81 176.52 7.12 181.14"/>
            <polygon class="cls-1" points="3.4 174.66 22.48 163.35 18.94 156.28 0 169.59 3.4 174.66"/>
            <polygon class="cls-10" points="43.57 201.71 51.28 199.52 46.87 193.79 45.15 183.09 35.76 184.96 43.57 201.71"/>
            <polygon class="cls-9" points="53.15 199.25 48.9 193.36 46.56 182.68 55.23 180.47 65.6 196.19 53.15 199.25"/>
            <polygon class="cls-1" points="34.81 183.04 54.18 178.51 46.2 166.14 29.81 173.56 34.81 183.04"/>
            <polygon class="cls-7" points="28.83 171.74 24.93 163.48 38.72 155.01 44.93 164.55 28.83 171.74"/>
            <polygon class="cls-10" points="23.93 162.29 38.29 153.47 32.23 145.82 20.02 155.33 23.93 162.29"/>
            <polygon class="cls-1" points="67.02 195.56 69.03 195.55 64.1 178.86 57.09 179.87 67.02 195.56"/>
            <polygon class="cls-7" points="56.73 178.57 63.65 177.1 57.53 161 47.35 165.32 56.73 178.57"/>
            <polygon class="cls-10" points="46.83 164.18 57.09 159.56 53.32 146.59 40.84 154.28 46.83 164.18"/>
            <polygon class="cls-9" points="39.77 152.75 52.73 145.1 48.82 134.46 34.21 145.04 39.77 152.75"/>
            <polygon class="cls-9" points="70.42 195.02 86.53 190.97 85.16 174.98 65.29 178.27 70.42 195.02"/>
            <polygon class="cls-10" points="64.98 176.77 85 174.06 82.52 151.78 58.95 160.37 64.98 176.77"/>
            <polygon class="cls-10" points="83.73 149.35 103.88 139.24 94.87 128.7 83.42 140.18 83.73 149.35"/>
            <polygon class="cls-10" points="108.71 154.5 103.44 150.77 108.13 147.94 110.65 151.93 108.71 154.5"/>
            <polygon class="cls-1" points="83.95 151.48 89.4 148.35 91.62 150.46 100.32 153.23 102.97 152.24 108.91 155.64 102.11 171.41 86.37 173.96 83.95 151.48"/>
            <polygon class="cls-9" points="91.4 148.01 100.04 151.3 106.89 146.57 104.06 141.13 91.4 148.01"/>
            <polygon class="cls-1" points="54.13 144.04 68.57 141.72 65.4 120.51 50.08 133.67 54.13 144.04"/>
            <polygon class="cls-7" points="70.46 141.35 82.93 138.94 93.53 127.31 91.67 117.42 83.72 104.95 66.61 119.71 68.03 121.35 70.46 141.35"/>
            <polygon class="cls-7" points="58.89 158.84 54.52 145.24 81.83 140.97 82.61 150.08 58.89 158.84"/>
            <polygon class="cls-7" points="88.39 190.7 94.99 189.23 101.46 172.39 86.07 175.27 88.39 190.7"/>
            <polygon class="cls-1" points="95.05 126.38 106.75 123.41 118.66 118.34 106.82 105.5 92.98 117.51 95.05 126.38"/>
            <polygon class="cls-7" points="92.69 115.26 105.16 103.57 96.61 93.5 85.11 104.1 92.69 115.26"/>
          </g>
          <polygon class="cls-1" points="54.14 220.68 76.02 215.08 70.31 197.69 45.31 203.8 54.14 220.68"/>
          <polygon class="cls-7" points="77.04 214.47 70.62 197.25 86.77 192.99 89.05 211.37 77.04 214.47"/>
          <polygon class="cls-7" points="67.7 246.1 83.8 240.49 79.64 228.33 60.6 234.21 67.7 246.1"/>
          <polygon class="cls-10" points="59.8 231.25 90.03 222.51 89.3 212.55 54.44 222.32 59.8 231.25"/>
          <polygon class="cls-9" points="84.49 239.91 92.71 240.92 90.64 224.81 80.93 228.14 84.49 239.91"/>
        </g>
        <polygon class="cls-10" points="126.3 112.41 118.66 118.34 99.1 93.04 111.52 82.99 126.3 112.41"/>
      </g>
      <g>
        <g>
          <g>
            <polygon class="cls-7" points="173.92 305.37 155.68 307.17 157.2 286.1 176.45 283.99 173.92 305.37"/>
            <polygon class="cls-9" points="153.84 307.39 155.45 286.39 145.14 287.33 146.48 309.2 153.84 307.39"/>
            <polygon class="cls-10" points="144.67 309.57 143.21 287.35 133.87 288.88 139.22 311.22 144.67 309.57"/>
            <polygon class="cls-1" points="137.33 311 132.8 289.28 124.97 290.34 131.42 312.57 137.33 311"/>
            <polygon class="cls-10" points="175.93 281.76 176.36 273.75 169.51 276.07 158.83 274.23 157.56 283.72 175.93 281.76"/>
            <polygon class="cls-9" points="176.71 271.9 169.76 274.01 158.9 272.76 159.61 263.84 177.84 259.13 176.71 271.9"/>
            <polygon class="cls-1" points="155.43 284 157.42 264.2 143.14 267.74 144.84 285.66 155.43 284"/>
            <polygon class="cls-7" points="142.8 285.99 133.72 287 130.18 271.22 141.21 268.43 142.8 285.99"/>
            <polygon class="cls-10" points="132.28 287.57 128.58 271.13 119.38 274.37 124.42 289.01 132.28 287.57"/>
            <polygon class="cls-1" points="177.71 257.58 178.35 255.68 160.96 254.94 159.65 261.89 177.71 257.58"/>
            <polygon class="cls-7" points="158.3 261.81 159.15 254.78 141.94 255.36 142.73 266.39 158.3 261.81"/>
            <polygon class="cls-10" points="141.48 266.52 140.44 255.31 126.94 254.68 130.18 268.97 141.48 266.52"/>
            <polygon class="cls-9" points="128.39 269.49 125.35 254.75 114.01 255 119.29 272.26 128.39 269.49"/>
            <polygon class="cls-9" points="178.31 254.19 179.69 237.64 164.11 233.75 160.79 253.62 178.31 254.19"/>
            <polygon class="cls-10" points="159.27 253.42 163.2 233.6 141.31 228.73 141.81 253.81 159.27 253.42"/>
            <polygon class="cls-10" points="139.41 226.8 136.37 204.46 123.48 209.57 130.63 224.12 139.41 226.8"/>
            <polygon class="cls-10" points="152.37 204.83 147.13 208.61 145.97 203.26 150.56 202.17 152.37 204.83"/>
            <polygon class="cls-1" points="141.49 227.28 140.3 221.11 143.01 219.69 148.45 212.36 148.37 209.53 153.51 205.02 166.23 216.56 163.54 232.27 141.49 227.28"/>
            <polygon class="cls-9" points="140.63 219.11 146.54 212 144.28 203.99 138.22 204.91 140.63 219.11"/>
            <polygon class="cls-1" points="124.79 253.08 127.27 238.67 106.19 234.79 113.67 253.56 124.79 253.08"/>
            <polygon class="cls-7" points="127.54 236.76 129.3 224.19 121.73 210.38 111.77 208.94 97.4 212.43 105.81 233.4 107.83 232.58 127.54 236.76"/>
            <polygon class="cls-7" points="140.33 253.38 126.06 253.1 130.87 225.88 139.73 228.09 140.33 253.38"/>
            <polygon class="cls-7" points="180.03 235.78 180.78 229.07 166.95 217.49 164.68 232.99 180.03 235.78"/>
            <polygon class="cls-1" points="121.35 208.65 122.32 196.62 121.39 183.71 105.4 190.75 112.28 207.74 121.35 208.65"/>
            <polygon class="cls-7" points="110.06 207.28 103.03 191.7 90.74 196.52 97.04 210.84 110.06 207.28"/>
          </g>
          <polygon class="cls-1" points="197.31 277.91 199.09 255.38 180.79 255.16 178.48 280.79 197.31 277.91"/>
          <polygon class="cls-7" points="198.84 254.22 180.47 254.72 181.68 238.06 199.8 241.85 198.84 254.22"/>
          <polygon class="cls-7" points="225.74 273.31 225.65 256.26 212.81 256.25 212.2 276.17 225.74 273.31"/>
          <polygon class="cls-10" points="209.13 275.97 210.66 244.54 201 242.01 198.95 278.15 209.13 275.97"/>
          <polygon class="cls-9" points="225.33 255.41 228.94 247.97 213.03 244.71 213.04 254.97 225.33 255.41"/>
        </g>
        <polygon class="cls-10" points="118.25 174.55 121.39 183.71 91.12 194.01 85.63 179.01 118.25 174.55"/>
      </g>
      <g>
        <g>
          <g>
            <polygon class="cls-7" points="316.43 192.3 312.12 210.12 292.73 201.74 297.08 182.87 316.43 192.3"/>
            <polygon class="cls-9" points="311.73 211.92 292.42 203.49 289.92 213.53 311.01 219.47 311.73 211.92"/>
            <polygon class="cls-10" points="310.77 221.3 289.3 215.37 287.67 224.69 310.52 226.99 310.77 221.3"/>
            <polygon class="cls-1" points="309.7 228.7 287.7 225.83 286.12 233.57 309.23 234.8 309.7 228.7"/>
            <polygon class="cls-10" points="294.79 182.63 287.37 179.59 287.31 186.82 282.06 196.29 290.6 200.62 294.79 182.63"/>
            <polygon class="cls-9" points="285.74 178.65 285.45 185.9 280.69 195.75 272.51 192.14 274.06 173.37 285.74 178.65"/>
            <polygon class="cls-1" points="290.16 202.72 272.12 194.32 270.76 208.98 288.24 213.26 290.16 202.72"/>
            <polygon class="cls-7" points="287.89 215.3 285.85 224.21 269.78 222.35 270.78 211.02 287.89 215.3"/>
            <polygon class="cls-10" points="285.91 225.76 269.17 223.83 269.2 233.59 284.68 233.65 285.91 225.76"/>
            <polygon class="cls-1" points="272.55 172.98 270.97 171.75 264.54 187.93 270.67 191.46 272.55 172.98"/>
            <polygon class="cls-7" points="270.16 192.71 263.8 189.59 258.68 206.03 269.35 208.91 270.16 192.71"/>
            <polygon class="cls-10" points="269.06 210.14 258.13 207.43 253.09 219.97 267.66 221.62 269.06 210.14"/>
            <polygon class="cls-9" points="267.56 223.48 252.64 221.5 249.14 232.28 267.17 232.98 267.56 223.48"/>
            <polygon class="cls-9" points="269.54 171.31 254.37 164.55 245.57 177.98 263.24 187.66 269.54 171.31"/>
            <polygon class="cls-10" points="262.55 189.03 245.13 178.79 233.33 197.86 257.17 205.65 262.55 189.03"/>
            <polygon class="cls-10" points="230.88 199.01 208.78 194.53 209.36 208.38 225.46 206.42 230.88 199.01"/>
            <polygon class="cls-10" points="214.4 179.54 216.24 185.73 210.81 185.07 211.29 180.37 214.4 179.54"/>
            <polygon class="cls-1" points="232.01 197.21 225.8 196.31 225.35 193.27 220.22 185.72 217.52 184.87 214.95 178.53 230.04 170.32 243.99 178.03 232.01 197.21"/>
            <polygon class="cls-9" points="224.02 195.33 219.25 187.41 210.94 186.9 209.81 192.93 224.02 195.33"/>
            <polygon class="cls-1" points="250.88 221.47 238.09 214.38 227.49 233.02 247.67 232.13 250.88 221.47"/>
            <polygon class="cls-7" points="236.37 213.5 225.08 207.7 209.55 210.31 204.92 219.23 203.47 233.95 226.04 232.91 225.93 230.74 236.37 213.5"/>
            <polygon class="cls-7" points="256.28 206.89 251.31 220.28 227.19 206.78 232.2 199.14 256.28 206.89"/>
            <polygon class="cls-7" points="252.73 163.61 246.64 160.7 231.15 169.95 245.04 177.19 252.73 163.61"/>
            <polygon class="cls-1" points="207.79 210.09 196.75 205.21 184.25 201.84 185.64 219.25 203.94 218.35 207.79 210.09"/>
            <polygon class="cls-7" points="202.78 220.3 185.75 221.81 186.26 235 201.85 233.77 202.78 220.3"/>
          </g>
          <polygon class="cls-1" points="298.2 161.17 277.52 152.07 271.28 169.28 294.72 179.9 298.2 161.17"/>
          <polygon class="cls-7" points="276.34 151.92 270.76 169.44 255.43 162.81 264.98 146.95 276.34 151.92"/>
          <polygon class="cls-7" points="303.22 132.81 287.09 127.28 282.85 139.41 301.46 146.54 303.22 132.81"/>
          <polygon class="cls-10" points="300.27 149.37 271.09 137.58 265.52 145.87 298.97 159.7 300.27 149.37"/>
          <polygon class="cls-9" points="286.19 127.31 280.35 121.44 272.03 135.39 281.72 138.76 286.19 127.31"/>
        </g>
        <polygon class="cls-10" points="174.58 201.79 184.25 201.84 184.02 233.82 168.04 234.06 174.58 201.79"/>
      </g>
      <g>
        <g>
          <g>
            <polygon class="cls-7" points="261.29 21.86 276.4 32.24 261.67 47.37 245.58 36.58 261.29 21.86"/>
            <polygon class="cls-9" points="277.95 33.25 263.19 48.28 271.68 54.2 284.75 36.61 277.95 33.25"/>
            <polygon class="cls-10" points="286.37 37.49 273.18 55.43 281.3 60.27 291.6 39.74 286.37 37.49"/>
            <polygon class="cls-1" points="292.91 41.13 282.38 60.65 289.05 64.89 298.43 43.73 292.91 41.13"/>
            <polygon class="cls-10" points="244.54 38.63 239.06 44.48 245.79 47.11 252.77 55.4 259.86 48.96 244.54 38.63"/>
            <polygon class="cls-9" points="237.6 45.67 244.27 48.53 251.77 56.48 245.48 62.84 228.5 54.7 237.6 45.67"/>
            <polygon class="cls-1" points="261.66 50.12 247.39 63.98 260.6 70.47 270.83 55.67 261.66 50.12"/>
            <polygon class="cls-7" points="272.61 56.73 280.2 61.8 272.75 76.16 262.51 71.18 272.61 56.73"/>
            <polygon class="cls-10" points="281.68 62.3 273.91 77.26 283.04 80.7 288.61 66.26 281.68 62.3"/>
            <polygon class="cls-1" points="227.6 55.97 225.89 57.02 238.71 68.79 244.2 64.31 227.6 55.97"/>
            <polygon class="cls-7" points="245.18 65.24 240 70.07 253.54 80.72 260.03 71.77 245.18 65.24"/>
            <polygon class="cls-10" points="261.07 72.48 254.65 81.72 264.57 90.9 271.3 77.88 261.07 72.48"/>
            <polygon class="cls-9" points="273.01 78.64 265.84 91.87 274.67 98.98 281.75 82.38 273.01 78.64"/>
            <polygon class="cls-9" points="224.97 58.19 213.25 69.96 222.66 82.96 238 69.91 224.97 58.19"/>
            <polygon class="cls-10" points="239.03 71.04 223.26 83.66 236.87 101.49 252.64 81.99 239.03 71.04"/>
            <polygon class="cls-10" points="237.07 104.19 225.01 123.24 238.16 127.63 242.06 111.89 237.07 104.19"/>
            <polygon class="cls-10" points="213.01 112.65 219.45 113.13 216.89 117.97 212.68 115.84 213.01 112.65"/>
            <polygon class="cls-1" points="235.79 102.48 232.73 107.97 229.74 107.3 220.86 109.41 219.09 111.63 212.25 111.77 209.97 94.75 222.14 84.46 235.79 102.48"/>
            <polygon class="cls-9" points="231.19 109.29 222.09 110.92 218.65 118.5 223.88 121.7 231.19 109.29"/>
            <polygon class="cls-1" points="265.19 93.5 254.01 102.93 267.64 119.48 274 100.3 265.19 93.5"/>
            <polygon class="cls-7" points="252.57 104.22 243.12 112.7 240.02 128.14 246.71 135.65 259.95 142.25 267.02 120.79 264.95 120.11 252.57 104.22"/>
            <polygon class="cls-7" points="253.49 83.27 264.23 92.67 243.02 110.4 237.66 102.99 253.49 83.27"/>
            <polygon class="cls-7" points="211.79 71.15 206.89 75.8 210.01 93.57 221.73 83.18 211.79 71.15"/>
            <polygon class="cls-1" points="239.2 129.71 230.7 138.28 223.1 148.76 239.86 153.67 245.54 136.25 239.2 129.71"/>
            <polygon class="cls-7" points="246.95 138.03 242.29 154.47 254.79 158.7 259.2 143.69 246.95 138.03"/>
          </g>
          <polygon class="cls-1" points="225.71 27.8 209.84 43.88 223.69 55.84 241.97 37.73 225.71 27.8"/>
          <polygon class="cls-7" points="209.28 44.93 223.65 56.38 212 68.35 200.58 53.77 209.28 44.93"/>
          <polygon class="cls-7" points="201 13 190.09 26.1 199.91 34.38 213.21 19.54 201 13"/>
          <polygon class="cls-10" points="215.42 21.66 194 44.72 199.76 52.88 224.61 26.56 215.42 21.66"/>
          <polygon class="cls-9" points="189.79 26.96 182.23 30.32 192.3 43.06 198.9 35.21 189.79 26.96"/>
        </g>
        <polygon class="cls-10" points="219.6 157.78 223.1 148.76 252.89 160.38 247.42 175.39 219.6 157.78"/>
      </g>
    </g>
  </g>
</svg>